<svg width="128" height="128" viewBox="0 0 128 128" fill="none" xmlns="http://www.w3.org/2000/svg">
<path d="M4.18139 126.199C3.94941 126.198 3.72401 126.122 3.53937 125.982C3.35473 125.841 3.22092 125.644 3.15821 125.421C3.09549 125.198 3.10731 124.96 3.19185 124.744C3.2764 124.528 3.42907 124.345 3.62673 124.224L19.6822 114.346L3.00593 123.966C2.76462 124.087 2.4862 124.113 2.22689 124.037C1.96759 123.961 1.74671 123.79 1.60887 123.557C1.47103 123.325 1.42649 123.049 1.48425 122.785C1.54201 122.521 1.69776 122.289 1.92006 122.135L15.5073 113.79L3.00379 121.005C2.76161 121.144 2.47428 121.183 2.20364 121.113C1.933 121.043 1.70068 120.87 1.55668 120.63C1.41269 120.39 1.36852 120.104 1.43368 119.832C1.49885 119.56 1.66814 119.325 1.90513 119.176L28.7851 102.355L4.56113 116.348C4.31971 116.478 4.03717 116.511 3.77229 116.439C3.50742 116.366 3.28061 116.195 3.13907 115.96C2.99752 115.724 2.95215 115.443 3.01239 115.176C3.07262 114.908 3.23383 114.673 3.46246 114.521L24.8705 101.162L5.99473 112.06C5.75406 112.192 5.47162 112.226 5.20621 112.156C4.94081 112.085 4.71289 111.915 4.56992 111.68C4.42696 111.446 4.37997 111.165 4.43873 110.897C4.4975 110.628 4.65749 110.393 4.88539 110.24L35.4134 90.7134L7.79739 106.666C7.55712 106.797 7.27595 106.83 7.01192 106.759C6.74789 106.688 6.52116 106.519 6.37854 106.285C6.23592 106.052 6.18829 105.773 6.24549 105.506C6.30269 105.238 6.46035 105.003 6.68593 104.849L36.9622 85.2435L9.69819 100.973C9.45744 101.113 9.17148 101.153 8.90142 101.085C8.63136 101.017 8.39861 100.846 8.25291 100.609C8.10722 100.371 8.06013 100.086 8.12171 99.8147C8.18328 99.5431 8.34865 99.3063 8.58246 99.155L35.9126 81.3566L11.5542 95.4195C11.3139 95.5562 11.0299 95.5941 10.7621 95.5255C10.4943 95.4568 10.2637 95.2869 10.1187 95.0515C9.97379 94.8161 9.9259 94.5336 9.98514 94.2636C10.0444 93.9936 10.2061 93.7571 10.4363 93.6041L35.2811 77.2926L13.3867 89.9326C13.1477 90.065 12.867 90.1006 12.6025 90.0321C12.3381 89.9636 12.1099 89.7963 11.9652 89.5645C11.8205 89.3328 11.7702 89.0544 11.8247 88.7867C11.8792 88.5189 12.0344 88.2823 12.2582 88.1257L37.5467 71.1059L15.407 83.8889C15.168 84.0276 14.8845 84.0681 14.6162 84.0019C14.3479 83.9358 14.1157 83.7681 13.9686 83.5341C13.8215 83.3002 13.7709 83.0183 13.8275 82.7478C13.8841 82.4773 14.0435 82.2394 14.2721 82.0841L36.0534 67.2958L17.3398 78.1033C17.101 78.2324 16.8219 78.2656 16.5594 78.1961C16.297 78.1266 16.0709 77.9597 15.9273 77.7293C15.7836 77.4988 15.7333 77.2223 15.7864 76.9561C15.8396 76.6898 15.9923 76.4539 16.2134 76.2963L31.5243 66.0243L18.9505 73.2777C18.7118 73.4141 18.4297 73.4531 18.163 73.3866C17.8963 73.3201 17.6656 73.1532 17.5189 72.9207C17.3723 72.6882 17.321 72.4081 17.3759 72.1387C17.4308 71.8694 17.5875 71.6316 17.8134 71.475L32.5995 61.3331L20.6337 68.2473C20.3945 68.3778 20.1144 68.4119 19.8509 68.3425C19.5873 68.2731 19.3604 68.1055 19.2165 67.8741C19.0727 67.6426 19.0229 67.3649 19.0774 67.0979C19.1318 66.8309 19.2864 66.5948 19.5094 66.4382L25.9094 62.1715L21.8859 64.4947C21.6475 64.6335 21.3645 64.6745 21.0965 64.609C20.8285 64.5436 20.5962 64.3769 20.4485 64.1439C20.3008 63.9109 20.2491 63.6297 20.3043 63.3594C20.3595 63.089 20.5173 62.8506 20.7446 62.6942L30.1099 56.1897L23.3601 60.0809C23.124 60.2141 22.846 60.2525 22.5826 60.1881C22.3193 60.1238 22.0903 59.9615 21.9422 59.7344C21.7942 59.5073 21.7382 59.2324 21.7856 58.9654C21.833 58.6985 21.9802 58.4596 22.1974 58.2974L32.5974 50.6835L25.0433 55.0398C24.8062 55.1718 24.5276 55.2086 24.2644 55.1425C24.0012 55.0763 23.7731 54.9124 23.6265 54.684C23.4799 54.4555 23.4259 54.1799 23.4755 53.913C23.5251 53.6462 23.6745 53.4083 23.8934 53.2478L28.0875 50.2611L26.2913 51.2979C26.0597 51.434 25.7852 51.4777 25.5228 51.4202C25.2604 51.3628 25.0293 51.2085 24.8758 50.9881C24.7222 50.7677 24.6574 50.4975 24.6944 50.2314C24.7314 49.9653 24.8674 49.723 25.0753 49.5529L33.9563 42.1651L28.2411 45.4611C28.0087 45.5926 27.7353 45.6321 27.4752 45.5718C27.215 45.5115 26.9869 45.3558 26.836 45.1354C26.6851 44.9151 26.6223 44.6461 26.6601 44.3817C26.6979 44.1174 26.8335 43.8768 27.0401 43.7075L30.6667 40.7913L29.6001 41.4099C29.3728 41.5438 29.104 41.5888 28.8455 41.5362C28.5871 41.4835 28.3573 41.3369 28.2005 41.1248C28.0438 40.9126 27.9712 40.6499 27.9969 40.3874C28.0225 40.1248 28.1445 39.8811 28.3393 39.7033L32.1366 36.1769L31.1595 36.7401C30.9389 36.8668 30.6801 36.9105 30.4301 36.8632C30.1801 36.8159 29.9551 36.6808 29.796 36.4822C29.6368 36.2837 29.5539 36.0347 29.5622 35.7804C29.5705 35.5261 29.6694 35.283 29.8411 35.0953L32.2134 32.5139C32.0609 32.5366 31.9053 32.5252 31.7578 32.4806C31.6102 32.436 31.4744 32.3592 31.3601 32.2558C31.193 32.1081 31.0764 31.9118 31.0266 31.6945C30.9769 31.4772 30.9965 31.2497 31.0827 31.0441L33.0561 26.3507L33.039 26.3187C32.8976 26.0737 32.8592 25.7826 32.9324 25.5093C33.0056 25.2361 33.1844 25.0031 33.4294 24.8617L34.0694 24.4905C34.2625 24.3795 34.4855 24.3318 34.7071 24.3539C34.9287 24.3761 35.1378 24.4671 35.3051 24.6142C35.4724 24.7612 35.5894 24.9569 35.6398 25.1738C35.6902 25.3908 35.6715 25.6181 35.5862 25.8238L34.2721 28.9513L36.975 27.3939C37.1954 27.2686 37.4533 27.2259 37.7023 27.2735C37.9514 27.321 38.1754 27.4558 38.3341 27.6535C38.4928 27.8513 38.5759 28.0991 38.5684 28.3526C38.561 28.606 38.4635 28.8485 38.2934 29.0366L36.0982 31.4281L39.2129 29.6318C39.4401 29.4998 39.708 29.4564 39.9653 29.5098C40.2225 29.5632 40.451 29.7096 40.607 29.9211C40.763 30.1325 40.8354 30.3941 40.8104 30.6557C40.7854 30.9172 40.6647 31.1604 40.4715 31.3385L36.6934 34.8627L41.6214 32.019C41.8539 31.8875 42.1272 31.848 42.3874 31.9083C42.6475 31.9686 42.8756 32.1244 43.0265 32.3447C43.1774 32.565 43.2402 32.834 43.2024 33.0984C43.1646 33.3628 43.0291 33.6033 42.8225 33.7726L39.1958 36.6867L43.6929 34.0905C43.9245 33.9516 44.2002 33.9059 44.4643 33.9624C44.7284 34.0189 44.9612 34.1735 45.1158 34.3949C45.2703 34.6163 45.3352 34.8882 45.2972 35.1555C45.2592 35.4229 45.1212 35.6659 44.911 35.8355L36.0321 43.2233L46.6795 37.0771C46.9166 36.9451 47.1952 36.9084 47.4584 36.9745C47.7216 37.0406 47.9497 37.2045 48.0963 37.4329C48.2429 37.6614 48.2968 37.9371 48.2473 38.2039C48.1977 38.4707 48.0482 38.7086 47.8294 38.8691L43.6481 41.8409L48.591 38.9865C48.8271 38.8532 49.1051 38.8149 49.3684 38.8792C49.6318 38.9436 49.8608 39.1058 50.0088 39.3329C50.1569 39.56 50.2129 39.8349 50.1655 40.1019C50.1181 40.3688 49.9708 40.6077 49.7537 40.7699L39.3473 48.3902L51.1681 41.5635C51.4067 41.4183 51.6928 41.3725 51.9648 41.436C52.2369 41.4994 52.4732 41.6671 52.623 41.9029C52.7727 42.1387 52.824 42.4239 52.7658 42.6971C52.7075 42.9703 52.5444 43.2098 52.3115 43.3641L42.9462 49.8686L53.4251 43.8185C53.6649 43.6821 53.9481 43.6439 54.2154 43.7119C54.4827 43.7799 54.7133 43.9487 54.8588 44.1831C55.0042 44.4174 55.0533 44.699 54.9956 44.9687C54.9379 45.2384 54.778 45.4753 54.5494 45.6297L48.1494 49.8963L55.3537 45.7363C55.5925 45.5948 55.8771 45.552 56.147 45.6169C56.4169 45.6818 56.6509 45.8495 56.7992 46.0841C56.9475 46.3188 56.9984 46.6021 56.9412 46.8737C56.884 47.1454 56.7232 47.384 56.4929 47.539L41.6961 57.6873L57.9307 48.3134C58.1703 48.1745 58.4545 48.1343 58.7232 48.2012C58.9919 48.268 59.2241 48.4368 59.3706 48.6717C59.5172 48.9066 59.5666 49.1894 59.5085 49.4601C59.4504 49.7308 59.2893 49.9683 59.0593 50.1225L43.7334 60.4009L60.3841 50.7881C60.6229 50.6537 60.9042 50.6165 61.1698 50.684C61.4353 50.7515 61.6647 50.9187 61.8104 51.1507C61.956 51.3828 62.0068 51.662 61.9522 51.9305C61.8975 52.199 61.7416 52.4362 61.5169 52.5929L39.7334 67.3833L63.3601 53.747C63.6 53.5971 63.8896 53.5486 64.1652 53.6122C64.4409 53.6758 64.68 53.8463 64.8299 54.0862C64.9799 54.3261 65.0284 54.6157 64.9647 54.8914C64.9011 55.167 64.7306 55.4061 64.4907 55.5561L39.1979 72.5694L66.4449 56.8403C66.6846 56.7099 66.9652 56.6763 67.2289 56.7464C67.4927 56.8166 67.7195 56.9852 67.8627 57.2175C68.0059 57.4498 68.0546 57.7282 67.9988 57.9953C67.943 58.2625 67.787 58.4981 67.5627 58.6537L42.7201 74.963L69.2502 59.6457C69.4907 59.5113 69.7738 59.4752 70.0404 59.5449C70.3069 59.6146 70.5361 59.7847 70.68 60.0196C70.8239 60.2545 70.8714 60.536 70.8124 60.8051C70.7535 61.0742 70.5927 61.31 70.3638 61.4633L43.0379 79.2617L72.0918 62.4873C72.3327 62.3501 72.6175 62.3122 72.8859 62.3814C73.1544 62.4507 73.3853 62.6217 73.5298 62.8583C73.6743 63.0948 73.721 63.3784 73.66 63.6488C73.5991 63.9192 73.4353 64.1553 73.2033 64.307L42.9099 83.9166L74.991 65.395C75.2324 65.2535 75.5197 65.2126 75.791 65.281C76.0623 65.3493 76.2959 65.5216 76.4414 65.7605C76.5869 65.9995 76.6327 66.2861 76.5689 66.5585C76.5051 66.8309 76.3368 67.0673 76.1003 67.2169L45.5937 86.7305L77.7643 68.1598C78.0065 68.0201 78.2938 67.9812 78.5645 68.0512C78.8351 68.1213 79.0674 68.2948 79.2114 68.5344C79.3554 68.774 79.3996 69.0606 79.3344 69.3325C79.2693 69.6043 79.1 69.8398 78.863 69.9881L57.4315 83.3598L79.9595 70.3465C80.2012 70.211 80.4861 70.175 80.7539 70.2459C81.0217 70.3168 81.2514 70.4891 81.3945 70.7263C81.5375 70.9636 81.5826 71.2472 81.5202 71.5171C81.4579 71.787 81.2929 72.0221 81.0603 72.1726L54.1633 89.0067L82.3467 72.7465C82.5885 72.619 82.8699 72.5893 83.133 72.6633C83.396 72.7373 83.6207 72.9095 83.7605 73.1443C83.9003 73.3791 83.9447 73.6586 83.8845 73.9251C83.8243 74.1917 83.664 74.425 83.4369 74.5769L69.8902 82.8969L84.2262 74.6217C84.4679 74.4942 84.7494 74.4645 85.0125 74.5385C85.2755 74.6125 85.5001 74.7847 85.64 75.0195C85.7798 75.2543 85.8242 75.5338 85.764 75.8003C85.7037 76.0669 85.5435 76.3002 85.3163 76.4521L69.2161 86.3614L86.1761 76.5737C86.4163 76.4432 86.6975 76.4101 86.9615 76.481C87.2256 76.5519 87.4523 76.7214 87.5949 76.9547C87.7375 77.1879 87.7852 77.467 87.728 77.7343C87.6708 78.0016 87.5131 78.2368 87.2875 78.3913L53.3675 100.324L89.2267 79.6307C89.469 79.4942 89.7551 79.4577 90.0239 79.5291C90.2927 79.6004 90.5231 79.774 90.6658 80.0127C90.8085 80.2514 90.8524 80.5364 90.788 80.807C90.7236 81.0776 90.5561 81.3123 90.3211 81.4611L88.1473 82.8051L90.8438 81.2499C91.0837 81.1157 91.3662 81.0793 91.6323 81.1484C91.8984 81.2174 92.1276 81.3865 92.272 81.6203C92.4165 81.8542 92.4651 82.1349 92.4076 82.4037C92.3502 82.6725 92.1912 82.9088 91.9638 83.0633L74.1633 94.8179L93.3398 83.7459C93.5803 83.6116 93.8634 83.5754 94.13 83.6451C94.3965 83.7148 94.6257 83.885 94.7696 84.1199C94.9135 84.3548 94.961 84.6362 94.902 84.9053C94.8431 85.1744 94.6823 85.4103 94.4534 85.5635L90.2337 88.3027L95.0913 85.4974C95.3274 85.3641 95.6053 85.3258 95.8687 85.3901C96.1321 85.4545 96.361 85.6167 96.5091 85.8438C96.6571 86.0709 96.7132 86.3459 96.6658 86.6128C96.6184 86.8797 96.4711 87.1186 96.2539 87.2809L87.4859 93.6937L97.4934 87.8931C97.7117 87.7674 97.9675 87.723 98.2154 87.7679C98.4634 87.8127 98.6874 87.9438 98.8479 88.1381C99.0084 88.3323 99.0949 88.577 99.0922 88.829C99.0895 89.0809 98.9977 89.3237 98.8331 89.5145L94.9398 94.0137L100.44 90.8393C100.616 90.7378 100.818 90.6889 101.021 90.6984C101.225 90.7079 101.421 90.7755 101.587 90.893C101.753 91.0106 101.883 91.1732 101.959 91.3618C102.036 91.5503 102.057 91.7569 102.02 91.9571L101.914 92.5289L102.052 92.4499C102.297 92.3107 102.587 92.274 102.859 92.3478C103.131 92.4216 103.362 92.5999 103.503 92.8438C103.644 93.0878 103.683 93.3775 103.611 93.6498C103.539 93.9222 103.362 94.1549 103.119 94.2974L100.986 95.5347C100.809 95.6367 100.607 95.6859 100.403 95.6765C100.199 95.667 100.002 95.5993 99.8358 95.4814C99.6703 95.3628 99.5422 95.1994 99.4666 95.0104C99.391 94.8214 99.371 94.6147 99.4091 94.4147L99.5158 93.843L90.5345 99.027C90.3161 99.1527 90.0603 99.1971 89.8124 99.1522C89.5645 99.1074 89.3404 98.9763 89.18 98.7821C89.0195 98.5878 88.9329 98.3431 88.9356 98.0912C88.9383 97.8392 89.0301 97.5964 89.1947 97.4057L93.0881 92.9065L71.4177 105.412C71.1816 105.545 70.9036 105.584 70.6402 105.519C70.3769 105.455 70.1479 105.293 69.9998 105.066C69.8518 104.839 69.7958 104.564 69.8432 104.297C69.8906 104.03 70.0378 103.791 70.255 103.629L79.0166 97.2286L55.7761 110.647C55.536 110.779 55.2542 110.814 54.9892 110.744C54.7241 110.674 54.4962 110.505 54.3527 110.271C54.2092 110.038 54.1611 109.758 54.2184 109.49C54.2756 109.222 54.4339 108.986 54.6603 108.832L58.8801 106.084L44.4075 114.438C44.1676 114.572 43.8851 114.609 43.619 114.54C43.3529 114.471 43.1238 114.302 42.9793 114.068C42.8348 113.834 42.7863 113.553 42.8437 113.284C42.9011 113.016 43.0601 112.779 43.2875 112.625L61.0945 100.866L28.2241 119.853C27.982 119.984 27.6987 120.016 27.4332 119.944C27.1677 119.871 26.9407 119.698 26.7996 119.462C26.6586 119.225 26.6143 118.943 26.6763 118.675C26.7382 118.407 26.9014 118.173 27.1318 118.022L29.2886 116.685L17.7323 123.351C17.4918 123.486 17.2087 123.522 16.9422 123.452C16.6756 123.382 16.4464 123.212 16.3025 122.977C16.1586 122.742 16.1111 122.461 16.1701 122.192C16.229 121.923 16.3898 121.687 16.6187 121.534L50.5601 99.5902L4.71473 126.056C4.55281 126.151 4.36871 126.2 4.18139 126.199Z" fill="#FDC70E"/>
<path d="M101.822 94.4004C101.642 94.4003 101.465 94.3548 101.308 94.2681C101.147 94.18 101.012 94.0521 100.915 93.8967C100.818 93.7413 100.763 93.5635 100.755 93.3806L100.691 91.9513L99.074 92.8836C98.8705 93.0007 98.634 93.0473 98.4013 93.0163C98.1685 92.9853 97.9525 92.8784 97.7867 92.7121C97.621 92.5459 97.5147 92.3295 97.4843 92.0967C97.454 91.8639 97.5014 91.6275 97.6191 91.4244L97.8153 91.0873L96.7337 91.7102C96.5331 91.8281 96.2994 91.877 96.0683 91.8497C95.8372 91.8223 95.6214 91.7202 95.4537 91.5588C95.2867 91.3999 95.1757 91.1912 95.1372 90.9639C95.0987 90.7366 95.135 90.5029 95.2404 90.298L96.4948 87.8766L93.2521 89.7476C93.0456 89.867 92.8051 89.9138 92.5688 89.8805C92.3326 89.8471 92.1144 89.7355 91.949 89.5636C91.7837 89.3916 91.6808 89.1691 91.6567 88.9318C91.6327 88.6944 91.6889 88.4559 91.8164 88.2542L93.9284 84.9156L89.5999 87.4222C89.383 87.5485 89.1285 87.5942 88.8812 87.5514C88.6339 87.5086 88.4096 87.3799 88.2478 87.188C88.086 86.9962 87.997 86.7534 87.9966 86.5024C87.9961 86.2514 88.0841 86.0083 88.2452 85.8158L90.6665 82.9081L86.5257 85.2974C86.3037 85.4258 86.0429 85.4699 85.7911 85.4216C85.5392 85.3734 85.3132 85.236 85.1544 85.0347C84.9955 84.8334 84.9145 84.5816 84.9262 84.3254C84.9379 84.0692 85.0415 83.8259 85.218 83.6398L87.6649 81.067L83.7972 83.2964C83.5763 83.4231 83.3174 83.4666 83.0672 83.4191C82.817 83.3715 82.5921 83.2361 82.4331 83.0371C82.2741 82.8382 82.1915 82.5889 82.2003 82.3344C82.2091 82.0799 82.3086 81.8369 82.4809 81.6494L85.8473 78.0036L80.7593 80.9412C80.5288 81.0725 80.2576 81.1133 79.9987 81.0554C79.7398 80.9976 79.5117 80.8453 79.359 80.6284C79.2063 80.4114 79.1399 80.1454 79.1728 79.8821C79.2057 79.6189 79.3355 79.3773 79.5369 79.2046L80.2409 78.6094L78.8628 79.4052C78.6327 79.5377 78.3615 79.5796 78.1022 79.5228C77.8428 79.466 77.614 79.3146 77.4604 79.098C77.3068 78.8815 77.2394 78.6154 77.2716 78.3519C77.3037 78.0883 77.4329 77.8462 77.634 77.6729L79.1273 76.3929L76.8468 77.7092C76.6195 77.8474 76.3488 77.8957 76.0877 77.8446C75.8266 77.7935 75.5941 77.6467 75.4357 77.433C75.2773 77.2193 75.2044 76.9541 75.2314 76.6894C75.2585 76.4248 75.3834 76.1798 75.5817 76.0025L78.9951 72.7897L74.3017 75.499C74.0779 75.622 73.8175 75.6606 73.5676 75.6078C73.3178 75.555 73.0952 75.4144 72.9402 75.2114C72.7853 75.0084 72.7083 74.7566 72.7232 74.5017C72.7382 74.2468 72.8441 74.0057 73.0217 73.8222L77.5017 69.2974L71.3513 72.8473C71.1244 72.9706 70.8604 73.0074 70.6085 72.9508C70.3565 72.8942 70.1336 72.7481 69.9811 72.5396C69.8287 72.3312 69.757 72.0745 69.7795 71.8172C69.802 71.5599 69.9171 71.3195 70.1033 71.1406L73.5529 68.0324L68.994 70.6628C68.7621 70.793 68.4899 70.8319 68.2307 70.7718C67.9716 70.7117 67.7443 70.557 67.5934 70.3379C67.4425 70.1189 67.3788 69.8514 67.4149 69.5878C67.4511 69.3243 67.5844 69.0838 67.7887 68.9134L69.0516 67.8852L67.202 68.9518C66.9705 69.0831 66.6983 69.1232 66.4389 69.0641C66.1794 69.005 65.9514 68.851 65.7996 68.6324C65.6478 68.4138 65.5832 68.1464 65.6185 67.8826C65.6538 67.6188 65.7864 67.3778 65.9903 67.2068L67.778 65.7348L65.3417 67.1406C65.1146 67.2689 64.8484 67.3095 64.5933 67.2548C64.3383 67.2001 64.1122 67.0538 63.9577 66.8436C63.8032 66.6334 63.7311 66.3739 63.755 66.1142C63.7789 65.8544 63.8971 65.6124 64.0873 65.434L68.1001 61.7646L62.9353 64.7513C62.7094 64.8895 62.4402 64.9388 62.18 64.8895C61.9198 64.8402 61.6872 64.6958 61.5276 64.4846C61.3679 64.2733 61.2925 64.0101 61.3162 63.7463C61.3398 63.4826 61.4607 63.237 61.6553 63.0574L66.2335 58.6884L60.3305 62.0804C60.0977 62.215 59.8226 62.2568 59.5604 62.1972C59.2981 62.1377 59.068 61.9813 58.9161 61.7593C58.7643 61.5373 58.7019 61.2661 58.7414 61.0001C58.781 60.7341 58.9196 60.4928 59.1295 60.3246L60.1961 59.4713L58.6751 60.3481C58.4435 60.4817 58.1703 60.5235 57.9094 60.4652C57.6485 60.4069 57.419 60.2527 57.2664 60.0333C57.1137 59.8138 57.049 59.5451 57.0851 59.2802C57.1212 59.0153 57.2554 58.7736 57.4612 58.603L59.3172 57.0692L56.9129 58.4558C56.6857 58.5878 56.4178 58.6312 56.1605 58.5778C55.9033 58.5245 55.6748 58.378 55.5188 58.1665C55.3628 57.9551 55.2904 57.6935 55.3154 57.4319C55.3404 57.1704 55.4611 56.9273 55.6543 56.7492L59.618 53.0649L54.6388 55.9406C54.4065 56.0738 54.1327 56.1148 53.8716 56.0554C53.6105 55.996 53.3813 55.8405 53.2296 55.62C53.0778 55.3994 53.0145 55.1298 53.0523 54.8648C53.09 54.5997 53.2261 54.3585 53.4335 54.1892L54.4276 53.3806L53.0751 54.1614C52.848 54.288 52.5826 54.3273 52.3286 54.2719C52.0746 54.2165 51.8496 54.0703 51.6958 53.8607C51.542 53.6511 51.47 53.3926 51.4934 53.1337C51.5168 52.8748 51.634 52.6334 51.8228 52.4548L55.0505 49.5193L51.0697 51.8148C50.8428 51.9381 50.5788 51.9748 50.3269 51.9182C50.0749 51.8617 49.852 51.7156 49.6995 51.5071C49.5471 51.2986 49.4754 51.0419 49.4979 50.7846C49.5204 50.5274 49.6355 50.287 49.8217 50.1081L52.5951 47.6057L49.2052 49.5598C48.9747 49.6912 48.7035 49.7319 48.4446 49.6741C48.1857 49.6163 47.9576 49.464 47.8049 49.2471C47.6522 49.0301 47.5858 48.764 47.6187 48.5008C47.6516 48.2375 47.7814 47.996 47.9828 47.8233L49.1327 46.8441L47.7033 47.6697C47.4839 47.7965 47.2265 47.8411 46.9773 47.7955C46.728 47.7498 46.5031 47.6168 46.3429 47.4205C46.1827 47.2241 46.0977 46.9771 46.103 46.7237C46.1084 46.4703 46.2038 46.2271 46.3721 46.0377L50.306 41.6004L45.2969 44.4889C45.0799 44.6138 44.8258 44.6583 44.5792 44.6146C44.3326 44.571 44.1092 44.4419 43.9482 44.2501C43.7871 44.0583 43.6987 43.816 43.6984 43.5655C43.6981 43.3151 43.786 43.0725 43.9465 42.8804L47.3855 38.7758L43.0143 41.2974C42.7897 41.4253 42.5262 41.4673 42.273 41.4155C42.0198 41.3638 41.7939 41.2219 41.6375 41.0161C41.481 40.8104 41.4046 40.5548 41.4224 40.297C41.4402 40.0391 41.551 39.7965 41.7343 39.6142L43.0377 38.3342L41.5913 39.1662C41.3767 39.2888 41.1262 39.3331 40.8826 39.2914C40.639 39.2498 40.4173 39.1249 40.2556 38.938C40.0939 38.751 40.0021 38.5138 39.9959 38.2667C39.9898 38.0196 40.0696 37.7781 40.2217 37.5833L42.3892 34.8356L39.8036 36.3289C39.5971 36.4494 39.3561 36.497 39.1193 36.4641C38.8824 36.4312 38.6635 36.3197 38.4977 36.1474C38.3318 35.9752 38.2287 35.7522 38.2047 35.5143C38.1808 35.2764 38.2375 35.0374 38.3657 34.8356L40.0724 32.107L38.0585 33.2697C37.8752 33.3762 37.6643 33.4257 37.4527 33.4118C37.2412 33.3979 37.0385 33.3213 36.8707 33.1917C36.7029 33.0621 36.5775 32.8854 36.5106 32.6843C36.4436 32.4831 36.4381 32.2665 36.4948 32.0622L37.3247 29.0585L36.258 29.6708C36.112 29.7562 35.9476 29.8053 35.7787 29.8139C35.6097 29.8224 35.4412 29.7902 35.2873 29.7198C35.133 29.6505 34.9974 29.5455 34.8917 29.4134C34.786 29.2814 34.7132 29.1261 34.6793 28.9604L34.1801 26.5156C33.9746 26.463 33.7893 26.3502 33.6482 26.1918C33.507 26.0333 33.4163 25.8364 33.3877 25.6261C33.3591 25.4158 33.3938 25.2018 33.4875 25.0114C33.5811 24.821 33.7294 24.6628 33.9135 24.5572L34.4617 24.2414C34.6083 24.1569 34.7729 24.1084 34.9419 24.1C35.1109 24.0915 35.2795 24.1235 35.4337 24.1931C35.5879 24.2627 35.7234 24.368 35.8289 24.5003C35.9344 24.6326 36.0069 24.7881 36.0404 24.954L36.4671 27.0873L38.5001 25.914C38.6834 25.8081 38.8941 25.7592 39.1052 25.7735C39.3164 25.7877 39.5185 25.8644 39.686 25.9939C39.8534 26.1233 39.9785 26.2997 40.0455 26.5005C40.1124 26.7013 40.118 26.9174 40.0617 27.1214L39.2532 30.138L42.7177 28.139C42.9242 28.0196 43.1648 27.9728 43.4011 28.0061C43.6373 28.0395 43.8555 28.1511 44.0208 28.323C44.1862 28.495 44.2891 28.7175 44.3132 28.9548C44.3372 29.1922 44.281 29.4307 44.1535 29.6324L42.4468 32.3588L46.1417 30.2254C46.3564 30.1016 46.6074 30.0564 46.8518 30.0975C47.0961 30.1387 47.3185 30.2636 47.4808 30.4509C47.6431 30.6381 47.7351 30.876 47.741 31.1237C47.747 31.3715 47.6665 31.6135 47.5135 31.8084L45.3396 34.5604L49.2564 32.3012C49.481 32.1733 49.7444 32.1313 49.9977 32.183C50.2509 32.2348 50.4768 32.3767 50.6332 32.5825C50.7897 32.7882 50.8661 33.0437 50.8483 33.3016C50.8305 33.5595 50.7197 33.8021 50.5364 33.9844L49.2329 35.2644L51.5519 33.9268C51.769 33.8019 52.0231 33.7574 52.2697 33.8011C52.5163 33.8447 52.7396 33.9737 52.9007 34.1655C53.0617 34.3573 53.1501 34.5997 53.1504 34.8501C53.1507 35.1006 53.0628 35.3431 52.9023 35.5353L49.4633 39.6398L54.9481 36.474C55.1673 36.3485 55.4239 36.3048 55.6722 36.3508C55.9206 36.3967 56.1445 36.5293 56.3043 36.7249C56.4641 36.9205 56.5492 37.1664 56.5447 37.4189C56.5401 37.6714 56.4461 37.9141 56.2793 38.1038L52.3476 42.5305L58.2655 39.1172C58.4961 38.9812 58.7694 38.937 59.0311 38.9932C59.2928 39.0495 59.5239 39.202 59.6783 39.4207C59.8328 39.6393 59.8993 39.908 59.8649 40.1735C59.8304 40.439 59.6973 40.6818 59.4921 40.8537L58.3359 41.835L60.2239 40.7449C60.4508 40.6216 60.7148 40.5848 60.9668 40.6414C61.2188 40.698 61.4417 40.8441 61.5941 41.0526C61.7465 41.261 61.8182 41.5177 61.7957 41.775C61.7732 42.0323 61.6582 42.2727 61.4719 42.4516L58.6985 44.954L62.5385 42.7353C62.7656 42.6087 63.0311 42.5695 63.2851 42.6248C63.539 42.6802 63.7641 42.8264 63.9178 43.036C64.0716 43.2456 64.1436 43.5041 64.1202 43.763C64.0968 44.0219 63.9797 44.2633 63.7908 44.442L60.5865 47.3753L64.9492 44.8558C65.1816 44.7201 65.4566 44.6772 65.7192 44.7358C65.9819 44.7943 66.2127 44.9499 66.3654 45.1714C66.5181 45.393 66.5815 45.664 66.5428 45.9303C66.5041 46.1966 66.3662 46.4384 66.1567 46.6073L65.1625 47.4158L66.7519 46.4985C66.9791 46.3665 67.247 46.3231 67.5043 46.3765C67.7616 46.4299 67.9901 46.5763 68.146 46.7878C68.302 46.9992 68.3744 47.2608 68.3494 47.5224C68.3244 47.7839 68.2037 48.0271 68.0105 48.2052L64.0447 51.8873L69.2756 48.8686C69.5072 48.7353 69.7804 48.6938 70.0411 48.7523C70.3018 48.8107 70.5311 48.9649 70.6836 49.1844C70.8365 49.4041 70.9011 49.6732 70.8648 49.9384C70.8284 50.2036 70.6937 50.4454 70.4873 50.6158L68.6377 52.1433L71.1636 50.6862C71.3962 50.5523 71.6706 50.511 71.9323 50.5705C72.1939 50.63 72.4236 50.7859 72.5754 51.0071C72.7272 51.2284 72.79 51.4988 72.7514 51.7643C72.7127 52.0298 72.5754 52.271 72.3668 52.4398L71.3001 53.2932L72.8916 52.3758C73.1174 52.2471 73.3824 52.2053 73.6368 52.2581C73.8912 52.311 74.1176 52.4549 74.2735 52.6628C74.4293 52.8708 74.5039 53.1285 74.4831 53.3875C74.4624 53.6466 74.3479 53.8891 74.1609 54.0697L69.5679 58.4537L75.4985 55.0404C75.7257 54.9121 75.9919 54.8715 76.2469 54.9262C76.502 54.9809 76.7281 55.1272 76.8826 55.3374C77.0371 55.5476 77.1092 55.8071 77.0853 56.0668C77.0614 56.3266 76.9432 56.5686 76.7529 56.747L72.7465 60.4036L77.8516 57.4574C78.0832 57.3238 78.3564 57.282 78.6173 57.3403C78.8782 57.3986 79.1077 57.5528 79.2603 57.7722C79.413 57.9917 79.4777 58.2605 79.4416 58.5253C79.4055 58.7902 79.2713 59.0319 79.0655 59.2025L77.2777 60.6745L79.6073 59.3305C79.8394 59.198 80.1126 59.1574 80.3731 59.2167C80.6337 59.276 80.8624 59.4309 81.0142 59.6508C81.166 59.8707 81.2297 60.1395 81.1928 60.4041C81.1559 60.6688 81.021 60.9099 80.8148 61.0798L79.5583 62.0996L81.2521 61.1225C81.4791 60.9992 81.743 60.9624 81.995 61.019C82.247 61.0756 82.4699 61.2217 82.6224 61.4301C82.7748 61.6386 82.8464 61.8953 82.824 62.1526C82.8015 62.4099 82.6864 62.6503 82.5001 62.8292L79.0463 65.9438L83.3471 63.4606C83.5708 63.3316 83.8338 63.2882 84.0872 63.3384C84.3405 63.3886 84.567 63.529 84.7247 63.7336C84.8824 63.9381 84.9605 64.193 84.9445 64.4508C84.9285 64.7086 84.8195 64.9518 84.6377 65.1353L80.1577 69.658L85.8623 66.3641C86.0896 66.2259 86.3603 66.1776 86.6214 66.2287C86.8825 66.2798 87.115 66.4266 87.2734 66.6403C87.4318 66.854 87.5047 67.1192 87.4776 67.3838C87.4506 67.6485 87.3257 67.8935 87.1273 68.0708L83.714 71.2857L87.9167 68.8601C88.1467 68.7276 88.4179 68.6856 88.6773 68.7424C88.9366 68.7992 89.1655 68.9507 89.3191 69.1672C89.4727 69.3838 89.54 69.6498 89.5079 69.9134C89.4758 70.1769 89.3466 70.419 89.1455 70.5924L87.6671 71.8724L89.4804 70.8249C89.711 70.6916 89.9832 70.6494 90.2434 70.7067C90.5036 70.7639 90.7329 70.9164 90.8863 71.1342C91.04 71.3523 91.1064 71.62 91.0724 71.8846C91.0384 72.1491 90.9066 72.3914 90.7028 72.5636L89.9945 73.163L90.8863 72.6489C91.1069 72.5236 91.365 72.481 91.6142 72.5289C91.8634 72.5767 92.0874 72.7118 92.2459 72.9099C92.4044 73.108 92.4872 73.3562 92.4792 73.6098C92.4713 73.8634 92.3732 74.1059 92.2025 74.2937L88.834 77.9396L93.0111 75.5289C93.2333 75.4005 93.4944 75.3565 93.7464 75.405C93.9984 75.4535 94.2245 75.5912 94.3832 75.7929C94.5418 75.9947 94.6225 76.2468 94.6103 76.5032C94.598 76.7595 94.4938 77.0029 94.3167 77.1886L91.8676 79.7657L94.7903 78.0782C95.0071 77.9525 95.2612 77.9071 95.5082 77.95C95.7551 77.9929 95.979 78.1214 96.1407 78.3129C96.302 78.505 96.3904 78.7479 96.3904 78.9988C96.3904 79.2496 96.302 79.4925 96.1407 79.6846L93.7193 82.5902L96.6335 80.9092C96.84 80.7897 97.0806 80.7429 97.3168 80.7762C97.553 80.8096 97.7712 80.9212 97.9366 81.0932C98.1019 81.2651 98.2048 81.4876 98.2289 81.7249C98.2529 81.9623 98.1967 82.2009 98.0692 82.4025L95.9572 85.7433L98.6089 84.2137C98.8085 84.0989 99.0398 84.0518 99.2684 84.0793C99.4969 84.1068 99.7105 84.2076 99.8771 84.3665C100.044 84.5254 100.154 84.7339 100.193 84.9609C100.231 85.1879 100.195 85.4212 100.089 85.626L98.8351 88.0473L100.224 87.2473C100.426 87.1287 100.661 87.081 100.893 87.1115C101.125 87.142 101.34 87.2491 101.504 87.4158C101.668 87.5814 101.773 87.7963 101.804 88.0274C101.834 88.2586 101.788 88.4934 101.672 88.6958L101.433 89.1076C101.692 89.0463 101.963 89.082 102.197 89.2078C102.358 89.2959 102.493 89.4238 102.59 89.5792C102.686 89.7347 102.742 89.9124 102.75 90.0953L102.824 91.7401C103.051 91.7586 103.266 91.8489 103.437 91.9979C103.609 92.1469 103.728 92.3468 103.778 92.5685C103.828 92.7902 103.806 93.0221 103.715 93.2303C103.624 93.4386 103.469 93.6123 103.272 93.7262L102.361 94.2532C102.198 94.3494 102.012 94.4002 101.822 94.4004Z" fill="#D39518"/>
<path d="M30.146 119.189C29.9437 119.189 29.7456 119.132 29.5748 119.024C29.4039 118.915 29.2673 118.761 29.181 118.578C29.0947 118.395 29.0622 118.191 29.0872 117.991C29.1123 117.79 29.1939 117.6 29.3225 117.444L32.0511 114.133L25.6361 117.835C25.4142 117.963 25.1533 118.007 24.9015 117.959C24.6496 117.911 24.4236 117.773 24.2648 117.572C24.1059 117.371 24.0249 117.119 24.0366 116.863C24.0483 116.607 24.1519 116.363 24.3284 116.177L27.9828 112.337L22.8884 115.277C22.669 115.404 22.4116 115.448 22.1623 115.403C21.913 115.357 21.6882 115.224 21.528 115.028C21.3678 114.831 21.2828 114.584 21.2881 114.331C21.2935 114.077 21.3889 113.834 21.5572 113.645L25.6105 109.075L19.8932 112.38C19.6678 112.513 19.4011 112.559 19.1439 112.509C18.8868 112.459 18.6572 112.315 18.4989 112.106C18.3407 111.898 18.2649 111.638 18.286 111.376C18.307 111.115 18.4235 110.871 18.6132 110.69L21.5465 107.846L17.6212 110.114C17.401 110.241 17.1427 110.285 16.8929 110.238C16.6431 110.191 16.4183 110.057 16.2588 109.859C16.0993 109.661 16.0156 109.413 16.0229 109.159C16.0302 108.905 16.128 108.662 16.2985 108.474L20.2431 104.137L14.8372 107.258C14.6113 107.396 14.3421 107.445 14.0819 107.396C13.8217 107.347 13.5891 107.202 13.4294 106.991C13.2698 106.78 13.1944 106.516 13.218 106.253C13.2416 105.989 13.3625 105.743 13.5572 105.564L16.3305 102.914L12.7039 105.009C12.4849 105.136 12.2279 105.181 11.9789 105.136C11.7298 105.091 11.5049 104.958 11.3444 104.763C11.1838 104.567 11.0981 104.321 11.1025 104.068C11.1069 103.815 11.2012 103.571 11.3684 103.381L15.5092 98.6624L9.85588 101.926C9.62859 102.07 9.35565 102.122 9.09159 102.072C8.82752 102.023 8.59179 101.876 8.43148 101.66C8.27117 101.445 8.19808 101.177 8.22683 100.91C8.25558 100.643 8.38404 100.396 8.58655 100.22L11.2831 97.6598L10.69 98.0011C10.4807 98.121 10.2369 98.1664 9.99849 98.1299C9.76004 98.0935 9.54101 97.9772 9.37713 97.8002C9.21324 97.6232 9.1142 97.3959 9.09615 97.1554C9.0781 96.9148 9.14211 96.6753 9.27775 96.4758L12.2644 92.1195C12.1163 92.1304 11.9674 92.1119 11.8265 92.065C11.6855 92.0182 11.5552 91.9439 11.4431 91.8464C11.2754 91.6944 11.1605 91.493 11.1148 91.2714C11.0692 91.0497 11.0952 90.8193 11.1892 90.6134L12.4436 87.8571C12.318 87.6136 12.2909 87.3311 12.368 87.0682C12.445 86.8052 12.6203 86.582 12.8575 86.4448L13.4591 86.0971C13.6553 85.9781 13.8846 85.9255 14.1131 85.9471C14.3415 85.9688 14.5569 86.0636 14.7272 86.2174C14.8976 86.3712 15.0137 86.5758 15.0585 86.8009C15.1033 87.0259 15.0743 87.2594 14.9759 87.4667L14.5193 88.4736L15.1593 88.1003C15.3689 87.9785 15.6137 87.9317 15.8534 87.9675C16.0931 88.0034 16.3135 88.1199 16.4781 88.2977C16.6428 88.4756 16.742 88.7042 16.7594 88.946C16.7768 89.1877 16.7113 89.4282 16.5737 89.6278L13.7087 93.8091L17.9988 91.3323C18.2245 91.2053 18.4887 91.1647 18.7422 91.2182C18.9956 91.2717 19.2209 91.4155 19.3761 91.6229C19.5312 91.8303 19.6056 92.0871 19.5853 92.3453C19.5651 92.6035 19.4516 92.8455 19.266 93.0262L16.5695 95.5862L20.0532 93.5808C20.2722 93.4539 20.5292 93.409 20.7782 93.4541C21.0273 93.4992 21.2522 93.6315 21.4127 93.8271C21.5733 94.0228 21.659 94.2692 21.6546 94.5223C21.6502 94.7753 21.5559 95.0186 21.3887 95.2086L17.2457 99.9254L22.9417 96.6379C23.1676 96.4997 23.4369 96.4504 23.6971 96.4997C23.9573 96.549 24.1899 96.6934 24.3495 96.9047C24.5092 97.1159 24.5846 97.3791 24.5609 97.6429C24.5373 97.9067 24.4164 98.1522 24.2217 98.3318L21.4484 100.981L25.1177 98.8651C25.338 98.7384 25.5963 98.6944 25.846 98.7412C26.0958 98.7879 26.3207 98.9223 26.4802 99.1201C26.6397 99.3179 26.7233 99.5662 26.716 99.8202C26.7087 100.074 26.611 100.317 26.4404 100.506L22.4937 104.843L27.9465 101.694C28.172 101.56 28.4387 101.514 28.6958 101.565C28.953 101.615 29.1826 101.758 29.3408 101.967C29.4991 102.176 29.5749 102.436 29.5538 102.697C29.5327 102.958 29.4162 103.203 29.2265 103.384L26.2953 106.227L30.2655 103.936C30.4846 103.811 30.7412 103.767 30.9896 103.813C31.2379 103.859 31.4619 103.991 31.6216 104.187C31.7814 104.383 31.8666 104.628 31.862 104.881C31.8574 105.134 31.7634 105.376 31.5967 105.566L27.5433 110.138L33.3183 106.803C33.5405 106.673 33.8023 106.628 34.0552 106.676C34.3082 106.724 34.5353 106.862 34.6947 107.064C34.854 107.266 34.9348 107.519 34.9222 107.776C34.9096 108.033 34.8044 108.277 34.626 108.463L30.9695 112.303L36.1215 109.329C36.3379 109.213 36.5879 109.174 36.8293 109.221C37.0706 109.267 37.2885 109.396 37.4461 109.584C37.6037 109.773 37.6912 110.01 37.694 110.256C37.6967 110.502 37.6145 110.741 37.4612 110.933L34.7305 114.238L38.9417 111.808C39.0632 111.731 39.1989 111.679 39.3409 111.656C39.4828 111.632 39.628 111.638 39.7678 111.672C39.9075 111.706 40.0389 111.769 40.1539 111.855C40.269 111.941 40.3655 112.05 40.4375 112.174C40.5095 112.299 40.5555 112.437 40.5729 112.58C40.5902 112.722 40.5785 112.867 40.5384 113.005C40.4983 113.144 40.4307 113.272 40.3396 113.384C40.2486 113.495 40.1359 113.587 40.0084 113.653L30.6793 119.04C30.5183 119.137 30.334 119.189 30.146 119.189Z" fill="#2167D8"/>
<path d="M63.6122 106.731C63.4005 106.731 63.1938 106.667 63.0183 106.549C62.8427 106.43 62.7064 106.263 62.6266 106.067C62.5467 105.871 62.527 105.655 62.57 105.448C62.6129 105.241 62.7165 105.051 62.8676 104.903L65.9055 101.931L61.3807 104.534C61.1516 104.666 60.8813 104.709 60.6223 104.654C60.3634 104.598 60.1343 104.449 59.9797 104.234C59.8251 104.019 59.756 103.754 59.7858 103.491C59.8157 103.227 59.9424 102.985 60.1412 102.81L61.7434 101.4L59.2196 102.857C58.9953 102.983 58.7329 103.024 58.4808 102.972C58.2288 102.92 58.0041 102.778 57.8481 102.573C57.6922 102.368 57.6156 102.114 57.6324 101.857C57.6492 101.601 57.7583 101.358 57.9396 101.176L61.082 98.0718L56.5338 100.694C56.3116 100.821 56.0512 100.863 55.8001 100.814C55.549 100.765 55.3239 100.627 55.1659 100.426C55.0078 100.225 54.9274 99.9737 54.9392 99.7181C54.951 99.4625 55.0544 99.2197 55.2303 99.0339L58.8271 95.2792L53.6623 98.2659C53.4408 98.3927 53.1811 98.4358 52.9305 98.3875C52.6799 98.3392 52.4549 98.2026 52.2964 98.0025C52.1379 97.8025 52.0564 97.5522 52.0666 97.2971C52.0769 97.0421 52.1783 96.7992 52.3524 96.6126L56.1071 92.6318L50.7738 95.7059C50.5452 95.8359 50.2767 95.877 50.0197 95.8211C49.7627 95.7653 49.5354 95.6164 49.3815 95.4032C49.2275 95.19 49.1578 94.9275 49.1856 94.666C49.2134 94.4045 49.3368 94.1625 49.5322 93.9864L51.1962 92.5102L48.7919 93.899C48.5695 94.0274 48.3082 94.0713 48.056 94.0226C47.8037 93.9738 47.5776 93.8357 47.4191 93.6336C47.2606 93.4315 47.1803 93.179 47.193 92.9224C47.2058 92.6658 47.3107 92.4225 47.4884 92.2371L51.098 88.4675L46.0804 91.356C45.8536 91.4763 45.5911 91.5107 45.341 91.453C45.0909 91.3952 44.87 91.2493 44.7188 91.0418C44.5676 90.8344 44.4963 90.5794 44.518 90.3236C44.5396 90.0678 44.6528 89.8284 44.8367 89.6494L46.6351 88.0387L44.1306 89.483C43.9082 89.6099 43.6475 89.6526 43.3963 89.6033C43.145 89.5539 42.9198 89.4158 42.7619 89.2142C42.6041 89.0126 42.524 88.7609 42.5363 88.5051C42.5487 88.2494 42.6527 88.0066 42.8292 87.8211L46.4111 84.0963L41.5407 86.908C41.3217 87.0336 41.0654 87.0774 40.8171 87.0317C40.5689 86.9861 40.3449 86.8538 40.185 86.6586C40.025 86.4633 39.9395 86.2177 39.9436 85.9653C39.9477 85.713 40.0412 85.4702 40.2074 85.2803L44.3076 80.6296L38.6138 83.9086C38.3869 84.0303 38.1237 84.0659 37.8726 84.0087C37.6216 83.9516 37.3997 83.8055 37.2479 83.5976C37.0961 83.3896 37.0246 83.1338 37.0467 82.8773C37.0687 82.6208 37.1828 82.3809 37.3679 82.2019L39.1898 80.5699L36.7578 81.9715C36.5289 82.1039 36.259 82.1466 36.0005 82.0913C35.7419 82.036 35.5131 81.8866 35.3584 81.6721C35.2038 81.4577 35.1343 81.1934 35.1634 80.9306C35.1926 80.6679 35.3183 80.4253 35.5162 80.2499L37.1695 78.7843L34.9722 80.0515C34.753 80.1784 34.4958 80.2231 34.2466 80.1777C33.9974 80.1323 33.7726 79.9998 33.6122 79.8037C33.4518 79.6077 33.3665 79.361 33.3713 79.1078C33.3762 78.8546 33.471 78.6113 33.6388 78.4216L37.7668 73.7518L32.2138 76.9539C31.9958 77.0797 31.7404 77.1245 31.4927 77.0802C31.245 77.0359 31.0209 76.9055 30.86 76.712C30.6992 76.5184 30.6119 76.2743 30.6137 76.0226C30.6155 75.771 30.7062 75.5281 30.8698 75.3368L35.1364 70.347L29.3764 73.6664C29.1538 73.7934 28.8929 73.836 28.6415 73.7864C28.39 73.7369 28.1648 73.5984 28.0071 73.3964C27.8494 73.1944 27.7697 72.9423 27.7825 72.6863C27.7954 72.4304 27.9 72.1876 28.0772 72.0024L31.6335 68.3224L27.1279 70.9251C26.8991 71.0555 26.6301 71.0966 26.3728 71.0406C26.1155 70.9846 25.888 70.8353 25.7341 70.6216C25.5802 70.4079 25.5108 70.1448 25.5393 69.8829C25.5678 69.6211 25.6922 69.3791 25.8884 69.2035L27.433 67.8339L25.5492 68.9219C25.3283 69.0501 25.0687 69.0948 24.8177 69.0478C24.5666 69.0009 24.3407 68.8654 24.1811 68.6659C24.0215 68.4665 23.9387 68.2165 23.9478 67.9612C23.9569 67.706 24.0574 67.4624 24.2308 67.275L28.1604 63.0083L23.2538 65.8435C23.0247 65.9758 22.7547 66.0183 22.4961 65.9627C22.2375 65.9071 22.0088 65.7574 21.8543 65.5427C21.6996 65.3272 21.6307 65.0619 21.6611 64.7984C21.6915 64.5349 21.8189 64.2922 22.0186 64.1176L23.2644 63.0296L22.1807 63.6547C21.9499 63.7888 21.6771 63.8315 21.4164 63.7743C21.1556 63.7172 20.9257 63.5643 20.7722 63.3459C20.6187 63.1275 20.5526 62.8595 20.587 62.5948C20.6215 62.33 20.754 62.0878 20.9583 61.916L22.4218 60.6787C22.2073 60.6272 22.0147 60.5092 21.8714 60.3416C21.7088 60.1542 21.6167 59.9159 21.6109 59.6679C21.605 59.4199 21.6858 59.1776 21.8394 58.9827L24.6468 55.42C24.4573 55.459 24.2607 55.4456 24.0782 55.3814C23.8956 55.3171 23.734 55.2045 23.6106 55.0554C23.4872 54.9064 23.4067 54.7266 23.3776 54.5352C23.3486 54.3439 23.3721 54.1483 23.4458 53.9694L25.2932 49.4488C25.167 49.2051 25.1396 48.9221 25.2166 48.6587C25.2937 48.3952 25.4694 48.1716 25.7071 48.0344L26.2404 47.7251C26.433 47.6138 26.6556 47.5655 26.877 47.587C27.0985 47.6085 27.3076 47.6987 27.4752 47.8449C27.6429 47.9911 27.7606 48.1861 27.8119 48.4026C27.8632 48.619 27.8456 48.8461 27.7615 49.052L26.601 51.8894L28.2884 50.9166C28.503 50.794 28.7536 50.7497 28.9972 50.7913C29.2408 50.833 29.4624 50.9579 29.6241 51.1448C29.7859 51.3317 29.8777 51.569 29.8838 51.8161C29.89 52.0632 29.8102 52.3047 29.658 52.4995L26.9444 55.9491L30.3898 53.9587C30.6203 53.8273 30.8915 53.7866 31.1504 53.8444C31.4093 53.9023 31.6374 54.0545 31.7901 54.2715C31.9428 54.4884 32.0092 54.7545 31.9763 55.0177C31.9434 55.281 31.8136 55.5225 31.6122 55.6952L31.4244 55.8574L31.6698 55.7144C31.8994 55.5807 32.1706 55.5375 32.4304 55.5932C32.6902 55.649 32.9199 55.7997 33.0744 56.0159C33.2289 56.232 33.2972 56.4981 33.2658 56.7619C33.2345 57.0258 33.1058 57.2685 32.905 57.4424L31.6591 58.5304L33.1524 57.6771C33.3733 57.5489 33.6329 57.5042 33.884 57.5512C34.1351 57.5981 34.361 57.7336 34.5206 57.933C34.6802 58.1324 34.763 58.3825 34.7538 58.6378C34.7447 58.893 34.6443 59.1365 34.4708 59.324L30.5412 63.5907L35.5482 60.7C35.777 60.5696 36.0459 60.5285 36.3033 60.5845C36.5606 60.6405 36.7881 60.7898 36.942 61.0035C37.0959 61.2173 37.1652 61.4804 37.1367 61.7422C37.1082 62.004 36.9839 62.246 36.7876 62.4216L35.2516 63.7806L37.1716 62.6734C37.3942 62.5464 37.6552 62.5037 37.9066 62.5533C38.1581 62.6029 38.3832 62.7414 38.541 62.9434C38.6987 63.1454 38.7784 63.3975 38.7655 63.6534C38.7527 63.9094 38.648 64.1522 38.4708 64.3374L34.9124 68.0195L39.4778 65.3827C39.6957 65.2568 39.9511 65.2121 40.1988 65.2564C40.4466 65.3006 40.6707 65.4311 40.8315 65.6246C40.9924 65.8181 41.0796 66.0623 41.0778 66.314C41.0761 66.5656 40.9853 66.8085 40.8218 66.9998L36.5444 71.9939L42.3727 68.6296C42.5919 68.5027 42.8491 68.458 43.0983 68.5034C43.3474 68.5488 43.5723 68.6814 43.7327 68.8774C43.893 69.0734 43.9784 69.3201 43.9735 69.5733C43.9687 69.8266 43.8738 70.0698 43.706 70.2595L39.5823 74.9272L45.2015 71.6846C45.4301 71.5545 45.6986 71.5135 45.9556 71.5693C46.2126 71.6252 46.4398 71.774 46.5938 71.9872C46.7477 72.2004 46.8175 72.463 46.7897 72.7245C46.7619 72.986 46.6384 73.228 46.4431 73.404L44.7919 74.8718L47.0212 73.5918C47.2481 73.47 47.5113 73.4344 47.7624 73.4916C48.0134 73.5488 48.2353 73.6948 48.3871 73.9027C48.5389 74.1107 48.6104 74.3665 48.5883 74.623C48.5663 74.8796 48.4522 75.1194 48.2671 75.2984L46.4474 76.9326L48.9071 75.5118C49.1261 75.3862 49.3824 75.3424 49.6307 75.3881C49.8789 75.4337 50.1029 75.5659 50.2628 75.7612C50.4228 75.9564 50.5083 76.2021 50.5042 76.4544C50.5001 76.7068 50.4066 76.9495 50.2404 77.1395L46.1359 81.7902L51.881 78.4728C52.1034 78.3443 52.3647 78.3004 52.6169 78.3492C52.8691 78.3979 53.0953 78.5361 53.2538 78.7382C53.4123 78.9403 53.4926 79.1928 53.4798 79.4494C53.4671 79.7059 53.3622 79.9493 53.1844 80.1347L49.5962 83.8616L54.5156 81.0222C54.7424 80.9019 55.005 80.8675 55.2551 80.9252C55.5052 80.9829 55.7261 81.1289 55.8773 81.3364C56.0285 81.5438 56.0998 81.7988 56.0781 82.0546C56.0565 82.3104 55.9433 82.5498 55.7594 82.7288L53.9588 84.3395L56.5018 82.8718C56.724 82.7433 56.985 82.6993 57.2371 82.7478C57.4891 82.7963 57.7152 82.9341 57.8739 83.1358C58.0325 83.3375 58.1132 83.5897 58.101 83.8461C58.0887 84.1024 57.9845 84.3458 57.8074 84.5315L54.1871 88.3203L59.2495 85.3976C59.4784 85.2652 59.7482 85.2225 60.0068 85.2778C60.2654 85.3332 60.4942 85.4825 60.6488 85.697C60.8035 85.9114 60.873 86.1757 60.8438 86.4385C60.8147 86.7013 60.689 86.9439 60.4911 87.1192L58.825 88.5955L61.274 87.1832C61.4956 87.0564 61.7552 87.0133 62.0058 87.0616C62.2565 87.1099 62.4815 87.2465 62.64 87.4466C62.7985 87.6467 62.88 87.8969 62.8697 88.152C62.8594 88.407 62.758 88.6499 62.5839 88.8366L58.857 92.8003L64.25 89.6878C64.4723 89.5593 64.7333 89.5153 64.9853 89.5638C65.2374 89.6123 65.4635 89.7501 65.6221 89.9518C65.7808 90.1535 65.8614 90.4057 65.8492 90.6621C65.837 90.9184 65.7328 91.1618 65.5556 91.3475L61.9588 95.1L67.2004 92.0856C67.4248 91.9595 67.6872 91.9187 67.9392 91.9708C68.1913 92.0229 68.416 92.1644 68.5719 92.3692C68.7279 92.574 68.8045 92.8282 68.7877 93.0851C68.7709 93.3419 68.6617 93.584 68.4804 93.7667L65.338 96.8707L69.9482 94.2104C70.1773 94.0776 70.4476 94.0348 70.7066 94.0902C70.9655 94.1457 71.1946 94.2955 71.3492 94.5105C71.5038 94.7255 71.5729 94.9904 71.543 95.2535C71.5132 95.5166 71.3865 95.7593 71.1876 95.9342L69.5876 97.3443L72.1711 95.851C72.396 95.7213 72.6605 95.678 72.9149 95.7294C73.1694 95.7807 73.3964 95.9231 73.5534 96.1298C73.7105 96.3366 73.7867 96.5935 73.7678 96.8524C73.749 97.1113 73.6364 97.3545 73.4511 97.5363L70.4004 100.51L75.0106 97.8499C75.1747 97.7531 75.3619 97.702 75.5524 97.702C75.743 97.702 75.9301 97.7531 76.0943 97.8499C76.2571 97.9478 76.3908 98.0875 76.4816 98.2543C76.5723 98.4212 76.6169 98.6094 76.6106 98.7992L76.5316 101.09L78.3748 100.024C78.4962 99.9466 78.632 99.8948 78.774 99.8714C78.9159 99.8481 79.0611 99.8537 79.2009 99.8879C79.3406 99.9221 79.4719 99.9843 79.587 100.071C79.7021 100.157 79.7986 100.266 79.8706 100.39C79.9426 100.515 79.9886 100.653 80.006 100.795C80.0233 100.938 80.0116 101.083 79.9715 101.221C79.9314 101.359 79.8638 101.488 79.7727 101.599C79.6816 101.711 79.569 101.802 79.4415 101.869L75.9343 103.894C75.7696 103.989 75.5825 104.038 75.3923 104.037C75.2021 104.035 75.0157 103.983 74.8525 103.885C74.6893 103.788 74.5552 103.648 74.4641 103.481C74.373 103.314 74.3282 103.126 74.3343 102.936L74.4132 100.647L64.1391 106.575C63.9805 106.673 63.7986 106.727 63.6122 106.731Z" fill="#D3374E"/>
<path d="M13.2758 124.374C30.1121 118.755 46.8588 113.159 63.678 107.536C64.1475 107.732 64.672 107.752 65.1552 107.592C65.6384 107.433 66.0478 107.104 66.3084 106.667C78.255 102.708 90.2337 98.8401 102.112 94.6993C109.961 94.0593 93.5489 74.3921 91.2513 70.806C95.2087 67.7521 99.9818 65.9384 104.969 65.5937C109.955 65.2489 114.933 66.3886 119.273 68.8689C130.618 66.6439 98.8182 59.5313 90.1398 69.4087C80.8153 57.9038 70.2983 47.419 58.7649 38.1297C67.8166 31.5441 64.6401 -0.425999 58.3937 8.10733C60.8033 12.5402 61.9359 17.5547 61.6655 22.5929C61.3951 27.6311 59.7322 32.4955 56.862 36.6449C23.8657 11.4503 34.831 28.2524 19.8593 63.5292C13.7437 81.8119 7.63672 100.087 1.53823 118.356C-2.6111 127.807 7.5457 127.322 13.2758 124.374ZM28.4225 118.162C22.1147 112.509 16.125 106.511 10.4812 100.195L14.1249 89.2956C21.853 98.396 30.3463 106.818 39.5116 114.469L28.4225 118.162ZM42.59 113.428C32.6387 105.164 23.4758 95.9936 15.2193 86.0359C17.4138 79.4666 19.6097 72.8967 21.807 66.326C33.3995 81.6812 47.1327 95.2959 62.5878 106.755L42.59 113.428ZM65.935 105.626C49.4887 93.6423 35.0035 79.1765 22.9974 62.7463C24.2604 58.9617 25.5247 55.1772 26.7905 51.3927C40.4 71.2976 57.7512 88.3655 77.8774 101.645L65.935 105.626ZM55.215 38.8529C51.0508 42.2919 54.1825 43.8172 56.9985 40.2737C68.2875 49.4936 78.5891 59.8603 87.7377 71.2071C83.5713 73.8247 85.4828 75.8449 88.9238 72.7303C93.664 78.5333 97.6409 84.9199 100.757 91.734C73.5583 76.8038 51.2751 54.3027 36.6102 26.9596C43.2607 30.1795 49.5071 34.1746 55.2193 38.8615L55.215 38.8529ZM33.839 30.3153C33.9265 30.0551 34.0289 29.7841 34.1292 29.5175C49.4508 56.2183 72.6124 80.4039 100.346 94.1383L80.8534 100.653C59.7719 86.8359 41.7889 68.7918 28.0428 47.6636C29.9699 41.8808 31.902 36.0981 33.839 30.3153ZM4.24116 118.891C5.9777 113.697 7.71352 108.506 9.44863 103.318C14.5196 108.865 19.8572 114.164 25.4486 119.175C19.5457 119.706 1.3633 132.075 4.24116 118.891Z" fill="#262626"/>
<path d="M48.7835 15.866C48.0432 15.4778 45.6326 15.9258 45.88 16.9604C47.4608 18.5711 50.7867 22.81 52.3526 19.4351C51.1579 18.2447 49.9682 17.055 48.7835 15.866Z" fill="#262626"/>
<path d="M75.7547 17.5491C78.1611 17.6899 78.3745 11.5288 76.0257 11.7059C73.6193 11.5651 73.4038 17.7283 75.7547 17.5491Z" fill="#262626"/>
<path d="M75.3071 31.6267C76.905 31.3621 81.0671 32.5248 80.8922 30.0693C79.8362 29.1072 71.6399 29.8965 75.3071 31.6267Z" fill="#262626"/>
<path d="M109.463 76.5354C108.7 76.0746 106.263 76.5354 106.571 77.6618C108.433 79.2064 110.385 83.04 113.005 80.6229C112.87 79.0848 110.419 77.9029 109.463 76.5354Z" fill="#262626"/>
<path d="M112.676 51.4131C106.221 52.5566 113.591 53.4355 115.716 52.563C118.511 51.0504 113.826 51.4131 112.676 51.4131Z" fill="#262626"/>
<path d="M97.1518 47.9552C95.0932 47.8976 94.9289 54.0864 97.4654 52.6954C99.5241 52.753 99.6862 46.5664 97.1518 47.9552Z" fill="#262626"/>
<path d="M105.69 27.4119C109.103 24.5852 106.5 19.781 109.265 16.6962C110.509 15.3543 107.507 15.3372 106.771 16.1308C103.396 18.9959 105.973 23.7831 103.196 26.8466C100.094 29.2359 95.2575 26.9362 92.4799 30.422C89.0474 33.2252 91.714 38.0892 88.9151 41.1271C85.7834 43.4908 81.0346 41.2402 78.2122 44.6898C77.0708 46.2258 80.1087 46.1063 80.706 45.253C83.8634 42.934 88.5994 45.1399 91.409 41.6903C94.8351 38.8892 92.1727 34.0103 94.9716 30.9874C98.0842 28.6066 102.901 30.8892 105.69 27.4119Z" fill="#262626"/>
<path d="M86.2953 20.4909C91.4494 20.2776 91.5604 -2.99924 85.0537 2.54743C86.2672 5.34282 86.8955 8.35708 86.9 11.4045C86.9044 14.4519 86.2848 17.468 85.0793 20.2669C84.8894 20.7448 86.1246 20.5229 86.2953 20.4909Z" fill="#262626"/>
<path d="M120.107 40.7464C138.498 44.9086 117.76 34.4062 107.413 40.7699C102.903 44.4072 118.054 38.8264 120.107 40.7464Z" fill="#262626"/>
</svg>
