<svg width="172" height="172" viewBox="0 0 172 172" fill="none" xmlns="http://www.w3.org/2000/svg">
<g clip-path="url(#clip0_415_2651)">
<path d="M153.188 10.75H29.5625C28.0783 10.75 26.875 11.9533 26.875 13.4375V169.312C26.875 170.797 28.0783 172 29.5625 172H153.188C154.672 172 155.875 170.797 155.875 169.312V13.4375C155.875 11.9533 154.672 10.75 153.188 10.75Z" fill="#DDCCEB"/>
<path d="M142.438 161.25H18.8125C17.3283 161.25 16.125 160.047 16.125 158.562V2.6875C16.125 1.20334 17.3283 0 18.8125 0H112.875L145.125 29.5625V158.562C145.125 160.047 143.922 161.25 142.438 161.25Z" fill="#FCEA93"/>
<path d="M26.875 153.188C25.3908 153.188 24.1875 151.984 24.1875 150.5V0H18.8125C17.3283 0 16.125 1.20334 16.125 2.6875V158.562C16.125 160.047 17.3283 161.25 18.8125 161.25H142.438C143.922 161.25 145.125 160.047 145.125 158.562V153.188H26.875Z" fill="#FADD4B"/>
<path d="M112.875 0V26.875C112.875 28.3592 114.078 29.5625 115.562 29.5625H145.125L112.875 0Z" fill="#FDF1B7"/>
<path d="M80.625 126.312C76.1791 126.312 72.5625 129.929 72.5625 134.375C72.5625 138.821 76.1791 142.438 80.625 142.438C85.0709 142.438 88.6875 138.821 88.6875 134.375C88.6875 129.929 85.0709 126.312 80.625 126.312Z" fill="#B28DD1"/>
<path d="M80.625 37.625C61.3598 37.625 45.6875 53.2973 45.6875 72.5625C45.6875 74.0467 46.8908 75.25 48.375 75.25H59.125C60.6092 75.25 61.8125 74.0467 61.8125 72.5625C61.8125 62.1891 70.2516 53.75 80.625 53.75C90.9984 53.75 99.4375 62.1891 99.4375 72.5625C99.4375 82.9359 90.9984 91.375 80.625 91.375C76.1791 91.375 72.5625 94.9916 72.5625 99.4375V118.25C72.5625 119.734 73.7658 120.938 75.25 120.938H86C87.4842 120.938 88.6875 119.734 88.6875 118.25V106.56C95.8524 104.858 102.357 100.889 107.193 95.2291C112.59 88.9106 115.562 80.8612 115.562 72.5625C115.562 53.2973 99.8902 37.625 80.625 37.625Z" fill="#B28DD1"/>
</g>
<defs>
<clipPath id="clip0_415_2651">
<rect width="172" height="172" fill="white"/>
</clipPath>
</defs>
</svg>
