<svg width="172" height="172" viewBox="0 0 172 172" fill="none" xmlns="http://www.w3.org/2000/svg">
<g clip-path="url(#clip0_338_4878)">
<path d="M140 59.1817V122.718C140 131.604 132.796 138.805 123.91 138.804H17.7844C26.6704 138.805 33.8735 131.604 33.8735 122.718V59.1817C33.8735 50.2973 41.0751 43.0941 49.9595 43.0957H123.91C132.796 43.0941 140 50.2957 140 59.1817Z" fill="#E48E66"/>
<path d="M120.269 39.8174V43.0956H49.9594C41.075 43.094 33.8719 50.2971 33.8735 59.1815V122.718C33.8735 131.603 26.6688 138.805 17.7844 138.803H16.0906C7.2047 138.805 0 131.603 0 122.718V21.2862C0 12.4018 7.2047 5.19863 16.0906 5.2002H52.1844C56.7032 5.2002 61.0126 7.09864 64.061 10.433L75.0157 22.419C75.7782 23.2533 76.8563 23.7299 77.9876 23.7299H104.178C113.064 23.7283 120.269 30.9315 120.269 39.8174Z" fill="#F8EC7D"/>
<path d="M95.1407 142.364C88.2719 126.108 92.8657 107.272 106.447 96.0029C120.028 84.7341 139.389 83.6966 154.099 93.4466C168.808 103.198 175.389 121.436 170.299 138.333C165.208 155.231 149.647 166.797 132 166.8C115.906 166.845 101.366 157.205 95.1407 142.364Z" fill="#6FE3FF"/>
<path d="M132 132.948C130.453 132.948 129.2 131.694 129.2 130.148V108.8C129.2 107.253 130.453 106 132 106C133.547 106 134.8 107.253 134.8 108.8V130.148C134.8 131.694 133.547 132.948 132 132.948Z" fill="#2561A1"/>
<path d="M132 147.6C130.453 147.6 129.2 146.347 129.2 144.8V141.772C129.2 140.225 130.453 138.972 132 138.972C133.547 138.972 134.8 140.225 134.8 141.772V144.8C134.8 146.347 133.547 147.6 132 147.6Z" fill="#2561A1"/>
</g>
<defs>
<clipPath id="clip0_338_4878">
<rect width="172" height="172" fill="white"/>
</clipPath>
</defs>
</svg>
