<svg width="140" height="140" viewBox="0 0 140 140" fill="none" xmlns="http://www.w3.org/2000/svg">
<path d="M69.7236 139.011C108.094 139.011 139.199 107.892 139.199 69.5053C139.199 31.1186 108.094 0 69.7236 0C31.3533 0 0.248047 31.1186 0.248047 69.5053C0.248047 107.892 31.3533 139.011 69.7236 139.011Z" fill="#222222"/>
<path d="M69.7238 124.854C100.279 124.854 125.049 100.074 125.049 69.5052C125.049 38.9368 100.279 14.1562 69.7238 14.1562C39.1684 14.1562 14.3984 38.9368 14.3984 69.5052C14.3984 100.074 39.1684 124.854 69.7238 124.854Z" fill="#F3F3F3"/>
<path d="M83.4609 51.667C85.3922 49.965 88.3355 50.0493 90.1553 51.9248L90.3252 52.1094C92.0248 54.047 91.9329 56.9843 90.0723 58.8037L90.0732 58.8047L75.8848 73L90.0811 87.2051L90.0859 87.21L90.2529 87.3896C91.8695 89.2229 91.8694 91.987 90.2529 93.8203L90.0859 94.001C88.2088 95.926 85.1252 95.9638 83.2002 94.0869L83.1953 94.083L68.999 79.8867L54.8037 94.083L54.7998 94.0869C52.9716 95.8687 50.0829 95.9245 48.1885 94.2539L48.0088 94.0869C46.0837 92.2098 46.045 89.1262 47.9219 87.2012L47.9268 87.1963L62.1133 73L47.9268 58.8047L47.9219 58.8008C46.0822 56.9132 46.0835 53.9058 47.9209 52.0107L47.9219 52.0098L48.1016 51.835C49.9296 50.1405 52.7462 50.1051 54.6162 51.7529L54.7998 51.9238L54.8037 51.9277L68.999 66.1152L83.1953 51.9189L83.2344 51.8809C83.2472 51.868 83.2596 51.8547 83.2725 51.8418L83.2773 51.8379L83.4609 51.667Z" fill="#E70534" stroke="#E70534"/>
</svg>
