<svg width="43" height="44" viewBox="0 0 43 44" fill="none" xmlns="http://www.w3.org/2000/svg">
<g clip-path="url(#clip0_1044_8908)">
<path d="M15.1012 34.4962L8.68606 38.0768C8.30961 38.2869 7.97129 38.5451 7.65649 38.8265C11.3967 42.0534 16.2249 44.0002 21.5001 44.0002C26.7363 44.0002 31.5337 42.0825 35.2633 38.8996C34.9193 38.6024 34.5461 38.335 34.1323 38.1242L27.2629 34.61C26.3753 34.1559 25.8147 33.2277 25.8147 32.2124V29.4545C26.0078 29.2295 26.2284 28.9406 26.4645 28.5994C27.4008 27.2462 28.1091 25.7577 28.5999 24.1961C29.481 23.918 30.1301 23.0853 30.1301 22.0957V19.1519C30.1301 18.5043 29.8485 17.9257 29.4112 17.5205V13.265C29.4112 13.265 30.2656 6.64258 21.5009 6.64258C12.7362 6.64258 13.5905 13.265 13.5905 13.265V17.5205C13.1524 17.9257 12.8717 18.5043 12.8717 19.1519V22.0957C12.8717 22.8711 13.27 23.5535 13.8663 23.9479C14.5852 27.1499 16.4674 29.4545 16.4674 29.4545V32.1443C16.4666 33.1239 15.9425 34.0264 15.1012 34.4962Z" fill="#E7ECED"/>
<path d="M21.8675 0.00327606C9.99543 -0.204271 0.206034 9.47573 0.00320372 21.6239C-0.112004 28.512 2.88826 34.7027 7.66532 38.8196C7.97768 38.5406 8.31275 38.2849 8.68515 38.0774L15.1003 34.4968C15.9416 34.0269 16.4657 33.1245 16.4657 32.1432V29.4534C16.4657 29.4534 14.5826 27.1488 13.8646 23.9467C13.2691 23.5524 12.8699 22.8708 12.8699 22.0946V19.1507C12.8699 18.5032 13.1515 17.9246 13.5888 17.5194V13.2639C13.5888 13.2639 12.7344 6.64146 21.4991 6.64146C30.2638 6.64146 29.4095 13.2639 29.4095 13.2639V17.5194C29.8476 17.9246 30.1284 18.5032 30.1284 19.1507V22.0946C30.1284 23.0842 29.4793 23.9169 28.5982 24.195C28.1074 25.7566 27.3991 27.2451 26.4628 28.5983C26.2267 28.9395 26.006 29.2284 25.8129 29.4534V32.2113C25.8129 33.2266 26.3736 34.1556 27.2612 34.6089L34.1306 38.1231C34.5428 38.3339 34.9151 38.6004 35.2583 38.8968C39.891 34.9434 42.8839 29.0325 42.9951 22.376C43.1995 10.2279 33.7404 0.210823 21.8675 0.00327606Z" fill="#335F5B"/>
</g>
<defs>
<clipPath id="clip0_1044_8908">
<rect width="43" height="44" fill="white"/>
</clipPath>
</defs>
</svg>
