<svg width="140" height="140" viewBox="0 0 140 140" fill="none" xmlns="http://www.w3.org/2000/svg">
<path d="M69.7236 139.011C108.094 139.011 139.199 107.892 139.199 69.5053C139.199 31.1186 108.094 0 69.7236 0C31.3533 0 0.248047 31.1186 0.248047 69.5053C0.248047 107.892 31.3533 139.011 69.7236 139.011Z" fill="#1F1F1F"/>
<path d="M69.7238 124.854C100.279 124.854 125.049 100.074 125.049 69.5052C125.049 38.9368 100.279 14.1562 69.7238 14.1562C39.1684 14.1562 14.3984 38.9368 14.3984 69.5052C14.3984 100.074 39.1684 124.854 69.7238 124.854Z" fill="#F3F3F3"/>
<path d="M97.8428 50.9291C95.0114 48.0965 90.4204 48.0965 87.589 50.9291L61.9115 76.6176L53.6511 68.3522C50.8578 65.5577 46.3056 65.3866 43.4369 68.1033C40.4598 70.9225 40.4113 75.6231 43.2905 78.5035L55.9216 91.14C59.2302 94.4501 64.5943 94.4501 67.9022 91.14L72.1653 86.875L72.1646 86.8743L97.8421 61.1858C100.674 58.354 100.674 53.7617 97.8428 50.9291Z" fill="#335F5B"/>
</svg>
