<svg width="24" height="24" viewBox="0 0 24 24" fill="none" xmlns="http://www.w3.org/2000/svg">
<g clip-path="url(#clip0_384_5291)">
<path d="M9.15923 16.9156C3.70568 26.3615 -4.58596 12 6.32113 12C-4.58596 12 3.70564 -2.3615 9.15923 7.08435C3.70568 -2.36145 20.2889 -2.36145 14.8353 7.08435C20.2889 -2.3615 28.5805 12 17.6734 12C28.5805 12 20.2889 26.3615 14.8353 16.9156C20.2889 26.3615 3.70568 26.3615 9.15923 16.9156Z" fill="#FF728B"/>
<path d="M17.6735 11.9931L12.1423 11.9187L12.145 11.9141L12.1406 11.9142L14.8354 7.08435C20.289 -2.36145 3.70579 -2.36145 9.15933 7.08435L11.8546 11.9149L11.8494 11.9148L11.8522 11.9194L6.32133 12.0189C-4.58567 12.0551 3.75351 26.3889 9.17564 16.9251L11.9952 12.167L11.9974 12.1709L11.9999 12.1663L14.8414 16.9122C20.3064 26.3514 28.5805 11.9798 17.6735 11.9931Z" fill="#FF3F62"/>
<path d="M11.9982 19.4443C11.7953 19.4443 11.6309 19.6088 11.6309 19.8117V21.3545C11.6309 21.5574 11.7953 21.7219 11.9982 21.7219C12.2011 21.7219 12.3656 21.5574 12.3656 21.3545V19.8116C12.3655 19.6088 12.2011 19.4443 11.9982 19.4443Z" fill="#FF0C38"/>
<path d="M6.16593 7.62952L7.11182 8.41459C7.1804 8.47154 7.26356 8.49929 7.34625 8.49929C7.45176 8.49929 7.55648 8.4541 7.62909 8.36654C7.7587 8.2104 7.73719 7.97884 7.58104 7.84927L6.63515 7.06421C6.47901 6.9346 6.24745 6.95612 6.11789 7.11226C5.98832 7.26835 6.00984 7.49996 6.16593 7.62952Z" fill="#FF0C38"/>
<path d="M5.5914 15.0561L4.23352 15.7914C4.05506 15.888 3.98883 16.111 4.08539 16.2894C4.15191 16.4122 4.27828 16.4818 4.40874 16.4818C4.4678 16.4818 4.52771 16.4675 4.5833 16.4374L5.94118 15.7022C6.11958 15.6056 6.18587 15.3826 6.0893 15.2042C5.99274 15.0258 5.7698 14.9595 5.5914 15.0561Z" fill="#FF0C38"/>
<path d="M18.6122 17.3976L17.6333 16.5248C17.4819 16.3898 17.2496 16.4031 17.1146 16.5545C16.9796 16.706 16.9929 16.9382 17.1444 17.0732L18.1233 17.946C18.1933 18.0084 18.2806 18.0391 18.3676 18.0391C18.4687 18.0391 18.5694 17.9976 18.6419 17.9162C18.7769 17.7649 18.7636 17.5327 18.6122 17.3976Z" fill="#FF0C38"/>
<path d="M18.4906 13.9064L12.8431 11.9061L18.564 8.29387C18.7356 8.18559 18.7868 7.95872 18.6786 7.78711C18.5703 7.61554 18.3434 7.56431 18.1718 7.67259L12.3742 11.3332V5.85271C12.3742 5.64984 12.2097 5.48535 12.0068 5.48535C11.8039 5.48535 11.6395 5.64984 11.6395 5.85271V11.2174L8.53422 8.64019C8.37808 8.51058 8.14647 8.53209 8.01696 8.68823C7.88735 8.84437 7.90891 9.07594 8.065 9.2055L10.168 10.9509L5.18565 9.16641C4.99482 9.09806 4.7844 9.19734 4.71596 9.38836C4.64753 9.57933 4.7469 9.78966 4.93792 9.85805L11.1088 12.0683L7.17152 14.2002C6.99306 14.2968 6.92683 14.5198 7.02339 14.6982C7.08991 14.821 7.21628 14.8907 7.34674 14.8907C7.4058 14.8907 7.46575 14.8764 7.5213 14.8463L11.6289 12.622L11.6309 18.2692C11.6309 18.472 11.7954 18.6364 11.9982 18.6364H11.9983C12.2013 18.6364 12.3657 18.4719 12.3656 18.269L12.3636 12.8101L16.2005 16.2311C16.2705 16.2935 16.3578 16.3242 16.4448 16.3242C16.5459 16.3242 16.6466 16.2827 16.7192 16.2013C16.8542 16.0499 16.8409 15.8177 16.6895 15.6827L13.6478 12.9706L18.2453 14.5991C18.2858 14.6134 18.3272 14.6202 18.3679 14.6202C18.5191 14.6202 18.6608 14.5262 18.7142 14.3754C18.782 14.1842 18.6818 13.9741 18.4906 13.9064Z" fill="#FF0C38"/>
<path d="M12.007 4.50587C12.2099 4.50587 12.3744 4.34139 12.3744 4.13851V2.58709C12.3744 2.38421 12.2099 2.21973 12.007 2.21973C11.8041 2.21973 11.6396 2.38421 11.6396 2.58709V4.13851C11.6397 4.34139 11.8041 4.50587 12.007 4.50587Z" fill="#FF0C38"/>
<path d="M12.006 14.8654C13.5884 14.8654 14.8713 13.5826 14.8713 12.0001C14.8713 10.4176 13.5884 9.13477 12.006 9.13477C10.4235 9.13477 9.14062 10.4176 9.14062 12.0001C9.14062 13.5826 10.4235 14.8654 12.006 14.8654Z" fill="#FFEB99"/>
<path d="M10.5932 12.0001C10.5932 10.6685 11.5015 9.54942 12.7322 9.22786C12.5003 9.1672 12.2569 9.13477 12.006 9.13477C10.4235 9.13477 9.14062 10.4176 9.14062 12.0001C9.14062 13.5826 10.4235 14.8654 12.006 14.8654C12.2569 14.8654 12.5003 14.8329 12.7322 14.7723C11.5015 14.4507 10.5932 13.3316 10.5932 12.0001Z" fill="#FFDA44"/>
</g>
<defs>
<clipPath id="clip0_384_5291">
<rect width="24" height="24" fill="white"/>
</clipPath>
</defs>
</svg>
