<svg width="24" height="24" viewBox="0 0 24 24" fill="none" xmlns="http://www.w3.org/2000/svg">
<g clip-path="url(#clip0_384_5265)">
<path d="M3.20798 17.1433L0.0180491 23.7489C-0.0538101 23.8977 0.102236 24.0538 0.251111 23.982L6.85672 20.792L7.50983 20.1389L3.86109 16.4902L3.20798 17.1433Z" fill="#FED9A8"/>
<path d="M0.251111 23.9821L3.75014 22.2923L1.7078 20.25L0.0180491 23.749C-0.0538101 23.8979 0.102236 24.0539 0.251111 23.9821Z" fill="#333333"/>
<path d="M0.0517578 23.9481C0.100414 23.9968 0.176633 24.0178 0.251023 23.9819L6.85664 20.7919L7.50974 20.1388L5.68537 18.3145L0.0517578 23.9481Z" fill="#F4C892"/>
<path d="M0.0517578 23.9477C0.100414 23.9963 0.176633 24.0174 0.25107 23.9814L3.75009 22.2917L2.72892 21.2705L0.0517578 23.9477Z" fill="#1A1A1A"/>
<path d="M23.244 0.755682C24.2516 1.76326 24.2516 3.3968 23.244 4.40438L6.8694 20.779L3.2207 17.1303L19.5953 0.755682C20.6029 -0.251894 22.2364 -0.251894 23.244 0.755682Z" fill="#FFBF14"/>
<path d="M23.2441 0.755515C22.9718 0.483265 22.6537 0.285265 22.3147 0.160156C22.6527 1.07567 22.4547 2.14418 21.7194 2.87951L5.34473 19.2541L6.86943 20.7788L23.2441 4.40421C24.2516 3.39663 24.2516 1.76309 23.2441 0.755515Z" fill="#FF901D"/>
<path d="M21.8322 5.81656L18.1836 2.16797L16.7949 3.55669L20.4435 7.20528L21.8322 5.81656Z" fill="#21D8DE"/>
<path d="M21.8326 5.81604L20.2891 4.27246L18.9003 5.66118L20.4439 7.20476L21.8326 5.81604Z" fill="#11B9C1"/>
<path d="M23.2441 0.755682C22.2365 -0.251894 20.6029 -0.251894 19.5954 0.755682L18.1836 2.16746L21.8323 5.81616L23.2441 4.40438C24.2516 3.3968 24.2516 1.76326 23.2441 0.755682Z" fill="#FF4C4C"/>
<path d="M23.2444 0.755632C22.97 0.481226 22.649 0.282148 22.3071 0.157227C22.6409 1.07091 22.4418 2.13539 21.7087 2.86857L20.2969 4.28034L21.8326 5.81611L23.2444 4.40433C24.2519 3.39675 24.252 1.76321 23.2444 0.755632Z" fill="#F33939"/>
<path d="M4.43628 18.3455L5.6543 19.5635L19.2281 5.98964L18.0101 4.77161L4.43628 18.3455Z" fill="#FFB123"/>
</g>
<defs>
<clipPath id="clip0_384_5265">
<rect width="24" height="24" fill="white"/>
</clipPath>
</defs>
</svg>
