<svg width="30" height="30" viewBox="0 0 30 30" fill="none" xmlns="http://www.w3.org/2000/svg">
<g clip-path="url(#clip0_1086_5759)">
<path d="M8.46048 11.5008C8.14648 10.6553 6.84687 10.6704 6.55244 11.5226L4.09994 17.9618C3.69558 19.0382 5.32923 19.6595 5.74261 18.5875L6.13783 17.5499H8.8649L9.25554 18.585C9.67214 19.6625 11.3002 19.0373 10.9002 17.9644L8.46998 11.5248C8.46699 11.5168 8.46382 11.5088 8.46048 11.5008ZM6.80732 15.7921L7.50763 13.9533L8.20156 15.7921H6.80732Z" fill="#335F5B"/>
<path d="M25.0785 12.6523C25.5638 12.6523 25.9574 12.2588 25.9574 11.7734C25.9574 11.288 25.5638 10.8945 25.0785 10.8945H22.3516C21.8662 10.8945 21.4727 11.288 21.4727 11.7734V18.2451C21.4727 18.7304 21.8662 19.124 22.3516 19.124H25.0785C25.5638 19.124 25.9574 18.7304 25.9574 18.2451C25.9574 17.7597 25.5638 17.3662 25.0785 17.3662H23.2305V15.8881H24.8774C25.3628 15.8881 25.7563 15.4946 25.7563 15.0092C25.7563 14.5238 25.3628 14.1303 24.8774 14.1303H23.2305V12.6523H25.0785Z" fill="#335F5B"/>
<path d="M16.0888 12.6015C16.5672 12.6015 17.0285 12.7422 17.4227 13.0086C17.8249 13.2803 18.3713 13.1746 18.643 12.7724C18.9148 12.3702 18.8089 11.8238 18.4068 11.5521C17.7208 11.0887 16.9193 10.8438 16.0888 10.8438C13.8035 10.8438 11.9443 12.703 11.9443 14.9883C11.9443 17.2735 13.8035 19.1328 16.0888 19.1328C18.2661 19.1328 19.7868 17.4285 19.7868 14.9883C19.7868 14.5029 19.3932 14.1094 18.9079 14.1094H16.954C16.4687 14.1094 16.0751 14.5029 16.0751 14.9883C16.0751 15.4737 16.4687 15.8672 16.954 15.8672H17.9163C17.6984 16.6758 17.1448 17.375 16.0888 17.375C14.7728 17.375 13.7021 16.3043 13.7021 14.9883C13.7021 13.6722 14.7728 12.6015 16.0888 12.6015Z" fill="#335F5B"/>
<path d="M29.1211 14.1211C28.6357 14.1211 28.2422 14.5146 28.2422 15C28.2422 18.5371 26.8648 21.8625 24.3636 24.3636C21.8625 26.8648 18.5371 28.2422 15 28.2422C11.4629 28.2422 8.1375 26.8648 5.63637 24.3636C3.13523 21.8625 1.75781 18.5371 1.75781 15C1.75781 11.4629 3.13523 8.1375 5.63637 5.63637C8.1375 3.13523 11.4629 1.75781 15 1.75781C16.7738 1.75781 18.4946 2.10229 20.1148 2.78174C21.0398 3.16939 21.9168 3.66158 22.7314 4.24887L21.5664 4.39564C20.423 4.54547 20.6503 6.28072 21.7862 6.13969L24.9304 5.74359C25.3982 5.70486 25.7701 5.25797 25.721 4.79068L25.4409 1.63588C25.3979 1.15236 24.971 0.795 24.4876 0.838125C24.0042 0.881074 23.647 1.30787 23.6899 1.79133L23.783 2.83986C22.8538 2.16721 21.8517 1.60377 20.7943 1.16062C18.958 0.390469 17.0085 0 15 0C10.9934 0 7.22654 1.56029 4.39342 4.39342C1.56029 7.22654 0 10.9934 0 15C0 19.0066 1.56029 22.7735 4.39342 25.6066C7.22654 28.4397 10.9934 30 15 30C19.0066 30 22.7735 28.4397 25.6066 25.6066C28.4397 22.7735 30 19.0066 30 15C30 14.5146 29.6065 14.1211 29.1211 14.1211Z" fill="#335F5B"/>
</g>
<defs>
<clipPath id="clip0_1086_5759">
<rect width="30" height="30" fill="white"/>
</clipPath>
</defs>
</svg>
