<svg width="24" height="25" viewBox="0 0 24 25" fill="none" xmlns="http://www.w3.org/2000/svg">
<path d="M21.0225 12.5446C20.6498 12.5446 20.3475 12.8469 20.3475 13.2196V20.1046C20.3475 20.9026 19.698 21.5521 18.9 21.5521H3.6225C2.8245 21.5521 2.175 20.9034 2.175 20.1046V10.9321H11.5725C11.9453 10.9321 12.2475 10.6299 12.2475 10.2571C12.2475 9.8844 11.9453 9.58215 11.5725 9.58215H2.175V7.61715C2.175 6.8229 2.82075 6.17715 3.615 6.17715H10.02C10.3928 6.17715 10.695 5.8749 10.695 5.50215C10.695 5.1294 10.3928 4.82715 10.02 4.82715H3.615C2.07675 4.82715 0.825001 6.0789 0.825001 7.61715V20.1046C0.825001 21.6474 2.07975 22.9021 3.6225 22.9021H18.9C20.4428 22.9021 21.6968 21.6466 21.6968 20.1046V13.2196C21.6975 12.8469 21.3953 12.5446 21.0225 12.5446Z" fill="#E4E4E7"/>
<path d="M4.49325 8.47553C4.82628 8.47553 5.09625 8.20556 5.09625 7.87253C5.09625 7.5395 4.82628 7.26953 4.49325 7.26953C4.16022 7.26953 3.89025 7.5395 3.89025 7.87253C3.89025 8.20556 4.16022 8.47553 4.49325 8.47553Z" fill="#E4E4E7"/>
<path d="M6.01425 7.87253C6.01425 8.20553 6.28425 8.47553 6.61725 8.47553C6.95025 8.47553 7.22025 8.20553 7.22025 7.87253C7.22025 7.53953 6.95025 7.26953 6.61725 7.26953C6.28425 7.26953 6.01425 7.53953 6.01425 7.87253Z" fill="#E4E4E7"/>
<path d="M8.7405 8.47553C9.07353 8.47553 9.3435 8.20556 9.3435 7.87253C9.3435 7.5395 9.07353 7.26953 8.7405 7.26953C8.40747 7.26953 8.1375 7.5395 8.1375 7.87253C8.1375 8.20556 8.40747 8.47553 8.7405 8.47553Z" fill="#E4E4E7"/>
<path d="M14.4113 15.6224C14.4113 13.8869 12.999 12.4746 11.2635 12.4746C9.528 12.4746 8.11575 13.8869 8.11575 15.6224C8.11575 16.5344 8.51175 17.3496 9.13275 17.9256C8.62275 18.1919 8.20275 18.5496 7.93725 18.9816C7.74225 19.2989 7.842 19.7151 8.15925 19.9094C8.4765 20.1059 8.8935 20.0061 9.08775 19.6874C9.36825 19.2314 10.1498 18.7709 11.2635 18.7709C12.3773 18.7709 13.1588 19.2306 13.4393 19.6874C13.5668 19.8951 13.788 20.0099 14.0153 20.0099C14.136 20.0099 14.2575 19.9776 14.3678 19.9094C14.685 19.7144 14.7847 19.2989 14.5897 18.9816C14.3242 18.5496 13.9043 18.1926 13.3943 17.9256C14.0153 17.3496 14.4113 16.5336 14.4113 15.6224ZM9.465 15.6224C9.465 14.6309 10.272 13.8246 11.2628 13.8246C12.2535 13.8246 13.0605 14.6309 13.0605 15.6224C13.0605 16.6139 12.2535 17.4201 11.2628 17.4201C10.272 17.4201 9.465 16.6139 9.465 15.6224Z" fill="#E4E4E7"/>
<path d="M22.7108 5.46434L18.297 2.90009C17.817 2.62184 17.2215 2.62184 16.7423 2.90009L12.3293 5.46434C12.0428 5.63084 11.8643 5.93984 11.8643 6.27134C11.8643 6.60284 12.0428 6.91259 12.3293 7.07909L13.494 7.75634V9.78509C13.494 10.3288 13.7865 10.8351 14.2575 11.1058L16.0995 12.1678C16.5375 12.4206 17.0288 12.5466 17.5208 12.5466C18.0128 12.5466 18.504 12.4206 18.942 12.1678L20.784 11.1058C21.255 10.8351 21.5475 10.3281 21.5475 9.78509V7.75559L22.7123 7.07909C22.9973 6.91184 23.175 6.60284 23.175 6.27134C23.175 5.93984 22.9973 5.63084 22.7108 5.46434ZM17.4203 4.06709C17.4818 4.03109 17.5575 4.03109 17.619 4.06709L21.4125 6.27134L17.6183 8.47559C17.5568 8.51159 17.481 8.51159 17.4195 8.47559L13.626 6.27134L17.4203 4.06709ZM20.196 9.78434C20.196 9.84659 20.1623 9.90434 20.1083 9.93584L18.2663 10.9978C17.805 11.2633 17.2328 11.2633 16.773 10.9978L14.9303 9.93584C14.8763 9.90434 14.8425 9.84659 14.8425 9.78434V8.54009L16.7415 9.64334C16.9815 9.78284 17.25 9.85184 17.5193 9.85184C17.7885 9.85184 18.057 9.78209 18.297 9.64334L20.196 8.54009V9.78434Z" fill="#E4E4E7"/>
</svg>
