<svg width="30" height="30" viewBox="0 0 30 30" fill="none" xmlns="http://www.w3.org/2000/svg">
<path fill-rule="evenodd" clip-rule="evenodd" d="M15 6.28599C16.4142 5.39484 17.676 4.69017 18.9021 4.15556C19.5067 3.89191 20.1562 4.35227 20.1562 5.01188C20.1562 5.40553 19.9149 5.75705 19.5551 5.91661C18.4606 6.40177 17.2954 7.05328 15.9375 7.91156V24.5596C17.5992 23.5586 19.0584 22.8255 20.5237 22.3428C22.4181 21.7188 24.2745 21.5289 26.5377 21.6576C26.5487 21.6582 26.5574 21.6548 26.5633 21.65L26.5642 21.6492L26.5653 21.6482C26.6782 20.7675 26.7758 19.9335 26.858 19.1337C26.9076 18.6511 27.3123 18.2812 27.7975 18.2812C28.3487 18.2812 28.7816 18.7541 28.7254 19.3025C28.641 20.1259 28.5409 20.9836 28.4249 21.8883C28.2959 22.8943 27.4018 23.5847 26.4313 23.5296C24.3494 23.4112 22.7357 23.5883 21.1102 24.1237C19.4649 24.6656 17.76 25.5898 15.5071 27.0385C15.1982 27.2371 14.8018 27.2371 14.4929 27.0385C12.24 25.5898 10.5351 24.6656 8.88975 24.1237C7.26427 23.5883 5.65064 23.4112 3.56868 23.5296C2.59823 23.5847 1.70411 22.8943 1.57513 21.8883C0.72075 15.225 0.723999 11.112 1.59078 4.45029C1.70629 3.56254 2.44301 2.86609 3.35784 2.8321C5.68191 2.74574 7.57913 2.93781 9.48966 3.54699C11.2426 4.10595 12.9633 5.00255 15 6.28599ZM3.44844 4.70503C2.60416 11.199 2.60151 15.1494 3.43469 21.6482C3.43469 21.6482 3.4358 21.6493 3.43667 21.65C3.44264 21.6548 3.45129 21.6582 3.46228 21.6576C5.72555 21.5289 7.58194 21.7188 9.47634 22.3428C10.9416 22.8255 12.4008 23.5586 14.0625 24.5596V7.91156C12.0595 6.64556 10.4758 5.82942 8.92008 5.33339C7.27383 4.80849 5.60873 4.62633 3.44844 4.70503Z" fill="#335F5B"/>
<path d="M28.0823 16.4062C28.5777 16.4062 28.9884 16.0201 29.0104 15.5252C29.168 11.9819 28.9681 8.74598 28.4092 4.45029C28.2937 3.56254 27.557 2.86609 26.6422 2.8321C25.2268 2.77951 23.9698 2.83018 22.7716 3.01543C22.3387 3.08237 22.0312 3.46301 22.0312 3.90106C22.0312 4.49707 22.5883 4.93627 23.178 4.85044C24.1969 4.70208 25.2898 4.65906 26.5515 4.70503C27.0934 8.87269 27.2886 11.9927 27.1387 15.4111C27.115 15.9506 27.5423 16.4062 28.0823 16.4062Z" fill="#335F5B"/>
</svg>
