<svg width="24" height="25" viewBox="0 0 24 25" fill="none" xmlns="http://www.w3.org/2000/svg">
<path fill-rule="evenodd" clip-rule="evenodd" d="M8 2.7959C8 2.24361 7.55228 1.7959 7 1.7959C6.44771 1.7959 6 2.24361 6 2.7959V3.7959H5C4.20435 3.7959 3.44129 4.11197 2.87868 4.67458C2.31607 5.23719 2 6.00025 2 6.7959V19.7959C2 20.5915 2.31607 21.3546 2.87868 21.9172C3.44129 22.4798 4.20435 22.7959 5 22.7959H19C19.7956 22.7959 20.5587 22.4798 21.1213 21.9172C21.6839 21.3546 22 20.5915 22 19.7959V6.7959C22 6.00025 21.6839 5.23719 21.1213 4.67458C20.5587 4.11197 19.7956 3.7959 19 3.7959H18.5C17.9477 3.7959 17.5 4.24361 17.5 4.7959C17.5 5.34818 17.9477 5.7959 18.5 5.7959H19C19.2652 5.7959 19.5196 5.90126 19.7071 6.08879C19.8946 6.27633 20 6.53068 20 6.7959V9.7959H4V6.7959C4 6.53068 4.10536 6.27633 4.29289 6.08879C4.48043 5.90126 4.73478 5.7959 5 5.7959H6V6.7959C6 7.34818 6.44771 7.7959 7 7.7959C7.55228 7.7959 8 7.34818 8 6.7959V2.7959ZM4.29289 20.503C4.10536 20.3155 4 20.0611 4 19.7959V11.7959H20V19.7959C20 20.0611 19.8946 20.3155 19.7071 20.503C19.5196 20.6905 19.2652 20.7959 19 20.7959H5C4.73478 20.7959 4.48043 20.6905 4.29289 20.503Z" fill="#E4E4E7"/>
<path d="M16 2.7959C16 2.24361 15.5523 1.7959 15 1.7959C14.4477 1.7959 14 2.24361 14 2.7959V3.7959H10.5C9.94771 3.7959 9.5 4.24361 9.5 4.7959C9.5 5.34818 9.94771 5.7959 10.5 5.7959H14V6.7959C14 7.34818 14.4477 7.7959 15 7.7959C15.5523 7.7959 16 7.34818 16 6.7959V2.7959Z" fill="#E4E4E7"/>
</svg>
