<svg width="20" height="20" viewBox="0 0 20 20" fill="none" xmlns="http://www.w3.org/2000/svg">
<path fill-rule="evenodd" clip-rule="evenodd" d="M10 0.473633C9.08634 0.473633 8.19014 0.723981 7.40875 1.19749L2.40875 4.22749C1.67349 4.67304 1.06552 5.30066 0.643585 6.04973C0.221649 6.79879 -1.43044e-05 7.644 6.92125e-10 8.50372V14.7957C6.92125e-10 16.1218 0.526784 17.3936 1.46447 18.3313C2.40215 19.2689 3.67392 19.7957 5 19.7957H15C16.3261 19.7957 17.5978 19.2689 18.5355 18.3313C19.4732 17.3936 20 16.1218 20 14.7957V8.50272C19.9998 7.6432 19.778 6.79802 19.3561 6.04918C18.9342 5.30036 18.3263 4.67294 17.5913 4.2275L12.5913 1.1975C11.8099 0.72399 10.9137 0.473633 10 0.473633ZM8.44526 2.90794C8.91409 2.62384 9.45181 2.47363 10 2.47363C10.5482 2.47363 11.0859 2.62384 11.5547 2.90794L16.5547 5.93794C16.9958 6.20521 17.3605 6.58167 17.6137 7.03096C17.8668 7.4802 17.9998 7.98709 18 8.50272V14.7957C18 15.5914 17.6839 16.3544 17.1213 16.917C16.5587 17.4796 15.7956 17.7957 15 17.7957H14V14.7957C14 13.7349 13.5786 12.7174 12.8284 11.9673C12.0783 11.2171 11.0609 10.7957 10 10.7957C8.93913 10.7957 7.92172 11.2171 7.17157 11.9673C6.42143 12.7174 6 13.7349 6 14.7957V17.7957H5C4.20435 17.7957 3.44129 17.4796 2.87868 16.917C2.31607 16.3544 2 15.5914 2 14.7957V8.50372C1.99999 7.98788 2.13299 7.48073 2.38615 7.03129C2.63931 6.58185 3.00409 6.20528 3.44525 5.93795L8.44526 2.90794ZM11.4142 13.3815C11.7893 13.7566 12 14.2653 12 14.7957V17.7957H8V14.7957C8 14.2653 8.21071 13.7566 8.58578 13.3815C8.96086 13.0064 9.46956 12.7957 10 12.7957C10.5304 12.7957 11.0391 13.0064 11.4142 13.3815Z" fill="white"/>
</svg>
