<svg width="50" height="50" viewBox="0 0 50 50" fill="none" xmlns="http://www.w3.org/2000/svg">
<g clip-path="url(#clip0_1044_7459)">
<path d="M25 50C38.8071 50 50 38.8071 50 25C50 11.1929 38.8071 0 25 0C11.1929 0 0 11.1929 0 25C0 38.8071 11.1929 50 25 50Z" fill="#D1D1D3"/>
<path d="M46.6016 37.5781C44.4922 41.2109 41.4453 44.2969 37.8125 46.4453C37.3047 46.7578 36.7969 47.0312 36.2891 47.3047C32.8906 49.0234 29.0625 50 25 50C20.9375 50 17.1094 49.0234 13.7109 47.3047C13.2031 47.0312 12.6563 46.7578 12.1875 46.4453C8.55469 44.2578 5.54688 41.2109 3.4375 37.5781C4.0625 34.0625 6.5625 31.1719 9.96094 30L17.5781 27.3828L18.6719 26.9922H18.7109L19.5312 25.9375H30.3906L31.3672 26.9922H31.4062L32.5 27.3828L40.0391 29.9609C43.5156 31.1719 45.9766 34.0625 46.6016 37.5781Z" fill="#5E86C3"/>
<path d="M18.5547 21.4062C18.7891 23.2812 19.0234 25.5859 18.6719 27.0703C18.8281 27.5 18.9844 27.9687 19.1406 28.3984C20 30.9375 22.3828 31.7969 25.0781 31.7969C27.7734 31.7969 30.1563 30.8984 31.0156 28.3594C31.1719 27.9297 31.3281 27.5 31.4844 27.0703C31.1328 25.5859 31.4063 23.2812 31.6016 21.4062C31.8359 19.4922 32.1094 18.2812 32.1875 18.3594C28.2813 14.4531 21.9141 14.4531 18.0078 18.3594C18.0469 18.2812 18.3594 19.4922 18.5547 21.4062Z" fill="#F1B97C"/>
<path d="M34.8184 16.83C35.1019 15.2803 34.5917 13.8887 33.6789 13.7217C32.7661 13.5547 31.7963 14.6756 31.5128 16.2253C31.2293 17.775 31.7395 19.1666 32.6523 19.3336C33.5651 19.5006 34.5349 18.3797 34.8184 16.83Z" fill="#F8CFA3"/>
<path d="M33.7891 14.3359C33.6719 15.5078 33.5547 16.2891 33.5547 16.2891C33.3594 17.2656 33.2031 18.0859 33.0469 18.7891C33.5547 18.5937 34.1016 17.8516 34.2969 16.7187C34.5313 15.5859 34.2188 14.6094 33.7891 14.3359Z" fill="#F1B97C"/>
<path d="M25.0001 3.04688C15.5469 3.47656 15.9766 10.6641 15.9766 10.6641C15.9766 13.5156 16.4454 16.2891 16.4454 16.2891C17.5391 22.3438 18.2422 22.7734 18.2422 22.7734C19.1016 24.0234 20.2735 25.0391 21.211 25.7031C22.1094 26.3672 23.2422 26.7578 24.336 26.7578H25.6251C26.7579 26.7578 27.8516 26.4063 28.7501 25.7031C29.6876 25 30.8204 24.0234 31.7188 22.7734C31.7188 22.7734 32.4219 22.3438 33.5157 16.2891C33.5157 16.2891 33.9844 13.4766 33.9844 10.6641C33.9844 10.6641 34.4141 3.47656 25.0001 3.04688Z" fill="#F8CFA3"/>
<path d="M17.3161 19.333C18.2289 19.166 18.7391 17.7744 18.4556 16.2247C18.1721 14.675 17.2024 13.5541 16.2895 13.7211C15.3767 13.8881 14.8665 15.2797 15.15 16.8294C15.4335 18.3791 16.4033 19.4999 17.3161 19.333Z" fill="#F8CFA3"/>
<path d="M16.1719 14.3359C16.2891 15.5078 16.4062 16.2891 16.4062 16.2891C16.6016 17.2656 16.7578 18.0859 16.9141 18.7891C16.4062 18.5937 15.8594 17.8516 15.6641 16.7187C15.4687 15.5859 15.7422 14.6094 16.1719 14.3359Z" fill="#F1B97C"/>
<path d="M25.1562 31.875L25.1172 31.8359L25.1562 31.7969V31.875Z" fill="#5E86C3"/>
<path d="M32.5781 27.3828V27.4219C32.4219 27.8125 32.2656 28.2422 32.1484 28.7109C31.6406 30.1953 30.7031 31.3281 29.2969 32.0313C28.1641 32.6172 26.7578 32.9297 25.1172 32.9297C21.5234 32.9297 19.0234 31.4453 18.0859 28.75C17.9297 28.2422 17.7734 27.8516 17.6172 27.4609C17.6172 27.4219 17.6172 27.4219 17.6172 27.3828L18.7109 26.9922V27.0312C18.8672 27.4609 19.0234 27.9297 19.1797 28.3594C20.0391 30.8984 22.4219 31.7578 25.1172 31.7578C27.8125 31.7578 30.1953 30.8594 31.0547 28.3203C31.2109 27.8906 31.3672 27.4609 31.5234 27.0312V26.9922L32.5781 27.3828Z" fill="#E7E7E8"/>
<path d="M13.7109 47.3047C13.2031 47.0312 12.6562 46.7578 12.1875 46.4453V41.8359L13.7109 47.3047Z" fill="#4C5AA5"/>
<path d="M37.8516 41.8359V46.4453C37.3438 46.7578 36.8359 47.0312 36.3281 47.3047L37.8516 41.8359Z" fill="#4C5AA5"/>
<path d="M16.4844 16.5622H16.6797C16.7188 15.3512 16.9922 10.6247 18.2813 9.37467C18.2813 9.37467 22.6954 13.359 32.7344 11.9137C32.6172 13.7497 32.8125 15.2731 33.2032 16.5622H33.5157C33.5938 15.6637 33.8672 13.3981 34.5704 11.7575C35.1172 10.4684 35.2735 9.02311 34.8829 7.65592C34.1797 5.46842 32.0704 2.92936 25.8594 2.30436C24.2969 2.14811 22.7344 2.2653 21.25 2.69499C19.4532 3.24186 17.3829 4.37467 16.6797 6.75749C16.6797 6.75749 13.1641 8.00749 16.25 15.3512L16.4844 16.5622Z" fill="#4C525E"/>
<path d="M18.6719 5.78179C18.6719 5.78179 18.75 5.74273 18.8672 5.66461C20.1172 4.92242 21.7578 4.37554 23.5547 4.21929C20.3906 4.60992 18.5938 6.17242 18.5938 6.17242C18.5938 6.17242 20.5469 4.64898 24.2969 4.45367C21.7578 4.72711 20.2734 5.82086 20.2734 5.82086C20.2734 5.82086 22.1484 4.92242 22.9688 4.92242C21.25 5.27398 19.6875 6.28961 20.3516 5.93804C21.5625 5.35211 23.0859 5.00054 24.7656 4.96148C21.8359 5.07867 20.0781 6.36773 20.0781 6.36773C20.0781 6.36773 22.0703 5.07867 25.3906 5.19586C21.0547 5.27398 19.2578 7.03179 19.2578 7.03179C19.2578 7.03179 20.3125 6.25054 22.5 5.74273C21.9922 5.93804 20.8594 6.21148 19.7266 6.95367C19.3359 7.18804 19.1797 7.38336 19.1797 7.38336C20.1953 6.64117 22.1094 5.89898 24.1797 5.82086C21.9531 6.09429 20.6641 7.10992 20.6641 7.10992C20.6641 7.07086 21.6797 6.64117 21.7188 6.64117C22.5 6.36773 23.0469 6.28961 23.0469 6.28961C21.4063 6.68023 20.625 7.30523 20.625 7.30523C20.625 7.30523 20.6641 7.26617 20.7813 7.22711C21.9531 6.64117 23.3203 6.36773 24.6484 6.32867C22.0312 6.44586 20.5469 7.65679 20.5469 7.65679C20.5469 7.65679 22.3438 6.52398 25.2344 6.64117C23.125 6.71929 21.9531 7.57867 21.9531 7.57867C21.9531 7.57867 21.9922 7.53961 22.0703 7.53961C24.6484 6.44586 28.0859 7.03179 30.6641 9.14117C30.7422 9.21929 31.6406 10.0396 31.6797 10.1177C31.6797 10.1177 31.0547 8.90679 29.4141 7.89117C31.4453 8.86773 32.4219 10.3521 32.4219 10.3521C32.4219 10.3521 31.7187 8.90679 29.9609 7.77398C32.1094 9.21929 32.7344 10.313 32.7344 10.313C32.7344 10.313 31.7578 8.20367 28.9063 6.83648C31.2109 7.69586 32.4609 9.21929 32.4609 9.21929C32.4609 9.21929 31.7578 8.12554 30.3906 7.22711C31.7578 8.04742 32.6953 9.18023 32.6953 9.18023C32.6953 9.18023 32.6172 9.06304 32.4609 8.82867C32.6562 9.02398 32.7734 9.14117 32.7734 9.14117C32.7734 9.14117 31.9531 7.77398 30.2344 6.75836C32.7344 8.00836 33.125 9.25836 33.5156 9.49273C33.5156 9.49273 32.6953 7.85211 30.7422 6.60211C32.8516 7.89117 33.8672 9.45367 33.8672 9.45367C33.8672 9.45367 32.8125 7.14898 29.5703 5.54742C32.1875 6.56304 33.5547 8.28179 33.5547 8.28179C33.5547 8.28179 33.4375 8.12554 33.2031 7.81304C32.3828 6.83648 31.4063 6.01617 30.1953 5.39117C30.5859 5.58648 31.9922 6.21148 33.4766 7.77398C33.75 8.04742 33.8672 8.20367 33.8672 8.20367C33.8672 8.20367 32.7734 6.40679 30.3906 5.15679C23.9453 1.75836 18.6719 5.78179 18.6719 5.78179Z" fill="#535963"/>
</g>
<defs>
<clipPath id="clip0_1044_7459">
<rect width="50" height="50" fill="white"/>
</clipPath>
</defs>
</svg>
