<svg width="24" height="25" viewBox="0 0 24 25" fill="none" xmlns="http://www.w3.org/2000/svg">
<path d="M15.51 3.62598H8.49C6 3.62598 5.45 4.86598 5.13 6.38598L4 11.796H20L18.87 6.38598C18.55 4.86598 18 3.62598 15.51 3.62598Z" stroke="#E4E4E7" stroke-width="1.5" stroke-linecap="round" stroke-linejoin="round"/>
<path d="M21.99 20.6159C22.1 21.7859 21.16 22.7959 19.96 22.7959H18.08C17 22.7959 16.85 22.3359 16.66 21.7659L16.46 21.1659C16.18 20.3459 16 19.7959 14.56 19.7959H9.44C8 19.7959 7.79 20.4159 7.54 21.1659L7.34 21.7659C7.15 22.3359 7 22.7959 5.92 22.7959H4.04C2.84 22.7959 1.9 21.7859 2.01 20.6159L2.57 14.5259C2.71 13.0259 3 11.7959 5.62 11.7959H18.38C21 11.7959 21.29 13.0259 21.43 14.5259L21.99 20.6159Z" stroke="#E4E4E7" stroke-width="1.5" stroke-linecap="round" stroke-linejoin="round"/>
<path d="M4 8.7959H3" stroke="#E4E4E7" stroke-width="1.5" stroke-linecap="round" stroke-linejoin="round"/>
<path d="M21 8.7959H20" stroke="#E4E4E7" stroke-width="1.5" stroke-linecap="round" stroke-linejoin="round"/>
<path d="M12 3.7959V5.7959" stroke="#E4E4E7" stroke-width="1.5" stroke-linecap="round" stroke-linejoin="round"/>
<path d="M10.5 5.7959H13.5" stroke="#E4E4E7" stroke-width="1.5" stroke-linecap="round" stroke-linejoin="round"/>
<path d="M6 15.7959H9" stroke="#E4E4E7" stroke-width="1.5" stroke-linecap="round" stroke-linejoin="round"/>
<path d="M15 15.7959H18" stroke="#E4E4E7" stroke-width="1.5" stroke-linecap="round" stroke-linejoin="round"/>
</svg>
