<svg width="18" height="18" viewBox="0 0 18 18" fill="none" xmlns="http://www.w3.org/2000/svg">
<path d="M10.2028 12.6821C10.0188 12.6992 9.83403 12.6577 9.67505 12.5634C9.5589 12.4442 9.50321 12.2786 9.5237 12.1134C9.52799 11.9759 9.54441 11.839 9.57278 11.7043C9.60024 11.5499 9.63571 11.3969 9.67913 11.2462L10.1619 9.58523C10.2116 9.4213 10.2445 9.25269 10.2601 9.08204C10.2601 8.89796 10.2846 8.77112 10.2846 8.6975C10.2949 8.36939 10.1548 8.05453 9.90413 7.8425C9.59584 7.60583 9.21194 7.4895 8.82413 7.51523C8.54622 7.51941 8.27045 7.56491 8.00594 7.65023C7.71685 7.74023 7.41275 7.84795 7.09367 7.97342L6.95459 8.51342C7.04867 8.48069 7.16324 8.44388 7.29413 8.40296C7.419 8.36598 7.54845 8.34668 7.67867 8.34569C7.86134 8.3259 8.04521 8.37076 8.19821 8.4725C8.30213 8.5965 8.35089 8.75758 8.33321 8.91842C8.33275 9.05599 8.31767 9.19313 8.28821 9.3275C8.25955 9.47069 8.22275 9.62204 8.17775 9.78158L7.69094 11.4507C7.6517 11.6058 7.62031 11.7628 7.59686 11.9211C7.57773 12.0566 7.56817 12.1933 7.56821 12.3302C7.5662 12.6606 7.71727 12.9732 7.97729 13.177C8.29032 13.4174 8.67971 13.5365 9.07363 13.5125C9.35102 13.5182 9.62745 13.4781 9.89182 13.3938C10.1236 13.3147 10.4332 13.2015 10.8205 13.0543L10.9514 12.5388C10.8465 12.5823 10.7385 12.6179 10.6282 12.6452C10.4888 12.677 10.3456 12.6894 10.2028 12.6821Z" fill="#515151"/>
<path d="M10.7142 4.80621C10.4915 4.60174 10.1982 4.49173 9.89597 4.4994C9.59394 4.49258 9.30088 4.60248 9.07778 4.80621C8.66884 5.15882 8.62317 5.7762 8.97582 6.18518C9.00725 6.22163 9.04132 6.2557 9.07778 6.28713C9.54367 6.70384 10.2483 6.70384 10.7141 6.28713C11.1231 5.93103 11.1659 5.31088 10.8098 4.90194C10.7802 4.86787 10.7482 4.83588 10.7142 4.80621Z" fill="#515151"/>
<path d="M9 0C4.02943 0 0 4.02943 0 9C0 13.9706 4.02943 18 9 18C13.9706 18 18 13.9706 18 9C18 4.02943 13.9706 0 9 0ZM9 17.1818C4.4813 17.1818 0.818191 13.5187 0.818191 9C0.818191 4.4813 4.4813 0.818191 9 0.818191C13.5187 0.818191 17.1818 4.4813 17.1818 9C17.1818 13.5187 13.5187 17.1818 9 17.1818Z" fill="#515151"/>
</svg>
