<svg width="24" height="25" viewBox="0 0 24 25" fill="none" xmlns="http://www.w3.org/2000/svg">
<path fill-rule="evenodd" clip-rule="evenodd" d="M12 3.7959C10.6739 3.7959 9.40215 4.32268 8.46447 5.26036C7.52678 6.19805 7 7.46982 7 8.7959C7 10.122 7.52678 11.3938 8.46447 12.3314C8.53043 12.3974 8.59804 12.4613 8.66721 12.5232C7.81069 12.9157 7.02217 13.46 6.34315 14.139C4.84285 15.6393 4 17.6742 4 19.7959V20.7959C4 21.3482 4.44772 21.7959 5 21.7959C5.55228 21.7959 6 21.3482 6 20.7959V19.7959C6 18.2046 6.63214 16.6785 7.75736 15.5533C8.88258 14.428 10.4087 13.7959 12 13.7959C13.5913 13.7959 15.1174 14.428 16.2426 15.5533C17.3679 16.6785 18 18.2046 18 19.7959V20.7959C18 21.3482 18.4477 21.7959 19 21.7959C19.5523 21.7959 20 21.3482 20 20.7959V19.7959C20 17.6742 19.1571 15.6393 17.6569 14.139C16.9778 13.46 16.1893 12.9157 15.3328 12.5232C15.402 12.4613 15.4696 12.3974 15.5355 12.3314C16.4732 11.3938 17 10.122 17 8.7959C17 7.46982 16.4732 6.19805 15.5355 5.26036C14.5979 4.32268 13.3261 3.7959 12 3.7959ZM9.87868 6.67458C10.4413 6.11197 11.2043 5.7959 12 5.7959C12.7956 5.7959 13.5587 6.11197 14.1213 6.67458C14.6839 7.23719 15 8.00025 15 8.7959C15 9.59155 14.6839 10.3546 14.1213 10.9172C13.5587 11.4798 12.7956 11.7959 12 11.7959C11.2043 11.7959 10.4413 11.4798 9.87868 10.9172C9.31607 10.3546 9 9.59155 9 8.7959C9 8.00025 9.31607 7.23719 9.87868 6.67458Z" fill="#E4E4E7"/>
</svg>
