<svg width="24" height="24" viewBox="0 0 24 24" fill="none" xmlns="http://www.w3.org/2000/svg">
<path opacity="0.3" d="M19 8.25C19 8.34943 18.9704 8.43964 18.9434 8.53027C18.3255 8.35119 17.6748 8.25 17 8.25C17 7.69769 17.4477 7.25 18 7.25C18.5523 7.25 19 7.69769 19 8.25ZM5 8.25C5 8.80225 5.44769 9.25 6 9.25C6.55231 9.25 7 8.80225 7 8.25C7 7.69769 6.55231 7.25 6 7.25C5.44769 7.25 5 7.69769 5 8.25ZM20 3.75H4C2.62109 3.75 1.5 4.87109 1.5 6.25V10.25C1.5 11.6289 2.62109 12.75 4 12.75H10.4696C10.6031 12.4025 10.7624 12.0685 10.9473 11.75H3.99999C3.17284 11.75 2.49999 11.0771 2.49999 10.25V6.25C2.49999 5.42285 3.17284 4.75 3.99999 4.75H20C20.8271 4.75 21.5 5.42285 21.5 6.25V9.89612C21.8363 10.1793 22.1462 10.4926 22.4242 10.8333C22.4695 10.6453 22.5 10.4518 22.5 10.25V6.25C22.5 4.87109 21.3789 3.75 20 3.75ZM9 8.25C9 8.80225 9.44769 9.25 10 9.25C10.5523 9.25 11 8.80225 11 8.25C11 7.69769 10.5523 7.25 10 7.25C9.44769 7.25 9 7.69769 9 8.25ZM14.9373 8.56104C14.9703 8.4618 15 8.36036 15 8.25C15 7.69769 14.5523 7.25 14 7.25C13.4477 7.25 13 7.69769 13 8.25C13 8.65015 13.2388 8.98981 13.5784 9.14966C14.0063 8.90869 14.46 8.70856 14.9373 8.56104Z" fill="#1F1F1F"/>
<path d="M17 10.25C14.2386 10.25 12 12.4886 12 15.25C12 18.0114 14.2386 20.25 17 20.25C19.7614 20.25 22 18.0114 22 15.25C22 12.4886 19.7614 10.25 17 10.25ZM19.3535 14.2705L16.6865 16.9365C16.5889 17.0342 16.4609 17.083 16.333 17.083C16.2051 17.083 16.0772 17.0342 15.9795 16.9365L14.6465 15.6035C14.4512 15.4082 14.4512 15.0918 14.6465 14.8965C14.8418 14.7012 15.1582 14.7012 15.3535 14.8965L16.333 15.876L18.6465 13.5635C18.8418 13.3682 19.1582 13.3682 19.3535 13.5635C19.5488 13.7588 19.5488 14.0752 19.3535 14.2705Z" fill="#1F1F1F"/>
</svg>
