<svg width="14" height="11" viewBox="0 0 14 11" fill="none" xmlns="http://www.w3.org/2000/svg">
<path fill-rule="evenodd" clip-rule="evenodd" d="M13.7064 0.892396C13.8939 1.07992 13.9992 1.33423 13.9992 1.5994C13.9992 1.86456 13.8939 2.11887 13.7064 2.3064L5.70643 10.3064C5.5189 10.4939 5.2646 10.5992 4.99943 10.5992C4.73427 10.5992 4.47996 10.4939 4.29243 10.3064L0.292431 6.3064C0.110272 6.11779 0.00947813 5.86519 0.0117566 5.60299C0.014035 5.3408 0.119204 5.08999 0.304612 4.90458C0.49002 4.71917 0.740832 4.614 1.00303 4.61172C1.26523 4.60944 1.51783 4.71024 1.70643 4.8924L4.99943 8.1854L12.2924 0.892396C12.48 0.704925 12.7343 0.599609 12.9994 0.599609C13.2646 0.599609 13.5189 0.704925 13.7064 0.892396Z" fill="#ECA939"/>
</svg>
