<svg width="32" height="26" viewBox="0 0 32 26" fill="none" xmlns="http://www.w3.org/2000/svg">
<path fill-rule="evenodd" clip-rule="evenodd" d="M3.84368 20.238C3.57136 20.2934 3.31248 20.084 3.31248 19.8067V1.05681C3.31248 0.856833 3.45 0.681808 3.6437 0.631832C3.69995 0.619357 5.01246 0.306806 7.21869 0.394356C9.20716 0.47445 12.3358 0.906144 16.007 2.51997C19.6721 0.911087 22.7953 0.474375 24.7812 0.400625C26.9874 0.313149 28.2999 0.625625 28.3562 0.638101C28.55 0.688076 28.6874 0.863101 28.6874 1.06308V19.813C28.6874 20.089 28.4252 20.2924 28.1562 20.238C21.6598 18.9244 16.4596 22.1732 15.9999 22.1818C15.5401 22.1904 10.4218 18.8984 3.84368 20.238ZM22.1249 13.3692H17.8749C17.3096 13.3692 17.3095 12.4943 17.8749 12.4943L22.1249 12.4943C22.6903 12.4943 22.6903 13.3692 22.1249 13.3692ZM26.3749 15.5567H17.8749C17.3095 15.5567 17.3095 14.6817 17.8749 14.6817L26.3749 14.6818C26.9403 14.6818 26.9404 15.5567 26.3749 15.5567ZM26.3749 17.6818H17.8749C17.3095 17.6818 17.3095 16.8067 17.8749 16.8067L26.3749 16.8068C26.9403 16.8068 26.9404 17.6818 26.3749 17.6818ZM9.87504 13.3692H5.62505C5.05967 13.3692 5.0596 12.4943 5.62505 12.4943L9.87504 12.4943C10.4404 12.4943 10.4404 13.3692 9.87504 13.3692ZM14.125 15.5567H5.62503C5.05965 15.5567 5.05965 14.6817 5.62503 14.6817L14.125 14.6818C14.6904 14.6818 14.6905 15.5567 14.125 15.5567ZM14.125 17.6818H5.62503C5.05965 17.6818 5.05965 16.8067 5.62503 16.8067L14.125 16.8068C14.6904 16.8068 14.6905 17.6818 14.125 17.6818ZM23.3125 9.24432C22.9688 9.24432 22.3541 8.6799 22.155 8.48834C21.9583 8.68005 21.3465 9.24432 20.9999 9.24432C20.5701 9.24432 20.3964 8.64321 20.7874 8.4256C21.1033 8.25042 21.3653 8.04277 21.5821 7.82434C21.2316 7.33403 21.0309 6.86337 20.9253 6.55687C20.5853 6.55687 20.0624 6.60699 20.0624 6.11934C20.0624 5.5282 20.8264 5.70477 21.2001 5.68181C21.8176 5.6438 23.0636 5.68181 23.7499 5.68181C24.3153 5.68181 24.3153 6.55686 23.7499 6.55686H23.3379C23.2412 6.86402 23.0561 7.3296 22.7224 7.8143C23.2598 8.35074 23.9953 8.51293 23.6999 9.01933C23.6125 9.16305 23.4687 9.24432 23.3125 9.24432ZM21.8692 6.55687C21.9383 6.7141 22.0297 6.89562 22.1483 7.08703C22.2613 6.89496 22.3462 6.71321 22.4089 6.55687H21.8692ZM21.4375 11.8068C20.8914 11.8068 20.9999 11.1069 20.9999 10.7443L19.4375 10.7443C18.9 10.7443 18.5 10.3131 18.5 9.74431V4.36932C18.5 3.80054 18.9 3.36929 19.4375 3.36929L24.8749 3.36936C25.3812 3.36936 25.8124 3.82564 25.8124 4.36939V9.74438C25.8124 10.2881 25.3812 10.7444 24.8749 10.7444L22.9624 10.7443C22.748 10.8174 21.7908 11.8068 21.4375 11.8068ZM19.4375 4.24431C19.3875 4.24431 19.375 4.31304 19.375 4.36929V9.74428C19.375 9.80053 19.3874 9.86926 19.4375 9.86926L21.4375 9.86933C21.812 9.86933 21.875 10.1804 21.875 10.4756C22.0842 10.3134 22.5445 9.86313 22.8125 9.86313L24.8687 9.86305C24.8875 9.85678 24.9374 9.8068 24.9374 9.73808V4.36308C24.9374 4.29436 24.8875 4.24431 24.8687 4.23811L19.4375 4.24431ZM10.5 11.8068C10.14 11.8068 9.24223 10.8188 9.03126 10.7443H7.12503C6.61878 10.7443 6.18753 10.2881 6.18753 9.7443V4.36931C6.18753 3.82556 6.61878 3.36929 7.12503 3.36929L12.5625 3.36936C13.0999 3.36936 13.5 3.80061 13.5 4.36938V9.74438C13.5 10.3132 13.0999 10.7444 12.5625 10.7444L10.9375 10.7443C10.9375 11.1052 11.0448 11.8068 10.5 11.8068ZM7.13123 9.86935H9.18753C9.45225 9.86935 9.86187 10.2939 10.0625 10.4569C10.0625 10.1711 10.1501 9.86928 10.5 9.86928L12.5625 9.86935C12.6124 9.86935 12.625 9.80063 12.625 9.74438V4.36938C12.625 4.31313 12.6125 4.24441 12.5625 4.24441L7.13122 4.24434C7.11247 4.25061 7.0625 4.30059 7.0625 4.36931V9.7443C7.0625 9.8131 7.11248 9.86308 7.13123 9.86935ZM10.4608 7.99435H9.24061L8.83756 8.97562C8.6319 9.50225 7.81206 9.16689 8.03131 8.64432L9.46879 5.14434C9.61465 4.79148 10.1426 4.77974 10.2876 5.15061L11.6626 8.6506C11.8712 9.18416 11.0538 9.49405 10.8438 8.96935L10.4608 7.99435ZM9.59996 7.1193L10.117 7.11937L9.86423 6.47589L9.59996 7.1193ZM16 25.6192C15.6972 25.6192 14.2998 24.554 11.275 23.638C8.75623 22.8755 4.85001 22.163 0.531202 23.1067C0.266487 23.1671 0 22.9547 0 22.6818V3.86931C0 3.30393 0.87505 3.30393 0.87505 3.86931V22.1443C6.58496 21.057 12.3514 22.5841 16 24.6693C19.6458 22.586 25.4196 21.0496 31.125 22.1443L31.1249 3.86931C31.1249 3.30393 32 3.30393 32 3.86931V22.6818C32 22.9567 31.7383 23.1681 31.4688 23.113C22.7751 21.2738 16.4324 25.6192 15.9999 25.6192L16 25.6192ZM16.4311 21.0357C19.4314 19.6013 23.5787 18.5336 27.8124 19.2818L27.8125 1.41935C24.733 0.924987 20.6798 1.4322 16.4311 3.28417L16.4311 21.0357ZM6.95001 19.038C10.1549 19.038 13.228 19.9095 15.5626 21.0317V3.28173C11.3181 1.43338 7.26245 0.925579 4.18757 1.4192V19.2754C5.13128 19.1068 6.06249 19.038 6.95001 19.038Z" fill="#52ABB3"/>
<path fill-rule="evenodd" clip-rule="evenodd" d="M17.8745 14.6826L26.3745 14.6827C26.9399 14.6827 26.9399 15.5577 26.3745 15.5577H17.8745C17.3091 15.5577 17.3091 14.6826 17.8745 14.6826ZM16.4307 3.28515V21.0366C19.4309 19.6023 23.5782 18.5346 27.812 19.2828L27.812 1.42034C24.7325 0.925974 20.6793 1.43317 16.4307 3.28515ZM22.1245 12.4953C22.6899 12.4953 22.6899 13.3702 22.1245 13.3702H17.8745C17.3091 13.3702 17.309 12.4953 17.8745 12.4953L22.1245 12.4953ZM17.8745 16.8077L26.3745 16.8078C26.9399 16.8078 26.9399 17.6828 26.3745 17.6828H17.8745C17.3091 17.6828 17.3091 16.8077 17.8745 16.8077ZM24.8745 10.7454L22.962 10.7453C22.7476 10.8184 21.7903 11.8078 21.437 11.8078C20.891 11.8078 20.9995 11.1079 20.9995 10.7452L19.437 10.7453C18.8996 10.7453 18.4995 10.3141 18.4995 9.74529V4.3703C18.4995 3.80152 18.8996 3.37027 19.437 3.37027L24.8745 3.37035C25.3807 3.37035 25.812 3.82662 25.812 4.37037V9.74536C25.812 10.2891 25.3807 10.7454 24.8745 10.7454Z" fill="#AADDE3"/>
<path fill-rule="evenodd" clip-rule="evenodd" d="M22.1483 7.08681C22.2613 6.89473 22.3462 6.71299 22.4089 6.55664H21.8691C21.9383 6.71388 22.0297 6.8954 22.1483 7.08681Z" fill="#F9F9F9"/>
<path fill-rule="evenodd" clip-rule="evenodd" d="M21.2001 5.68196C21.8177 5.64395 23.0637 5.68196 23.75 5.68196C24.3154 5.68196 24.3154 6.55701 23.75 6.55701H23.338C23.2413 6.86418 23.0561 7.32975 22.7225 7.81445C23.2598 8.35089 23.9953 8.51308 23.6999 9.01948C23.6125 9.1632 23.4687 9.24448 23.3125 9.24448C22.9689 9.24448 22.3542 8.68006 22.155 8.4885C21.9583 8.6802 21.3466 9.24448 21 9.24448C20.5701 9.24448 20.3964 8.64337 20.7875 8.42575C21.1033 8.25058 21.3654 8.04293 21.5822 7.82449C21.2316 7.33419 21.031 6.86352 20.9254 6.55702C20.5853 6.55702 20.0625 6.60714 20.0625 6.11949C20.0625 5.52835 20.8264 5.70492 21.2001 5.68196ZM21.4375 9.8695C21.8121 9.8695 21.875 10.1806 21.875 10.4758C22.0842 10.3135 22.5446 9.8633 22.8125 9.8633L24.8688 9.86323C24.8875 9.85695 24.9375 9.80698 24.9375 9.73825V4.36326C24.9375 4.29453 24.8875 4.24448 24.8688 4.23828L19.4375 4.24448C19.3875 4.24448 19.375 4.31321 19.375 4.36946V9.74445C19.375 9.8007 19.3875 9.86943 19.4375 9.86943L21.4375 9.8695Z" fill="#F9F9F9"/>
<path fill-rule="evenodd" clip-rule="evenodd" d="M12.625 9.74418V4.36919C12.625 4.31294 12.6125 4.24421 12.5625 4.24421L7.13123 4.24414C7.11248 4.25042 7.0625 4.30039 7.0625 4.36912V9.74411C7.0625 9.81291 7.11248 9.86288 7.13123 9.86916H9.18753C9.45225 9.86916 9.86187 10.2937 10.0625 10.4567C10.0625 10.1709 10.1501 9.86909 10.5 9.86909L12.5625 9.86916C12.6124 9.86916 12.625 9.80043 12.625 9.74418ZM10.2876 5.15042L11.6626 8.65041C11.8712 9.18397 11.0538 9.49386 10.8438 8.96916L10.4608 7.99416H9.24062L8.83756 8.97543C8.6319 9.50206 7.81207 9.1667 8.03131 8.64413L9.46879 5.14415C9.61466 4.79129 10.1426 4.77955 10.2876 5.15042Z" fill="#AADDE3"/>
<path fill-rule="evenodd" clip-rule="evenodd" d="M10.1167 7.12006L9.86392 6.47656L9.59961 7.12L10.1167 7.12006Z" fill="#AADDE3"/>
<path fill-rule="evenodd" clip-rule="evenodd" d="M12.5624 10.7451L10.9374 10.745C10.9374 11.1059 11.0447 11.8075 10.5 11.8075C10.14 11.8075 9.24218 10.8195 9.0312 10.745H7.12497C6.61872 10.745 6.18747 10.2887 6.18747 9.74498V4.36998C6.18747 3.82623 6.61872 3.36996 7.12497 3.36996L12.5624 3.37003C13.0999 3.37003 13.4999 3.80128 13.4999 4.37006V9.74505C13.4999 10.3138 13.0999 10.7451 12.5624 10.7451ZM5.62498 14.6824L14.125 14.6824C14.6904 14.6824 14.6904 15.5574 14.125 15.5574H5.62498C5.0596 15.5574 5.0596 14.6824 5.62498 14.6824ZM5.62498 16.8074L14.125 16.8075C14.6904 16.8075 14.6904 17.6824 14.125 17.6824H5.62498C5.0596 17.6824 5.0596 16.8074 5.62498 16.8074ZM4.1875 19.2761C5.13121 19.1075 6.06243 19.0387 6.94996 19.0387C10.1549 19.0387 13.228 19.9102 15.5625 21.0324V3.28242C11.3181 1.43407 7.26239 0.926268 4.18752 1.41989L4.1875 19.2761ZM9.87497 12.4951C10.4403 12.4951 10.4403 13.37 9.87497 13.37H5.62498C5.0596 13.37 5.05953 12.495 5.62498 12.495L9.87497 12.4951Z" fill="#AADDE3"/>
</svg>
