<svg width="14" height="15" viewBox="0 0 14 15" fill="none" xmlns="http://www.w3.org/2000/svg">
<path d="M10.8544 8.89563C10.8544 9.91801 10.4482 10.8985 9.72529 11.6215C9.00236 12.3444 8.02184 12.7505 6.99945 12.7505C5.97706 12.7505 4.99655 12.3444 4.27361 11.6215C3.55067 10.8985 3.14453 9.91801 3.14453 8.89563C3.14453 6.76719 4.95141 5.28625 6.23656 2.25C8.80688 4.1575 10.8544 6.76609 10.8544 8.89563Z" fill="#FFD064"/>
<path d="M4.71973 10.4648C4.71973 11.0708 4.96045 11.652 5.38894 12.0805C5.81743 12.509 6.39859 12.7497 7.00457 12.7497C7.61055 12.7497 8.19171 12.509 8.6202 12.0805C9.04869 11.652 9.28941 11.0708 9.28941 10.4648C9.28941 9.20266 8.21863 8.32328 7.45629 6.52734C5.93269 7.65609 4.71973 9.20266 4.71973 10.4648Z" fill="#F06143"/>
</svg>
