<svg width="30" height="30" viewBox="0 0 30 30" fill="none" xmlns="http://www.w3.org/2000/svg">
<path d="M18.5 16.655V11.5L15.5 14.5V19.655L18.5 16.655Z" fill="#FFCD00"/>
<path d="M22.5 7.5V13.155L25.5 10.155V25.5H10.155L12.155 23.5H6.5L0.5 29.5H7.5H10.5H13.5H16.5H19.5H22.5H25.5H29.5V25.5V22.5V19.5V16.5V13.5V10.5V7.5V0.5L22.5 7.5Z" fill="#FFCD00"/>
<path d="M28 2V7.5V10.5V13.5V16.5V19.5V22.5V25.5V29.5H29.5V25.5V22.5V19.5V16.5V13.5V10.5V7.5V0.5L28 2Z" fill="#EBBF00"/>
<path d="M19.3818 21.2639L20.4998 23.4999L21.6178 21.2639C21.2707 21.0904 20.8879 21 20.4998 21C20.1117 21 19.729 21.0904 19.3818 21.2639Z" fill="#754C29"/>
<path d="M20.5 18L22.5 19.5V13.155V7.5V5.5H20.5V18Z" fill="#D80027"/>
<path d="M18.5 19.5L20.5 18V5.5H18.5V11.5V16.655V19.5Z" fill="#F7941D"/>
<path d="M20.5 21C20.8882 20.9989 21.2713 21.0894 21.618 21.264L22.5 19.5L20.5 18L18.5 19.5L19.382 21.264C19.7287 21.0894 20.1118 20.9989 20.5 21Z" fill="#D1D3D4"/>
<path d="M22.5 5.5V3.5H18.5V5.5H20.5H22.5Z" fill="#2488FF"/>
<path d="M22.5 2.5C22.5 1.96957 22.2893 1.46086 21.9142 1.08579C21.5391 0.710714 21.0304 0.5 20.5 0.5C19.9696 0.5 19.4609 0.710714 19.0858 1.08579C18.7107 1.46086 18.5 1.96957 18.5 2.5V3.5H22.5V2.5Z" fill="#F1F2F2"/>
<path d="M21.5 5.5V7.5V13.155V18.75L22.5 19.5V13.155V7.5V5.5H21.5Z" fill="#BD0022"/>
<path d="M21.5 3.5H22.5V5.5H21.5V3.5Z" fill="#006DF0"/>
<path d="M20.5 0.5C20.331 0.502157 20.163 0.525848 20 0.5705C20.4285 0.680349 20.8084 0.929487 21.0799 1.27875C21.3515 1.62802 21.4992 2.05761 21.5 2.5V3.5H22.5V2.5C22.5 1.96957 22.2893 1.46086 21.9142 1.08579C21.5391 0.710714 21.0304 0.5 20.5 0.5Z" fill="#D1D3D4"/>
<path d="M14.5 0.5H1.5C0.947715 0.5 0.5 0.947715 0.5 1.5V22.5C0.5 23.0523 0.947715 23.5 1.5 23.5H14.5C15.0523 23.5 15.5 23.0523 15.5 22.5V1.5C15.5 0.947715 15.0523 0.5 14.5 0.5Z" fill="#006DF0"/>
<path d="M14.5 0.5H14C14.265 0.500791 14.5189 0.606402 14.7062 0.793767C14.8936 0.981133 14.9992 1.23503 15 1.5V22.5C14.9992 22.765 14.8936 23.0189 14.7062 23.2062C14.5189 23.3936 14.265 23.4992 14 23.5H14.5C14.765 23.4992 15.0189 23.3936 15.2062 23.2062C15.3936 23.0189 15.4992 22.765 15.5 22.5V1.5C15.4992 1.23503 15.3936 0.981133 15.2062 0.793767C15.0189 0.606402 14.765 0.500791 14.5 0.5Z" fill="#005ECE"/>
<path d="M14 7.5V2H2V7.5H8H14Z" fill="#7ED63E"/>
<path d="M8 7.5H14V12.5H8V7.5Z" fill="#9BC9FF"/>
<path d="M2 7.5H8V12.5H2V7.5Z" fill="#57A4FF"/>
<path d="M2 12.5H8V17.5H2V12.5Z" fill="#9BC9FF"/>
<path d="M8 17.5H2V22H14V17.5H8Z" fill="#D80027"/>
<path d="M8 12.5H14V17.5H8V12.5Z" fill="#57A4FF"/>
<path d="M4.5 11.5H5.5V10.5H6.5V9.5H5.5V8.5H4.5V9.5H3.5V10.5H4.5V11.5Z" fill="#F1F2F2"/>
<path d="M5.70694 13.5859L4.99994 14.2929L4.29294 13.5859L3.58594 14.2929L4.29294 14.9999L3.58594 15.7069L4.29294 16.4139L4.99994 15.7069L5.70694 16.4139L6.41394 15.7069L5.70694 14.9999L6.41394 14.2929L5.70694 13.5859Z" fill="#F1F2F2"/>
<path d="M9.5 9.5H12.5V10.5H9.5V9.5Z" fill="#F1F2F2"/>
<path d="M9.5 14.5V15.5H12.5V14.5H11H9.5Z" fill="#F1F2F2"/>
<path d="M6.5 18.5H9.5V19.5H6.5V18.5Z" fill="#F1F2F2"/>
<path d="M6.5 20H9.5V21H6.5V20Z" fill="#F1F2F2"/>
<path d="M11.19 14.461C11.2218 14.4499 11.2521 14.4348 11.28 14.416L11.355 14.356L11.415 14.281C11.4337 14.253 11.4488 14.2227 11.46 14.191C11.4745 14.1627 11.4845 14.1323 11.4895 14.101C11.4957 14.068 11.4992 14.0345 11.5 14.001C11.5006 13.9016 11.4716 13.8044 11.4167 13.7216C11.3618 13.6389 11.2835 13.5744 11.1917 13.5363C11.1 13.4982 10.999 13.4883 10.9017 13.5078C10.8043 13.5273 10.7149 13.5754 10.645 13.646C10.5998 13.6938 10.5642 13.7498 10.54 13.811C10.5144 13.8711 10.5008 13.9356 10.5 14.001C10.5009 14.0345 10.5042 14.0679 10.51 14.101C10.5154 14.1323 10.5256 14.1626 10.54 14.191C10.5509 14.2228 10.5661 14.2531 10.585 14.281C10.6035 14.3072 10.6235 14.3322 10.645 14.356L10.7195 14.416C10.7476 14.4348 10.778 14.4499 10.81 14.461C10.8383 14.4754 10.8687 14.4855 10.9 14.491C10.9331 14.4965 10.9665 14.4999 11 14.501C11.0335 14.5001 11.067 14.4967 11.1 14.491C11.1313 14.4854 11.1616 14.4753 11.19 14.461Z" fill="#F1F2F2"/>
<path d="M11.355 15.6443C11.3311 15.6229 11.3061 15.6029 11.28 15.5843C11.2521 15.5655 11.2218 15.5503 11.19 15.5393C11.1616 15.5249 11.1313 15.5148 11.1 15.5093C11.0342 15.4943 10.9658 15.4943 10.9 15.5093C10.8686 15.5147 10.8383 15.5249 10.81 15.5393C10.778 15.5503 10.7476 15.5654 10.7195 15.5843C10.6935 15.6029 10.6687 15.6229 10.645 15.6443C10.5987 15.6913 10.5629 15.7475 10.54 15.8093C10.5136 15.8692 10.5 15.9339 10.5 15.9993C10.5 16.0647 10.5136 16.1294 10.54 16.1893C10.5653 16.2499 10.6009 16.3057 10.645 16.3543C10.7398 16.4473 10.8672 16.4993 11 16.4993C11.1327 16.4993 11.2602 16.4473 11.355 16.3543C11.4463 16.2584 11.498 16.1317 11.5 15.9993C11.4992 15.934 11.4856 15.8694 11.46 15.8093C11.437 15.7475 11.4012 15.6913 11.355 15.6443Z" fill="#F1F2F2"/>
<path d="M27.5 25H29.5V26H27.5V25Z" fill="#CCA400"/>
<path d="M27.5 22H29.5V23H27.5V22Z" fill="#CCA400"/>
<path d="M27.5 19H29.5V20H27.5V19Z" fill="#CCA400"/>
<path d="M27.5 16H29.5V17H27.5V16Z" fill="#CCA400"/>
<path d="M27.5 13H29.5V14H27.5V13Z" fill="#CCA400"/>
<path d="M27.5 10H29.5V11H27.5V10Z" fill="#CCA400"/>
<path d="M27.5 7H29.5V8H27.5V7Z" fill="#CCA400"/>
<path d="M7 27.5H8V29.5H7V27.5Z" fill="#CCA400"/>
<path d="M10 27.5H11V29.5H10V27.5Z" fill="#CCA400"/>
<path d="M13 27.5H14V29.5H13V27.5Z" fill="#CCA400"/>
<path d="M16 27.5H17V29.5H16V27.5Z" fill="#CCA400"/>
<path d="M19 27.5H20V29.5H19V27.5Z" fill="#CCA400"/>
<path d="M22 27.5H23V29.5H22V27.5Z" fill="#CCA400"/>
<path d="M25 27.5H26V29.5H25V27.5Z" fill="#CCA400"/>
</svg>
