<svg width="32" height="32" viewBox="0 0 32 32" fill="none" xmlns="http://www.w3.org/2000/svg">
<g clip-path="url(#clip0_1099_16434)">
<path d="M26.2407 13.1562V6.82422H18.3562V13.1562C14.9626 14.6672 12.5967 18.0688 12.5967 22.0232C12.5967 27.3813 16.9402 31.7248 22.2983 31.7248C27.6565 31.7248 32.0002 27.3813 32.0002 22.0232C32.0002 18.0688 29.634 14.6672 26.2407 13.1562Z" fill="#C9FFF7"/>
<path d="M30.0364 22.0244C30.0364 26.2915 26.5652 29.7624 22.2976 29.7624C20.8938 29.7624 19.5764 29.387 18.4404 28.7305C16.1223 27.3928 14.5596 24.8877 14.5596 22.0244C14.5596 19.8838 15.4463 17.8806 16.937 16.4453H27.6587C29.1497 17.8806 30.0364 19.8838 30.0364 22.0244Z" fill="#F7D360"/>
<path d="M20.1287 13.1582V11.4058C20.1287 10.4563 20.8982 9.68677 21.8474 9.68677H26.2407V7.80762L24.6772 6.38477L23.2048 5.99219L18.3564 7.80737V13.1582C14.9624 14.6692 12.5967 18.0703 12.5967 22.0251C12.5967 27.3601 16.9028 31.6892 22.23 31.7258C19.3125 31.6584 16.9592 27.3411 16.9592 22.0251C16.9592 18.0703 18.2615 14.6692 20.1287 13.1582Z" fill="#72CEC0"/>
<path d="M18.4404 28.7305C16.1223 27.3928 14.5596 24.8877 14.5596 22.0244C14.5596 19.8838 15.4463 17.8806 16.937 16.4453H17.9299C17.3179 18.0232 16.9587 19.9473 16.9587 22.0244C16.9587 24.6257 17.5222 26.9878 18.4404 28.7305Z" fill="#E58E13"/>
<path d="M18.9699 27.5063L12.6693 16.5935V10.9473H6.68154V16.5935L0.38101 27.5063C-0.701509 29.3813 0.651517 31.7251 2.8168 31.7251H16.5343C18.6994 31.7251 20.0526 29.3813 18.9699 27.5063Z" fill="#E6E6E6"/>
<path d="M12.6697 10.948L10.8364 9.91797L7.32301 9.95459L6.68165 10.948V16.594L0.381358 27.5073C-0.701894 29.3823 0.651621 31.7258 2.81642 31.7258H6.56129C5.57813 31.7258 4.96363 29.3823 5.45509 27.5073L8.31641 16.594V13.6953C8.31641 13.0996 8.79932 12.6169 9.39503 12.6169H12.6697V10.948Z" fill="#CCCCCC"/>
<path d="M14.8406 9.67261C14.8406 10.3774 14.2693 10.9487 13.5644 10.9487H5.78686C5.43481 10.9487 5.11548 10.8062 4.88452 10.575C4.65356 10.344 4.51074 10.0247 4.51074 9.67261C4.51074 8.96777 5.08203 8.39648 5.78686 8.39648H13.5644C13.9165 8.39648 14.2358 8.53906 14.4668 8.77002C14.6977 9.00122 14.8406 9.32056 14.8406 9.67261Z" fill="#CCCCCC"/>
<path d="M14.8403 9.67261C14.8403 10.3774 14.269 10.9487 13.5642 10.9487H8.88159C8.52881 10.9487 8.2102 10.8062 7.979 10.575C7.74805 10.344 7.60547 10.0247 7.60547 9.67261C7.60547 8.96777 8.17676 8.39648 8.88159 8.39648H13.5642C13.9163 8.39648 14.2356 8.53906 14.4665 8.77002C14.6975 9.00122 14.8403 9.32056 14.8403 9.67261Z" fill="#E6E6E6"/>
<path d="M28.438 6.53003C28.438 7.23486 27.8667 7.80615 27.1619 7.80615H17.541C17.1882 7.80615 16.8694 7.66357 16.6384 7.43262C16.4075 7.20142 16.2646 6.88208 16.2646 6.53003C16.2646 5.8252 16.8362 5.25391 17.541 5.25391H27.1619C27.5139 5.25391 27.8332 5.39648 28.0642 5.62769C28.2954 5.85864 28.438 6.17798 28.438 6.53003Z" fill="#72CEC0"/>
<path d="M28.438 6.53003C28.438 7.23486 27.8667 7.80615 27.1619 7.80615H20.5232C20.1711 7.80615 19.8518 7.66357 19.6206 7.43262C19.3896 7.20142 19.2471 6.88208 19.2471 6.53003C19.2471 5.8252 19.8184 5.25391 20.5232 5.25391H27.1619C27.5139 5.25391 27.8332 5.39648 28.0642 5.62769C28.2954 5.85864 28.438 6.17798 28.438 6.53003Z" fill="#C9FFF7"/>
<path d="M17.2697 29.3372C17.1782 29.4961 16.9609 29.7617 16.5349 29.7617H2.81709C2.39033 29.7617 2.17304 29.4961 2.08149 29.3372C1.98994 29.1787 1.86811 28.8574 2.08149 28.4883L6.71162 20.4688H12.6403L17.2697 28.4883C17.4831 28.8574 17.3613 29.1787 17.2697 29.3372Z" fill="#FC5F61"/>
<path d="M5.45503 27.5066C5.26215 28.2429 5.23969 29.051 5.34321 29.7617H2.81709C2.39033 29.7617 2.17304 29.4961 2.08149 29.3372C1.98994 29.1787 1.86811 28.8574 2.08149 28.4883L6.71162 20.4688H7.3L5.45503 27.5066Z" fill="#E83842"/>
<path d="M10.731 26.0648C10.2852 26.0648 10.0731 25.4918 10.4127 25.2011C10.7503 24.912 11.2803 25.2069 11.2166 25.6464C11.1822 25.8842 10.9708 26.0648 10.731 26.0648Z" fill="#E83842"/>
<path d="M8.56662 5.94132C8.13815 5.94132 7.91794 5.40567 8.2197 5.10294C8.38278 4.93961 8.64719 4.91422 8.83884 5.04215C9.0068 5.15397 9.09054 5.36441 9.0444 5.56095C8.99313 5.78043 8.79245 5.94132 8.56662 5.94132Z" fill="#E83842"/>
<path d="M10.5193 4.07627C10.0752 4.07627 9.85816 3.50107 10.2004 3.21201C10.3633 3.07432 10.6008 3.05674 10.7817 3.17075C10.9556 3.28037 11.0442 3.4957 10.9973 3.69614C10.946 3.91514 10.7454 4.07627 10.5193 4.07627Z" fill="#E83842"/>
<path d="M9.45548 1.22994C9.24113 1.22994 9.04826 1.08589 8.98551 0.881549C8.92326 0.677692 9.00529 0.448932 9.18253 0.330768C9.54679 0.087604 10.0397 0.431354 9.93107 0.858356C9.87614 1.07369 9.67814 1.22994 9.45548 1.22994Z" fill="#E83842"/>
<path d="M26.608 19.4882C26.1717 19.4882 25.9542 18.9311 26.276 18.6357C26.5843 18.3527 27.099 18.5785 27.099 18.9972C27.099 19.2641 26.8753 19.4882 26.608 19.4882Z" fill="white"/>
<path d="M26.9496 22.7612C26.5221 22.7612 26.2979 22.2253 26.6026 21.9236C26.755 21.7727 26.9918 21.7378 27.181 21.8381C27.3624 21.9345 27.4644 22.1399 27.4351 22.3427C27.4005 22.5808 27.1891 22.7612 26.9496 22.7612Z" fill="white"/>
<path d="M20.5477 26.4566C20.3378 26.4566 20.1478 26.3186 20.0819 26.1197C20.0121 25.9097 20.0968 25.6714 20.2831 25.5523C20.6527 25.3157 21.1381 25.6714 21.0206 26.096C20.9628 26.3059 20.766 26.4566 20.5477 26.4566Z" fill="white"/>
<path d="M18.2902 22.3333C17.8466 22.3333 17.6313 21.7613 17.9694 21.4715C18.1318 21.3321 18.3696 21.3148 18.551 21.4273C18.7231 21.5345 18.8125 21.7452 18.7705 21.9437C18.7231 22.1678 18.5197 22.3333 18.2902 22.3333Z" fill="white"/>
<path d="M24.2777 21.1555C23.8389 21.1555 23.6216 20.5952 23.9483 20.3015C24.1111 20.1551 24.3548 20.1345 24.5403 20.2505C24.71 20.357 24.7982 20.5645 24.7593 20.761C24.7144 20.9876 24.5084 21.1555 24.2777 21.1555Z" fill="white"/>
<path d="M7.29582 27.0819C7.0988 27.0819 6.91789 26.9603 6.84221 26.7789C6.7592 26.5792 6.82121 26.3392 6.99162 26.2057C7.34147 25.932 7.86687 26.2474 7.77678 26.6871C7.73039 26.9137 7.52775 27.0819 7.29582 27.0819Z" fill="#E83842"/>
<path d="M8.57224 23.9045C8.36692 23.9045 8.17942 23.7724 8.11008 23.579C8.03635 23.3735 8.11179 23.1357 8.29148 23.0112C8.64084 22.7692 9.13083 23.0761 9.05539 23.4977C9.01389 23.7297 8.80857 23.9045 8.57224 23.9045Z" fill="#E83842"/>
</g>
<defs>
<clipPath id="clip0_1099_16434">
<rect width="32" height="32" fill="white"/>
</clipPath>
</defs>
</svg>
