<svg width="14" height="15" viewBox="0 0 14 15" fill="none" xmlns="http://www.w3.org/2000/svg">
<g clip-path="url(#clip0_1099_16622)">
<path d="M1.45092 7.6827L1.45097 7.68265C1.36432 7.57084 1.29246 7.43393 1.24442 7.28906C0.783812 7.58968 0.351835 8.02387 0.0416753 8.56438C-0.0676177 8.75477 0.0595854 9.01727 0.229253 8.98271C0.279949 8.97237 0.434605 8.8864 0.721906 8.81121L0.721878 8.81113C1.00163 8.73784 1.3116 8.70446 1.61096 8.76995C1.71202 8.63681 2.40716 8.50269 2.61171 8.17795C2.41651 8.13836 1.6913 7.99308 1.45092 7.6827Z" fill="#7EBF32"/>
<path d="M9.84828 9.5579C9.81038 9.44609 9.75925 9.31345 9.70746 9.19727C9.31333 9.57343 8.78182 9.86336 8.06055 9.94055C8.40284 10.7255 8.4377 11.548 8.46086 11.6353C8.50885 11.8169 8.66643 11.9545 8.85423 11.9545H9.77229C10.0042 11.9545 10.1903 11.7481 10.1811 11.4996C10.1645 11.049 10.0952 10.2805 9.84828 9.5579Z" fill="#99CE64"/>
<path d="M4.24258 11.4996C4.2516 11.7482 4.06566 11.9546 3.83379 11.9546H2.91559C2.72773 11.9546 2.57023 11.8168 2.52238 11.6353C2.49914 11.548 2.46414 10.7255 2.12207 9.94051C2.2216 9.92984 2.3173 9.91508 2.40973 9.89648C2.78762 10.0061 3.35555 10.0958 4.02957 9.96238C4.18051 10.5546 4.22891 11.1324 4.24258 11.4996Z" fill="#8EC853"/>
<path d="M7.16123 6.67011L6.13675 8.514L5.65506 8.55092C2.23569 7.35941 4.40269 4.74453 4.40269 4.74453L4.41537 4.4082H5.90435L7.16123 6.67011Z" fill="#DAA985"/>
<path d="M5.65499 8.55095L3.52095 8.71375L2.38574 6.67013L3.64262 4.4082H4.49529C4.10572 5.68368 4.02659 7.38252 5.65499 8.55095Z" fill="#CB8A5A"/>
<path d="M3.28495 3.7832C2.22997 4.37498 1.39366 5.39487 1.05176 6.65274L2.04866 7.0457L2.7582 6.65274L3.81873 4.74404L3.84613 4.17848L3.28495 3.7832Z" fill="#B36D3A"/>
<path d="M2.75778 6.65234H1.05131C0.988505 6.88332 0.943142 7.11995 0.915825 7.36022C0.869341 7.79373 1.11385 8.10949 1.46144 8.1971C1.56387 8.22234 1.78957 8.27208 2.04873 8.30114L2.9867 8.75527L3.71574 8.3768L2.75778 6.65234Z" fill="#C47B46"/>
<path d="M7.711 6.19531L6.78749 6.65337L5.92299 8.2094L5.83398 8.62111L8.70784 7.82311L8.91992 6.77325C8.48532 6.62584 8.75916 6.75014 7.711 6.19531Z" fill="#B36D3A"/>
<path d="M9.1386 4.77577C8.80648 4.41522 8.33693 4.02106 7.89694 3.77458C7.47891 3.54049 7.02345 3.36924 6.54485 3.27148L5.60352 3.72837L5.72711 4.74329L6.78766 6.65199H8.59637L9.34165 5.81218L9.1386 4.77577Z" fill="#C47B46"/>
<path d="M6.54507 3.27209L5.72733 4.74389H4.40228C3.76033 3.95601 4.98199 3.21661 4.98199 3.21661C5.5117 3.14663 6.04186 3.16755 6.54507 3.27209Z" fill="#CB8A5A"/>
<path d="M4.98233 3.2168C4.7877 3.59567 4.55079 4.13454 4.40261 4.74408H3.81896L3.28516 3.78325C3.81136 3.48665 4.38853 3.29538 4.98233 3.2168Z" fill="#C47B46"/>
<path d="M14 5.16796C14 6.17413 13.1158 7.01667 12.0124 7.23411C11.675 7.30085 11.3882 7.51862 11.237 7.82763C10.8074 8.70621 9.76345 10.1527 7.75899 10.1527C7.42436 10.1527 7.13197 10.3789 7.04772 10.7028C6.99645 10.8991 6.94912 11.1707 6.92377 11.4771C6.90152 11.747 6.67618 11.9549 6.40547 11.9549H5.50548C5.25619 11.9549 5.05365 11.7532 5.05338 11.5039C5.05245 11.0769 5.09626 10.5992 5.19196 10.1803C5.20943 10.1022 5.13675 10.0335 5.05986 10.0563C4.94551 10.0901 4.7652 10.1338 4.54071 10.1724C4.54071 10.1724 3.00834 9.39437 4.62438 8.29327C5.32493 8.23806 6.02972 8.14482 6.68181 8.01805C7.77813 7.80537 8.62065 6.92397 8.78769 5.81978C8.82149 5.59641 8.8677 5.36541 8.93023 5.12486C9.12208 4.10743 10.3119 3.04688 11.5609 3.04688C12.9079 3.04685 14 3.99641 14 5.16796Z" fill="#B0DA87"/>
<path d="M4.6244 8.29252C4.44354 8.77278 4.30693 9.45192 4.54072 10.1716C3.96609 10.2711 3.10384 10.3384 2.3264 10.1302C2.14331 10.0812 1.95091 10.1753 1.8819 10.3519C1.78893 10.5899 1.68079 10.9874 1.63993 11.5127C1.62049 11.7615 1.41429 11.9541 1.16503 11.9541H0.425325C0.181665 11.9541 -0.0115733 11.7499 0.000539947 11.5066C0.0509618 10.4863 0.349829 9.33166 1.08784 8.61843C1.08926 8.61731 1.09038 8.61589 1.09177 8.61476C1.33401 8.38067 1.66586 8.26435 2.00106 8.29618C2.77992 8.37026 3.69821 8.36492 4.6244 8.29252Z" fill="#99CE64"/>
<path d="M12.1215 5.716C12.1215 6.58737 10.4678 6.58737 10.4678 5.716C10.4677 4.84467 12.1215 4.84467 12.1215 5.716Z" fill="white"/>
<path d="M11.7767 5.29374C11.66 5.29374 11.5654 5.19916 11.5654 5.08248V4.74446C11.5654 4.62779 11.66 4.5332 11.7767 4.5332C11.8934 4.5332 11.9879 4.62779 11.9879 4.74446V5.08248C11.9879 5.19916 11.8934 5.29374 11.7767 5.29374Z" fill="#424952"/>
</g>
<defs>
<clipPath id="clip0_1099_16622">
<rect width="14" height="14" fill="white" transform="translate(0 0.5)"/>
</clipPath>
</defs>
</svg>
