<svg width="20" height="21" viewBox="0 0 20 21" fill="none" xmlns="http://www.w3.org/2000/svg">
<path fill-rule="evenodd" clip-rule="evenodd" d="M12.4888 6.7939C12.4888 7.95302 11.479 8.89272 10.2332 8.89272C9.9562 8.89272 9.69079 8.8462 9.44561 8.76119L10.7914 10.2536C12.6029 10.0027 13.9925 8.54929 13.9925 6.7939C13.9925 4.86201 12.3094 3.2959 10.2332 3.2959C8.57502 3.2959 7.16759 4.29479 6.66805 5.68116L8.01457 7.17429C7.99029 7.05088 7.97758 6.92377 7.97758 6.7939C7.97758 5.63477 8.98749 4.6951 10.2332 4.6951C11.479 4.6951 12.4888 5.63477 12.4888 6.7939ZM7.99788 11.7835L3.17781 6.48056C2.90892 6.18474 2.94962 5.74191 3.26859 5.49287C3.58581 5.24519 4.05854 5.28281 4.32595 5.57701L15.7492 18.1445C16.0181 18.4404 15.9774 18.8831 15.6584 19.1322C15.3412 19.3799 14.8685 19.3423 14.601 19.048L13.4444 17.7756C12.9688 17.9133 12.463 17.9875 11.9386 17.9875H8.52772C5.73243 17.9875 3.46638 15.879 3.46638 13.278C3.46638 13.0036 3.62101 12.7514 3.89205 12.6431C4.51582 12.3939 5.84378 11.9697 7.99788 11.7835ZM12.3457 16.5668C12.2122 16.581 12.0763 16.5883 11.9386 16.5883H8.52772C6.73362 16.5883 5.24968 15.3525 5.00538 13.7459C5.77476 13.5055 7.14263 13.1914 9.2038 13.1102L12.3457 16.5668ZM12.1481 11.758L13.5584 13.3219C14.3964 13.4496 15.0248 13.6096 15.461 13.7459C15.3957 14.1757 15.2416 14.5789 15.0166 14.939L16.0251 16.0573C16.6381 15.2782 17 14.3175 17 13.278C17 13.0036 16.8453 12.7514 16.5744 12.6431C15.9202 12.3818 14.4917 11.928 12.1481 11.758Z" fill="#B9533D"/>
</svg>
