<svg width="24" height="16" viewBox="0 0 24 16" fill="none" xmlns="http://www.w3.org/2000/svg">
<rect x="0.833171" y="0.166667" width="23" height="15.6667" rx="1.16667" fill="#1F72CD" stroke="#D9D9D9" stroke-width="0.333333"/>
<path d="M7.56934 6.23438V5.66602H10.1025L10.6582 6.91309L11.2012 5.66602H17.5234L18.1641 6.40234L18.8525 5.66602H21.791L19.6641 8.09473L21.791 10.5029L18.8057 10.4971L18.1445 9.74707L17.4375 10.4971H11.626V9.89648L11.377 10.4971H9.93164L9.68262 9.90918V10.4971H6.8877L6.57324 9.72656H5.85352L5.53906 10.4971H3L5.12109 5.66602H7.28711L7.56934 6.23438ZM4.125 9.81836H5.0293L5.34863 9.04199H7.07812L7.39844 9.81836H9.08691V7.10254L10.29 9.81836H11.0244L12.2217 7.10254L12.2275 9.81836H13.0488V6.35254H11.7002L10.6982 8.70117L9.6123 6.35254H8.25586V9.62793L6.84961 6.35254H5.6123C5.59706 6.38808 4.125 9.81836 4.125 9.81836ZM13.7998 9.81641H17.085L18.1445 8.66895L19.165 9.81641H20.2324L18.6816 8.09473L20.2324 6.35254H19.2119L18.1582 7.4873L17.1367 6.35254H13.7998V9.81641ZM17.6152 8.08105L16.666 9.09863H14.624V8.4082H16.4443V7.70312H14.624V7.06934H16.7061L17.6152 8.08105ZM6.7832 8.32324H5.64453L6.21387 6.93848L6.7832 8.32324Z" fill="white"/>
</svg>
