<svg width="22" height="22" viewBox="0 0 22 22" fill="none" xmlns="http://www.w3.org/2000/svg">
<path fill-rule="evenodd" clip-rule="evenodd" d="M18.393 9.82507C18.296 9.42207 18.544 9.01707 18.946 8.92007C19.348 8.82207 19.754 9.07007 19.851 9.47307C20.032 10.2231 20.128 11.0061 20.128 11.8111C20.128 17.2961 15.675 21.7501 10.189 21.7501C4.704 21.7501 0.25 17.2961 0.25 11.8111C0.25 6.32507 4.704 1.87207 10.189 1.87207C10.994 1.87207 11.777 1.96807 12.527 2.14907C12.93 2.24607 13.178 2.65207 13.08 3.05407C12.983 3.45607 12.578 3.70407 12.175 3.60707C11.538 3.45307 10.873 3.37207 10.189 3.37207C5.531 3.37207 1.75 7.15307 1.75 11.8111C1.75 16.4691 5.531 20.2501 10.189 20.2501C14.847 20.2501 18.628 16.4691 18.628 11.8111C18.628 11.1271 18.547 10.4621 18.393 9.82507Z" fill="#1F1F1F"/>
<path fill-rule="evenodd" clip-rule="evenodd" d="M13.764 11.8113C13.764 11.3973 14.1 11.0613 14.514 11.0613C14.927 11.0613 15.264 11.3973 15.264 11.8113C15.264 14.6113 12.99 16.8853 10.189 16.8853C7.38899 16.8853 5.11499 14.6113 5.11499 11.8113C5.11499 9.01033 7.38899 6.73633 10.189 6.73633C10.603 6.73633 10.939 7.07333 10.939 7.48633C10.939 7.90033 10.603 8.23633 10.189 8.23633C8.21599 8.23633 6.61499 9.83833 6.61499 11.8113C6.61499 13.7843 8.21599 15.3853 10.189 15.3853C12.162 15.3853 13.764 13.7843 13.764 11.8113Z" fill="#1F1F1F"/>
<path fill-rule="evenodd" clip-rule="evenodd" d="M21.53 4.58816L18.473 7.64616C18.332 7.78716 18.141 7.86617 17.942 7.86617H14.884C14.47 7.86617 14.134 7.53017 14.134 7.11617V4.05816C14.134 3.85916 14.213 3.66816 14.354 3.52716L17.412 0.470164C17.596 0.286164 17.862 0.210164 18.115 0.270164C18.368 0.330164 18.572 0.516164 18.654 0.763164L19.3 2.70016L21.237 3.34616C21.484 3.42816 21.67 3.63216 21.73 3.88516C21.79 4.13816 21.714 4.40416 21.53 4.58816ZM19.612 4.38616L18.47 4.00516C18.246 3.93016 18.07 3.75416 17.995 3.53016L17.614 2.38816L15.634 4.36816V6.36617H17.632L19.612 4.38616Z" fill="#1F1F1F"/>
<path fill-rule="evenodd" clip-rule="evenodd" d="M14.3541 6.58498C14.6471 6.29198 15.1221 6.29198 15.4151 6.58498C15.7081 6.87798 15.7081 7.35298 15.4151 7.64598L10.8281 12.232C10.5351 12.525 10.0601 12.525 9.76809 12.232C9.47509 11.94 9.47509 11.465 9.76809 11.172L14.3541 6.58498Z" fill="#1F1F1F"/>
</svg>
