<svg width="16" height="10" viewBox="0 0 16 10" fill="none" xmlns="http://www.w3.org/2000/svg">
<path d="M11.1182 0.333984C13.6303 0.334159 15.6668 2.39422 15.667 4.93555C15.667 7.47705 13.6305 9.53791 11.1182 9.53809C9.99168 9.53809 8.96151 9.12258 8.16699 8.43652C7.37247 9.12258 6.3423 9.53809 5.21582 9.53809C2.70354 9.53789 0.666992 7.47704 0.666992 4.93555C0.667221 2.39425 2.70368 0.334177 5.21582 0.333984C6.3421 0.333984 7.37253 0.748736 8.16699 1.43457C8.96146 0.748716 9.99187 0.333984 11.1182 0.333984Z" fill="#ED0006"/>
<path d="M11.1182 0.333984C13.6303 0.334159 15.6668 2.39422 15.667 4.93555C15.667 7.47705 13.6305 9.53791 11.1182 9.53809C9.99168 9.53809 8.96151 9.12258 8.16699 8.43652C9.14455 7.59244 9.76562 6.33761 9.76562 4.93555C9.76551 3.53345 9.14468 2.27858 8.16699 1.43457C8.96146 0.748716 9.99186 0.333984 11.1182 0.333984Z" fill="#F9A000"/>
<path d="M8.1665 1.43555C9.14439 2.27956 9.76502 3.53426 9.76514 4.93652C9.76514 6.33876 9.14426 7.59341 8.1665 8.4375C7.18918 7.59342 6.56885 6.3384 6.56885 4.93652C6.56896 3.53462 7.18905 2.27955 8.1665 1.43555Z" fill="#FF5E00"/>
</svg>
