<svg width="24" height="16" viewBox="0 0 24 16" fill="none" xmlns="http://www.w3.org/2000/svg">
<rect x="0.166667" y="0.166667" width="23" height="15.6667" rx="1.16667" fill="white" stroke="#D9D9D9" stroke-width="0.333333"/>
<path d="M10 15.3333L22.6667 11.5V14.6667C22.6667 15.0349 22.3682 15.3333 22 15.3333H10Z" fill="#FD6020"/>
<path d="M10.1226 6.07355C10.3665 6.07355 10.6459 6.10997 10.855 6.25324V6.96906C10.6808 6.75415 10.4013 6.61164 10.1226 6.61164C9.56524 6.64766 9.11214 7.14903 9.14697 7.72199V7.79328C9.14703 8.3663 9.60028 8.79619 10.1577 8.79621C10.4365 8.79621 10.6808 8.65272 10.855 8.43781V9.15461C10.6112 9.26202 10.367 9.33326 10.0884 9.33332C9.21735 9.33332 8.52009 8.58124 8.52002 7.68586C8.52002 6.75472 9.21682 6.00215 10.1226 6.07355ZM15.5933 8.22297L16.4292 6.07355H17.0571L15.7671 9.33332H15.4536L14.1646 6.07355H14.7915L15.5933 8.22297ZM7.33545 6.00226C7.64904 6.00226 7.96264 6.14575 8.20654 6.36066L7.89307 6.79035C7.75369 6.64708 7.579 6.53937 7.40479 6.53937C7.19589 6.50383 7.02164 6.68299 6.98682 6.89777C6.98684 7.0768 7.09168 7.14811 7.43994 7.29132C8.1368 7.57787 8.31135 7.79315 8.34619 8.22297V8.33039C8.31135 8.90347 7.85778 9.333 7.30029 9.29718C6.88233 9.29708 6.46441 9.08259 6.25537 8.68879L6.63818 8.29425C6.74271 8.54498 6.98737 8.72492 7.26611 8.72492H7.30029C7.50927 8.72492 7.7181 8.5097 7.71826 8.2591C7.71826 8.11589 7.64889 8.00847 7.54443 7.93683C7.40507 7.8652 7.26583 7.79296 7.12646 7.75715C6.569 7.57806 6.39503 7.32756 6.39502 6.89777V6.86164C6.43 6.36032 6.84774 5.96645 7.33545 6.00226ZM3.71143 6.07355C4.54739 6.10936 5.20967 6.82562 5.17529 7.68488C5.17529 8.15043 4.966 8.58129 4.61768 8.90363C4.30413 9.15423 3.92077 9.29686 3.5376 9.26105H2.6665V6.07355H3.71143ZM6.01123 9.26203H5.41943V6.07355H6.01123V9.26203ZM19.0083 6.61164H17.9282V7.32746H18.9731V7.86457H17.9282V8.72492H19.0083V9.26203H17.3354V6.07355H19.0083V6.61164ZM20.2622 6.07355C20.9589 6.07356 21.3421 6.39652 21.3423 7.00519C21.3769 7.47067 21.063 7.86424 20.645 7.93586L21.5864 9.26105H20.855L20.0532 7.97199H19.9839V9.26105H19.3911V6.07355H20.2622ZM3.43311 6.61066H3.25928V8.72394H3.43311C3.71184 8.75974 4.02582 8.65204 4.23486 8.47297C4.44348 8.25815 4.54832 7.97171 4.54834 7.64972C4.54825 7.3634 4.44369 7.07643 4.23486 6.86164C4.02585 6.68267 3.71174 6.57492 3.43311 6.61066ZM19.9839 7.5423H20.1577C20.5409 7.54228 20.7153 7.36269 20.7153 7.04035C20.715 6.75422 20.5406 6.57552 20.1577 6.5755H19.9839V7.5423Z" fill="black"/>
<path fill-rule="evenodd" clip-rule="evenodd" d="M12.6316 6C11.7605 6 11.0288 6.71636 11.0288 7.64763C11.0288 8.54308 11.7257 9.29525 12.6316 9.33107C13.5375 9.36689 14.2344 8.61471 14.2692 7.68344C14.2344 6.75218 13.5375 6 12.6316 6V6Z" fill="#FD6020"/>
</svg>
