<svg width="24" height="24" viewBox="0 0 24 24" fill="none" xmlns="http://www.w3.org/2000/svg">
<path d="M23.7327 8.81075C23.4459 8.40655 22.9627 8.17468 22.4069 8.17468H20.2916V5.87425C20.2916 4.98771 19.5703 4.26647 18.6838 4.26647H11.2687C10.9532 4.26647 10.4609 4.01653 10.2748 3.76189L9.71986 3.00275C9.28689 2.41057 8.40722 1.96387 7.67355 1.96387H5.10414C4.29651 1.96387 3.48428 2.53815 3.21495 3.2998L3.03827 3.79969C2.95501 4.03521 2.62798 4.26647 2.37813 4.26647H1.60778C0.721242 4.26647 0 4.98771 0 5.87425V20.3938C0 20.4707 0.013992 20.5442 0.0384998 20.6127C0.0517097 20.9001 0.14105 21.171 0.303827 21.4005C0.590621 21.8048 1.07382 22.0365 1.62959 22.0365H18.0104C19.0007 22.0365 20.0327 21.3044 20.3599 20.3697L23.895 10.2722C24.0786 9.7477 24.0195 9.21505 23.7327 8.81075ZM1.60778 5.57008H2.37813C3.18593 5.57008 3.99807 4.99579 4.26731 4.23414L4.44391 3.73443C4.52725 3.49882 4.85428 3.26756 5.10414 3.26756H7.67346C7.98893 3.26756 8.48126 3.51751 8.66742 3.77214L9.22241 4.53119C9.65538 5.12346 10.5351 5.57008 11.2687 5.57008H18.6838C18.8488 5.57008 18.988 5.70939 18.988 5.87425V8.17468H6.02614C5.03583 8.17468 4.00381 8.90679 3.6766 9.84147L1.30361 16.6196V5.87425C1.30361 5.70939 1.44292 5.57008 1.60778 5.57008ZM22.6646 9.84147L19.1295 19.939C18.984 20.3545 18.4505 20.7329 18.0104 20.7329H1.62959C1.50375 20.7329 1.40564 20.7005 1.36714 20.6462C1.32864 20.5919 1.33037 20.4885 1.372 20.3697L4.90712 10.2722C5.0526 9.85668 5.58604 9.47829 6.02622 9.47829H22.407C22.5328 9.47829 22.631 9.5107 22.6695 9.56502C22.708 9.61934 22.7062 9.72267 22.6646 9.84147Z" fill="#1F1F1F"/>
</svg>
