<svg width="24" height="24" viewBox="0 0 24 24" fill="none" xmlns="http://www.w3.org/2000/svg">
<g clip-path="url(#clip0_384_4843)">
<path d="M21.6001 7.2H16.8001C16.5898 7.2 16.3879 7.23638 16.2001 7.30294V1.8C16.2001 0.807469 15.3926 0 14.4001 0H9.6001C8.60757 0 7.8001 0.807469 7.8001 1.8V13.3029C7.61232 13.2364 7.41038 13.2 7.2001 13.2H2.4001C1.40757 13.2 0.600098 14.0075 0.600098 15V23.4C0.600098 23.7314 0.868738 24 1.2001 24H22.8001C23.1315 24 23.4001 23.7314 23.4001 23.4V9C23.4001 8.00747 22.5926 7.2 21.6001 7.2ZM1.8001 15C1.8001 14.6692 2.06925 14.4 2.4001 14.4H7.2001C7.53094 14.4 7.8001 14.6692 7.8001 15V22.8H1.8001V15ZM9.0001 1.8C9.0001 1.46916 9.26925 1.2 9.6001 1.2H14.4001C14.7309 1.2 15.0001 1.46916 15.0001 1.8V22.8H9.0001V1.8ZM22.2001 22.8H16.2001V9C16.2001 8.66916 16.4693 8.4 16.8001 8.4H21.6001C21.9309 8.4 22.2001 8.66916 22.2001 9V22.8Z" fill="#ECA939"/>
</g>
<defs>
<clipPath id="clip0_384_4843">
<rect width="24" height="24" fill="white"/>
</clipPath>
</defs>
</svg>
