<svg width="24" height="24" viewBox="0 0 24 24" fill="none" xmlns="http://www.w3.org/2000/svg">
<g clip-path="url(#clip0_384_4836)">
<path d="M10.0888 22.7808H13.911L13.3249 24H10.6753L10.0888 22.7808ZM17.668 11.6165C17.668 13.5595 16.4689 15.2626 15.3092 16.9094C15.2152 17.0429 15.122 17.1754 15.0304 17.3074C14.9934 17.3045 14.9555 17.3026 14.9166 17.3026H9.08363C9.05243 17.3026 9.02171 17.304 8.99147 17.3059C8.88203 17.1494 8.77115 16.992 8.66219 16.8379C7.51691 15.2189 6.33227 13.5442 6.33227 11.6165C6.33227 8.4912 8.87483 5.94864 12.0001 5.94864C15.1254 5.94864 17.668 8.4912 17.668 11.6165ZM13.1646 14.2723C13.1646 14.0813 13.01 13.9267 12.819 13.9267H11.1376C10.9465 13.9267 10.792 14.0813 10.792 14.2723V15.9538C10.792 16.1448 10.9465 16.2994 11.1376 16.2994H12.819C13.01 16.2994 13.1646 16.1448 13.1646 15.9538V14.2723ZM13.2347 7.86048C13.1689 7.788 13.0758 7.74672 12.9784 7.74672H10.9787C10.8808 7.74672 10.7876 7.788 10.7224 7.86048C10.6566 7.93296 10.6249 8.02992 10.635 8.12736L11.1347 13.0349C11.1524 13.2115 11.3012 13.3454 11.4784 13.3454H12.4782C12.6553 13.3454 12.8041 13.211 12.8219 13.0349L13.3216 8.12736C13.3321 8.02992 13.3004 7.93296 13.2347 7.86048ZM14.9166 19.5893H9.08363C8.65931 19.5893 8.63771 19.9661 8.63771 20.0414C8.63771 20.1115 8.65691 20.4422 9.00155 20.4878C9.02843 20.4864 9.05579 20.485 9.08363 20.485H14.9171C14.9449 20.485 14.9723 20.4859 14.9992 20.4878C15.3438 20.4422 15.363 20.1115 15.363 20.0414C15.3625 19.9661 15.3409 19.5893 14.9166 19.5893ZM14.9982 21.1824C14.9713 21.1838 14.9444 21.1848 14.9166 21.1848V21.1766H9.08363V21.1848C9.05579 21.1848 9.02891 21.1838 9.00203 21.1824C8.64875 21.2304 8.63771 21.5894 8.63771 21.6331C8.63771 21.6797 8.65019 22.0896 9.08363 22.0896H14.9171C15.3505 22.0896 15.363 21.6802 15.363 21.6331C15.3625 21.5894 15.3515 21.2309 14.9982 21.1824ZM11.7908 12.6542H12.1662L12.5958 8.43792H11.3617L11.7908 12.6542ZM14.9166 17.9938H9.08363C8.65931 17.9938 8.63771 18.3706 8.63771 18.4459C8.63771 18.5213 8.65931 18.8981 9.08363 18.8981H14.9171C15.3414 18.8981 15.363 18.5213 15.363 18.4459C15.3625 18.3706 15.3409 17.9938 14.9166 17.9938ZM11.4836 15.6082H12.4734V14.6184H11.4836V15.6082ZM23.2801 11.28H20.8614C20.6704 11.28 20.5158 11.4346 20.5158 11.6256C20.5158 11.8166 20.6704 11.9712 20.8614 11.9712H23.2801C23.4712 11.9712 23.6257 11.8166 23.6257 11.6256C23.6257 11.4346 23.4707 11.28 23.2801 11.28ZM19.732 3.40512L18.0217 5.11536C17.8868 5.25024 17.8868 5.46912 18.0217 5.604C18.0894 5.67168 18.1777 5.70528 18.266 5.70528C18.3544 5.70528 18.4432 5.67168 18.5104 5.604L20.2206 3.89376C20.3555 3.75888 20.3555 3.54 20.2206 3.40512C20.0857 3.27024 19.8668 3.27024 19.732 3.40512ZM12.0001 3.10992C12.1912 3.10992 12.3457 2.95536 12.3457 2.76432V0.3456C12.3457 0.15456 12.1912 0 12.0001 0C11.8091 0 11.6545 0.15456 11.6545 0.3456V2.76432C11.6545 2.95536 11.8091 3.10992 12.0001 3.10992ZM4.26827 3.40512C4.13339 3.27024 3.91451 3.27024 3.77963 3.40512C3.64475 3.54 3.64475 3.75888 3.77963 3.89376L5.48987 5.604C5.55755 5.67168 5.64587 5.70528 5.73419 5.70528C5.82251 5.70528 5.91131 5.67168 5.97851 5.604C6.11339 5.46912 6.11339 5.25024 5.97851 5.11536L4.26827 3.40512ZM3.13883 11.28H0.720112C0.529072 11.28 0.374512 11.4346 0.374512 11.6256C0.374512 11.8166 0.529072 11.9712 0.720112 11.9712H3.13883C3.32987 11.9712 3.48443 11.8166 3.48443 11.6256C3.48443 11.4346 3.32987 11.28 3.13883 11.28Z" fill="#FBB040"/>
</g>
<defs>
<clipPath id="clip0_384_4836">
<rect width="24" height="24" fill="white"/>
</clipPath>
</defs>
</svg>
