<svg width="24" height="24" viewBox="0 0 24 24" fill="none" xmlns="http://www.w3.org/2000/svg">
<path d="M16.2188 12.75V7.03125C16.2188 4.70489 14.3264 2.8125 12 2.8125C9.67364 2.8125 7.78125 4.70489 7.78125 7.03125V12.75H4.96875V7.03125C4.96875 3.15445 8.1232 0 12 0C15.8768 0 19.0312 3.15445 19.0312 7.03125V12.75H16.2188Z" fill="#C4CAD9"/>
<path d="M16.2188 7.03125V12.75H19.0312V7.03125C19.0312 3.15445 15.8768 0 12 0V2.8125C14.3264 2.8125 16.2188 4.70489 16.2188 7.03125Z" fill="#BBC2CD"/>
<path d="M19.0312 24H4.96875C3.80559 24 2.85938 23.0538 2.85938 21.8906V13.4531C2.85938 12.29 3.80559 11.3438 4.96875 11.3438H19.0312C20.1944 11.3438 21.1406 12.29 21.1406 13.4531V21.8906C21.1406 23.0538 20.1944 24 19.0312 24Z" fill="#FCB33B"/>
<path d="M19.0312 11.3438H12V24H19.0312C20.1944 24 21.1406 23.0538 21.1406 21.8906V13.4531C21.1406 12.29 20.1944 11.3438 19.0312 11.3438Z" fill="#F69838"/>
<path d="M14.1094 16.2656C14.1094 15.1025 13.1632 14.1562 12 14.1562C10.8368 14.1562 9.89062 15.1025 9.89062 16.2656C9.89062 17.1816 10.4801 17.9548 11.2969 18.2459V20.4844C11.2969 20.873 11.6114 21.1875 12 21.1875C12.3886 21.1875 12.7031 20.873 12.7031 20.4844V18.2459C13.5199 17.9548 14.1094 17.1816 14.1094 16.2656Z" fill="#5C5F66"/>
<path d="M12.7031 20.4844V18.2459C13.5199 17.9548 14.1094 17.1816 14.1094 16.2656C14.1094 15.1025 13.1632 14.1562 12 14.1562V21.1875C12.3886 21.1875 12.7031 20.873 12.7031 20.4844Z" fill="#53565C"/>
</svg>
