<svg width="24" height="24" viewBox="0 0 24 24" fill="none" xmlns="http://www.w3.org/2000/svg">
<path d="M23.7422 11.2547C23.5593 13.6829 22.3593 15.5391 20.2922 16.8235C18.9562 17.6532 17.4797 17.925 16.1156 17.8594C15.5297 17.8594 15.1359 17.8688 14.7422 17.8594C14.4609 17.85 14.2359 17.9344 14.1093 18.1969C13.9828 18.4594 14.0718 18.6704 14.2453 18.886C14.9015 19.6875 15.1312 20.6016 14.8265 21.5954C14.4093 22.9407 13.2515 23.7469 11.8125 23.7C7.2609 23.5266 3.83903 21.4547 1.62653 17.4844C0.314029 15.1266 -0.0469083 12.5672 0.445279 9.90941C1.04528 6.69847 2.70934 4.16254 5.39528 2.32035C7.42965 0.928162 9.70309 0.290662 12.1734 0.314099C13.9687 0.332849 15.6843 0.684412 17.3109 1.4391C19.4297 2.42347 21.1968 3.83441 22.4015 5.87348C23.3718 7.53285 23.8828 9.33285 23.7422 11.2547Z" fill="#FFEFAE"/>
<path d="M8.07656 20.1531C9.22342 20.1531 10.1531 19.2234 10.1531 18.0766C10.1531 16.9297 9.22342 16 8.07656 16C6.92971 16 6 16.9297 6 18.0766C6 19.2234 6.92971 20.1531 8.07656 20.1531Z" fill="url(#paint0_linear_382_4620)"/>
<path d="M6.07656 13.1531C7.22342 13.1531 8.15312 12.2234 8.15312 11.0766C8.15312 9.92971 7.22342 9 6.07656 9C4.92971 9 4 9.92971 4 11.0766C4 12.2234 4.92971 13.1531 6.07656 13.1531Z" fill="url(#paint1_linear_382_4620)"/>
<path d="M11.0766 8.15313C12.2234 8.15313 13.1531 7.22342 13.1531 6.07656C13.1531 4.92971 12.2234 4 11.0766 4C9.92971 4 9 4.92971 9 6.07656C9 7.22342 9.92971 8.15313 11.0766 8.15313Z" fill="url(#paint2_linear_382_4620)"/>
<path d="M18.0766 10.1531C19.2234 10.1531 20.1531 9.22342 20.1531 8.07656C20.1531 6.92971 19.2234 6 18.0766 6C16.9297 6 16 6.92971 16 8.07656C16 9.22342 16.9297 10.1531 18.0766 10.1531Z" fill="url(#paint3_linear_382_4620)"/>
<defs>
<linearGradient id="paint0_linear_382_4620" x1="8.07609" y1="15.9998" x2="8.07609" y2="20.1491" gradientUnits="userSpaceOnUse">
<stop stop-color="#FC5656"/>
<stop offset="1" stop-color="#F73939"/>
</linearGradient>
<linearGradient id="paint1_linear_382_4620" x1="6.07656" y1="9.0007" x2="6.07656" y2="13.1501" gradientUnits="userSpaceOnUse">
<stop stop-color="#FFDD00"/>
<stop offset="1" stop-color="#FFBB17"/>
</linearGradient>
<linearGradient id="paint2_linear_382_4620" x1="11.0752" y1="3.99977" x2="11.0752" y2="8.14914" gradientUnits="userSpaceOnUse">
<stop stop-color="#346CEF"/>
<stop offset="1" stop-color="#1833E3"/>
</linearGradient>
<linearGradient id="paint3_linear_382_4620" x1="18.0747" y1="6.0007" x2="18.0747" y2="10.1501" gradientUnits="userSpaceOnUse">
<stop stop-color="#00DA9F"/>
<stop offset="1" stop-color="#2CFFB3"/>
</linearGradient>
</defs>
</svg>
