<svg width="20" height="21" viewBox="0 0 20 21" fill="none" xmlns="http://www.w3.org/2000/svg">
<g clip-path="url(#clip0_1280_4334)">
<path d="M10.0456 3.60619H12.3759L11.4933 4.49029C11.2648 4.71932 11.2651 5.09026 11.4941 5.31899C11.7227 5.54711 12.0938 5.54757 12.3227 5.31823L14.2022 3.43545C14.434 3.20336 14.431 2.82204 14.1888 2.59408L12.3227 0.72472C12.0941 0.495686 11.7231 0.495381 11.4941 0.723957C11.2651 0.952687 11.2648 1.32363 11.4933 1.55266L12.3735 2.43432C9.71829 2.43432 10.0494 2.43416 10.0204 2.43416C3.8261 2.43416 -0.105783 9.17565 3.0003 14.5944C3.16113 14.875 3.51894 14.9723 3.80001 14.8113C4.08077 14.6504 4.17782 14.2924 4.01699 14.0116C1.3438 9.34823 4.76559 3.57964 10.0456 3.60619Z" fill="#B9533D"/>
<path d="M17.0566 6.51139C16.8958 6.23078 16.5376 6.13358 16.2569 6.29441C15.9761 6.45539 15.8791 6.81351 16.0401 7.09427C18.693 11.7223 15.3447 17.4997 10.0286 17.4997H7.68098L8.56355 16.6156C8.79228 16.3866 8.79198 16.0156 8.56294 15.7869C8.33391 15.5583 7.96281 15.5586 7.73424 15.7877L5.85466 17.6705C5.62486 17.9006 5.62364 18.2825 5.86885 18.5126L7.73424 20.3812C7.96281 20.6101 8.33376 20.6107 8.56294 20.3819C8.79198 20.1532 8.79228 19.7823 8.56371 19.5532L7.68358 18.6716H10.0359C16.2334 18.6714 20.1621 11.929 17.0566 6.51139Z" fill="#B9533D"/>
<path d="M9.44263 8.79492H11.7864C12.1099 8.79492 12.3723 8.53247 12.3723 8.20899C12.3723 7.88535 12.1099 7.62305 11.7864 7.62305H10.6145V7.03711C10.6145 6.71347 10.3521 6.45117 10.0286 6.45117C9.70493 6.45117 9.44263 6.71347 9.44263 7.03711V7.62305C8.47324 7.62305 7.68481 8.41162 7.68481 9.38086C7.68481 10.3501 8.47324 11.1387 9.44263 11.1387H10.6144C10.9375 11.1387 11.2004 11.4014 11.2004 11.7246C11.2004 12.0478 10.9391 12.3107 10.6144 12.3107C10.0089 12.3107 10.0286 12.3106 10.0286 12.3106C10.0277 12.3106 10.0267 12.3107 10.0258 12.3107C10.0031 12.3107 8.25763 12.3106 8.27075 12.3106C7.94711 12.3106 7.68481 12.5728 7.68481 12.8963C7.68466 13.22 7.94696 13.4823 8.2706 13.4824H9.44263V14.0684C9.44263 14.3919 9.70493 14.6543 10.0286 14.6543C10.3521 14.6543 10.6145 14.3919 10.6145 14.0684V13.4826C11.5859 13.4826 12.3723 12.6966 12.3723 11.7246C12.3723 10.7554 11.5836 9.9668 10.6144 9.9668H9.44263C9.11945 9.9668 8.85669 9.70389 8.85669 9.38086C8.85669 9.05768 9.11945 8.79492 9.44263 8.79492Z" fill="#B9533D"/>
</g>
<defs>
<clipPath id="clip0_1280_4334">
<rect width="20" height="20" fill="white" transform="translate(0 0.591797)"/>
</clipPath>
</defs>
</svg>
