<svg width="25" height="24" viewBox="0 0 25 24" fill="none" xmlns="http://www.w3.org/2000/svg">
<path d="M20.9844 6.04688H20.3281V3.51562C20.3281 1.57711 18.751 0 16.8125 0H8.1875C6.24898 0 4.67188 1.57711 4.67188 3.51562V6.04688H4.01562C2.07711 6.04688 0.5 7.62398 0.5 9.5625V15.1875C0.5 17.126 2.07711 18.7031 4.01562 18.7031H4.67188V21.8906C4.67188 23.0537 5.61814 24 6.78125 24H18.2188C19.3819 24 20.3281 23.0537 20.3281 21.8906V18.7031H20.9844C22.9229 18.7031 24.5 17.126 24.5 15.1875V9.5625C24.5 7.62398 22.9229 6.04688 20.9844 6.04688ZM6.07812 3.51562C6.07812 2.35252 7.02439 1.40625 8.1875 1.40625H16.8125C17.9756 1.40625 18.9219 2.35252 18.9219 3.51562V6.04688H6.07812V3.51562ZM18.9219 21.8906C18.9219 22.2783 18.6065 22.5938 18.2188 22.5938H6.78125C6.39355 22.5938 6.07812 22.2783 6.07812 21.8906V14.9531H18.9219V21.8906ZM23.0938 15.1875C23.0938 16.3506 22.1475 17.2969 20.9844 17.2969H20.3281V14.9531H20.75C21.1383 14.9531 21.4531 14.6383 21.4531 14.25C21.4531 13.8617 21.1383 13.5469 20.75 13.5469H4.25C3.86169 13.5469 3.54688 13.8617 3.54688 14.25C3.54688 14.6383 3.86169 14.9531 4.25 14.9531H4.67188V17.2969H4.01562C2.85252 17.2969 1.90625 16.3506 1.90625 15.1875V9.5625C1.90625 8.39939 2.85252 7.45312 4.01562 7.45312H20.9844C22.1475 7.45312 23.0938 8.39939 23.0938 9.5625V15.1875Z" fill="#1F1F1F"/>
<path d="M14.375 16.5469H10.625C10.2367 16.5469 9.92188 16.8617 9.92188 17.25C9.92188 17.6383 10.2367 17.9531 10.625 17.9531H14.375C14.7633 17.9531 15.0781 17.6383 15.0781 17.25C15.0781 16.8617 14.7633 16.5469 14.375 16.5469Z" fill="#1F1F1F"/>
<path d="M14.375 19.5469H10.625C10.2367 19.5469 9.92188 19.8617 9.92188 20.25C9.92188 20.6383 10.2367 20.9531 10.625 20.9531H14.375C14.7633 20.9531 15.0781 20.6383 15.0781 20.25C15.0781 19.8617 14.7633 19.5469 14.375 19.5469Z" fill="#1F1F1F"/>
<path d="M6.5 9.04688H4.25C3.86169 9.04688 3.54688 9.36169 3.54688 9.75C3.54688 10.1383 3.86169 10.4531 4.25 10.4531H6.5C6.88831 10.4531 7.20312 10.1383 7.20312 9.75C7.20312 9.36169 6.88831 9.04688 6.5 9.04688Z" fill="#1F1F1F"/>
</svg>
