<svg width="24" height="24" viewBox="0 0 24 24" fill="none" xmlns="http://www.w3.org/2000/svg">
<g clip-path="url(#clip0_382_4588)">
<path fill-rule="evenodd" clip-rule="evenodd" d="M15.8594 14.9873C11.4728 14.9873 7.9297 11.4302 7.9297 7.05762C7.9297 11.4302 4.37258 14.9873 0 14.9873C4.37258 14.9873 7.9297 18.5304 7.9297 22.903C7.9297 18.5304 11.4728 14.9873 15.8594 14.9873Z" fill="#FFD93B"/>
<path fill-rule="evenodd" clip-rule="evenodd" d="M24 19.0788C21.5957 19.0788 19.6555 17.1245 19.6555 14.7344C19.6555 17.1245 17.7012 19.0788 15.311 19.0788C17.7012 19.0788 19.6555 21.0191 19.6555 23.4233C19.6555 21.0191 21.5957 19.0788 24 19.0788Z" fill="#FFB030"/>
<path fill-rule="evenodd" clip-rule="evenodd" d="M21.4973 5.86264C18.5728 5.86264 16.2108 3.5006 16.2108 0.576172C16.2108 3.5006 13.8487 5.86264 10.9243 5.86264C13.8487 5.86264 16.2108 8.22468 16.2108 11.1491C16.2108 8.22468 18.5728 5.86264 21.4973 5.86264Z" fill="#FFB030"/>
</g>
<defs>
<clipPath id="clip0_382_4588">
<rect width="24" height="24" fill="white"/>
</clipPath>
</defs>
</svg>
