<svg width="25" height="24" viewBox="0 0 25 24" fill="none" xmlns="http://www.w3.org/2000/svg">
<path d="M19.25 21.75H5.75C5.336 21.75 5 21.414 5 21C5 20.586 5.336 20.25 5.75 20.25H19.25C19.664 20.25 20 20.586 20 21C20 21.414 19.664 21.75 19.25 21.75Z" fill="#1F1F1F"/>
<path d="M17.75 18C17.336 18 17.0004 17.6647 17 17.2511C16.997 15.1965 14.9195 14.0123 12.9721 13.0639C12.7134 12.9379 12.4385 12.8096 12.1543 12.6776C9.77 11.5665 6.50488 10.0448 6.5 6.75113C6.49963 6.33713 6.83488 6.00075 7.24888 6H7.25C7.66363 6 7.99963 6.33525 8 6.74887C8.00338 9.08812 10.5455 10.2724 12.788 11.3179C13.0801 11.454 13.3629 11.586 13.6291 11.7158C15.3301 12.5441 18.4959 14.0858 18.5004 17.2493C18.5007 17.6632 18.1655 17.9996 17.7515 18.0004C17.7508 18 17.7504 18 17.75 18Z" fill="#1F1F1F"/>
<path d="M7.25 18C7.24963 18 7.24925 18 7.24888 18C6.83488 17.9993 6.49925 17.6633 6.5 17.2489C6.50488 13.9553 9.77 12.4335 12.1543 11.3224C12.4385 11.19 12.7134 11.0621 12.9721 10.9361C14.9195 9.98775 16.997 8.80387 17 6.74887C17.0004 6.33525 17.3364 6 17.75 6H17.7511C18.1651 6.00075 18.5008 6.33675 18.5 6.75113C18.4955 9.91463 15.3298 11.4562 13.6288 12.2846C13.3625 12.4144 13.0801 12.546 12.7876 12.6825C10.5455 13.7273 8.00338 14.9119 8 17.2511C7.99963 17.6647 7.66363 18 7.25 18Z" fill="#1F1F1F"/>
<path d="M17.75 21.75C17.336 21.75 17 21.414 17 21V17.25C17 16.836 17.336 16.5 17.75 16.5C18.164 16.5 18.5 16.836 18.5 17.25V21C18.5 21.414 18.164 21.75 17.75 21.75Z" fill="#1F1F1F"/>
<path d="M7.25 21.75C6.836 21.75 6.5 21.414 6.5 21V17.25C6.5 16.836 6.836 16.5 7.25 16.5C7.664 16.5 8 16.836 8 17.25V21C8 21.414 7.664 21.75 7.25 21.75Z" fill="#1F1F1F"/>
<path d="M17.75 7.5C17.336 7.5 17 7.164 17 6.75V3C17 2.586 17.336 2.25 17.75 2.25C18.164 2.25 18.5 2.586 18.5 3V6.75C18.5 7.164 18.164 7.5 17.75 7.5Z" fill="#1F1F1F"/>
<path d="M7.25 7.5C6.836 7.5 6.5 7.164 6.5 6.75V3C6.5 2.586 6.836 2.25 7.25 2.25C7.664 2.25 8 2.586 8 3V6.75C8 7.164 7.664 7.5 7.25 7.5Z" fill="#1F1F1F"/>
<path d="M19.25 3.75H5.75C5.336 3.75 5 3.414 5 3C5 2.586 5.336 2.25 5.75 2.25H19.25C19.664 2.25 20 2.586 20 3C20 3.414 19.664 3.75 19.25 3.75Z" fill="#1F1F1F"/>
</svg>
