<svg width="24" height="24" viewBox="0 0 24 24" fill="none" xmlns="http://www.w3.org/2000/svg">
<path d="M19.8491 16.7582V22.1375C19.8478 22.594 19.478 22.9637 19.0216 22.9651H4.95259C4.49609 22.9637 4.12636 22.594 4.125 22.1375V6.82715H19.8491V16.7582Z" fill="#F5EFCA"/>
<path d="M14.0564 20.8959H6.60813C6.3796 20.8959 6.19434 20.7107 6.19434 20.4822C6.19434 20.2536 6.3796 20.0684 6.60813 20.0684H14.0564C14.2849 20.0684 14.4702 20.2536 14.4702 20.4822C14.4702 20.7107 14.2849 20.8959 14.0564 20.8959Z" fill="#CBB292"/>
<path d="M16.0633 10.5512H6.60813C6.3796 10.5512 6.19434 10.366 6.19434 10.1374C6.19434 9.90889 6.3796 9.72363 6.60813 9.72363H16.0633C16.2918 9.72363 16.4771 9.90889 16.4771 10.1374C16.4771 10.366 16.2918 10.5512 16.0633 10.5512Z" fill="#CBB292"/>
<path d="M13.0716 12.6206H6.60813C6.3796 12.6206 6.19434 12.4353 6.19434 12.2068C6.19434 11.9782 6.3796 11.793 6.60813 11.793H13.0716C13.3001 11.793 13.4854 11.9782 13.4854 12.2068C13.4854 12.4353 13.3001 12.6206 13.0716 12.6206Z" fill="#CBB292"/>
<path d="M10.9819 14.6889H6.60813C6.3796 14.6889 6.19434 14.5037 6.19434 14.2751C6.19434 14.0466 6.3796 13.8613 6.60813 13.8613H10.9819C11.2105 13.8613 11.3957 14.0466 11.3957 14.2751C11.3957 14.5037 11.2105 14.6889 10.9819 14.6889Z" fill="#CBB292"/>
<path d="M9.57089 16.7583H6.60813C6.3796 16.7583 6.19434 16.573 6.19434 16.3445C6.19434 16.1159 6.3796 15.9307 6.60813 15.9307H9.57089C9.79942 15.9307 9.98468 16.1159 9.98468 16.3445C9.98468 16.573 9.79942 16.7583 9.57089 16.7583Z" fill="#CBB292"/>
<path d="M8.61089 18.8266H6.60813C6.3796 18.8266 6.19434 18.6413 6.19434 18.4128C6.19434 18.1843 6.3796 17.999 6.60813 17.999H8.61089C8.83942 17.999 9.02468 18.1843 9.02468 18.4128C9.02468 18.6413 8.83942 18.8266 8.61089 18.8266Z" fill="#CBB292"/>
<path d="M18.194 3.5166C19.1081 3.5166 19.8491 4.25765 19.8491 5.17177V7.65453H4.125V5.17177C4.125 4.25765 4.86605 3.5166 5.78017 3.5166H18.194Z" fill="#FF5364"/>
<path d="M17.7802 21.3102H16.5388C16.3103 21.3102 16.125 21.1249 16.125 20.8964C16.125 20.6679 16.3103 20.4826 16.5388 20.4826H17.3664V19.655C17.3664 19.4265 17.5516 19.2412 17.7802 19.2412C18.0087 19.2412 18.194 19.4265 18.194 19.655V20.8964C18.194 21.1249 18.0087 21.3102 17.7802 21.3102Z" fill="#CBB292"/>
<path d="M18.1941 3.51694C18.1941 4.90728 17.4659 5.9997 16.539 5.9997C16.3104 5.9997 16.1252 5.81444 16.1252 5.5859C16.1252 5.35737 16.3104 5.17211 16.539 5.17211C16.9279 5.17211 17.3665 4.46452 17.3665 3.51694C17.3665 2.56935 16.9279 1.86177 16.539 1.86177C16.15 1.86177 15.7114 2.56935 15.7114 3.51694H14.8838C14.8838 2.12659 15.6121 1.03418 16.539 1.03418C17.4659 1.03418 18.1941 2.12659 18.1941 3.51694Z" fill="#BDC3C7"/>
<path d="M13.6424 3.51694C13.6424 4.90728 12.9141 5.9997 11.9872 5.9997C11.7587 5.9997 11.5734 5.81444 11.5734 5.5859C11.5734 5.35737 11.7587 5.17211 11.9872 5.17211C12.3762 5.17211 12.8148 4.46452 12.8148 3.51694C12.8148 2.56935 12.3762 1.86177 11.9872 1.86177C11.5982 1.86177 11.1596 2.56935 11.1596 3.51694H10.332C10.332 2.12659 11.0603 1.03418 11.9872 1.03418C12.9141 1.03418 13.6424 2.12659 13.6424 3.51694Z" fill="#BDC3C7"/>
<path d="M9.09062 3.51694C9.09062 4.90728 8.36234 5.9997 7.43545 5.9997C7.20691 5.9997 7.02165 5.81444 7.02165 5.5859C7.02165 5.35737 7.20691 5.17211 7.43545 5.17211C7.82441 5.17211 8.26303 4.46452 8.26303 3.51694C8.26303 2.56935 7.82441 1.86177 7.43545 1.86177C7.04648 1.86177 6.60786 2.56935 6.60786 3.51694H5.78027C5.78027 2.12659 6.50855 1.03418 7.43545 1.03418C8.36234 1.03418 9.09062 2.12659 9.09062 3.51694Z" fill="#BDC3C7"/>
</svg>
