<svg width="25" height="24" viewBox="0 0 25 24" fill="none" xmlns="http://www.w3.org/2000/svg">
<g clip-path="url(#clip0_388_6104)">
<path d="M17.3582 16.2002H8.00586C7.59167 16.2002 7.25586 16.5358 7.25586 16.9502V23.2499C7.25586 23.6641 7.59167 23.9999 8.00586 23.9999H17.3582C17.7724 23.9999 18.1082 23.6641 18.1082 23.2499V16.9502C18.1081 16.5358 17.7724 16.2002 17.3582 16.2002Z" fill="#F47F17"/>
<path d="M17.3584 16.2002H15.5303C15.9445 16.2002 16.2803 16.5358 16.2803 16.9502V23.2499C16.2803 23.6641 15.9445 23.9999 15.5303 23.9999H17.3584C17.7726 23.9999 18.1084 23.6641 18.1084 23.2499V16.9502C18.1084 16.5358 17.7726 16.2002 17.3584 16.2002Z" fill="#FE6F00"/>
<path d="M12.7295 13.3181C12.3153 13.3181 11.9795 12.9824 11.9795 12.5681V6.32715C11.9795 5.91291 12.3153 5.57715 12.7295 5.57715C13.1437 5.57715 13.4795 5.91291 13.4795 6.32715V12.5681C13.4795 12.9824 13.1437 13.3181 12.7295 13.3181Z" fill="#4CAE50"/>
<path d="M18.7542 12.0957H6.60938C6.19519 12.0957 5.85938 12.4313 5.85938 12.8457V16.8722C5.85938 17.2865 6.19519 17.6222 6.60938 17.6222H18.7542C19.1684 17.6222 19.5042 17.2865 19.5042 16.8722V12.8457C19.5042 12.4313 19.1684 12.0957 18.7542 12.0957Z" fill="#F34336"/>
<path d="M18.7549 12.0957H16.0361C16.4503 12.0957 16.7861 12.4313 16.7861 12.8457V16.8722C16.7861 17.2865 16.4503 17.6222 16.0361 17.6222H18.7549C19.1691 17.6222 19.5049 17.2865 19.5049 16.8722V12.8457C19.5049 12.4313 19.1691 12.0957 18.7549 12.0957Z" fill="#D22F2F"/>
<path d="M19.4645 0.738469C19.458 0.331031 19.1277 0.00314063 18.7201 0C18.5502 0.00075 14.4396 -0.0102657 12.5234 1.90598C11.8509 2.5785 11.4805 3.47264 11.4805 4.4235C11.4805 5.37455 11.8509 6.26869 12.5234 6.9412C13.2176 7.63537 14.1291 7.98234 15.041 7.98234C15.9526 7.98234 16.8645 7.63519 17.5585 6.9412C19.5071 4.99256 19.467 0.911344 19.4645 0.738469Z" fill="#CCDB39"/>
<path d="M19.4644 0.738469C19.4579 0.331031 19.1276 0.00314063 18.72 0C18.6841 0.0001875 18.4699 0 18.1386 0.0175781C18.0801 1.2517 17.7768 4.09791 16.2459 5.62866C15.5519 6.32264 14.6401 6.6698 13.7284 6.6698C13.1141 6.6698 12.5017 6.5085 11.9541 6.19355C12.1092 6.46289 12.2976 6.71541 12.5234 6.94116C13.2175 7.63533 14.129 7.9823 15.0409 7.9823C15.9525 7.9823 16.8644 7.63514 17.5584 6.94116C19.507 4.99256 19.4669 0.911344 19.4644 0.738469Z" fill="#8AC24A"/>
<path d="M12.4367 4.24174C10.5204 2.32535 6.41527 2.33576 6.23987 2.33595C5.83229 2.3389 5.50196 2.66702 5.49554 3.07446C5.49301 3.2471 5.45307 7.32856 7.40166 9.27696C8.09584 9.97113 9.00732 10.3181 9.91918 10.3181C10.8309 10.3181 11.7427 9.97113 12.4367 9.27715C13.825 7.88881 13.825 5.62999 12.4367 4.24174Z" fill="#8AC24A"/>
<path d="M12.4367 7.73016C11.7427 8.42414 10.8309 8.77111 9.91918 8.77111C9.00732 8.77111 8.09579 8.42409 7.40166 7.72997C6.10529 6.43359 5.68937 4.19438 5.55671 2.78906C5.51888 2.87677 5.49723 2.97309 5.49554 3.07434C5.49301 3.24698 5.45307 7.32844 7.40166 9.27684C8.09584 9.97102 9.00732 10.318 9.91918 10.318C10.8309 10.318 11.7427 9.97102 12.4367 9.27703C13.3286 8.38514 13.6442 7.1347 13.3902 5.98589C13.2488 6.62527 12.9331 7.23375 12.4367 7.73016Z" fill="#7CB242"/>
</g>
<defs>
<clipPath id="clip0_388_6104">
<rect width="24" height="24" fill="white" transform="translate(0.5)"/>
</clipPath>
</defs>
</svg>
