<svg width="25" height="24" viewBox="0 0 25 24" fill="none" xmlns="http://www.w3.org/2000/svg">
<path d="M12.5 3.75C12.3011 3.75 12.1103 3.67098 11.9697 3.53033C11.829 3.38968 11.75 3.19891 11.75 3V1.5C11.75 1.30109 11.829 1.11032 11.9697 0.96967C12.1103 0.829018 12.3011 0.75 12.5 0.75C12.6989 0.75 12.8897 0.829018 13.0303 0.96967C13.171 1.11032 13.25 1.30109 13.25 1.5V3C13.25 3.19891 13.171 3.38968 13.0303 3.53033C12.8897 3.67098 12.6989 3.75 12.5 3.75Z" fill="#FFC166"/>
<path d="M18.8678 6.38283C18.7691 6.38341 18.6712 6.36449 18.5799 6.32716C18.4885 6.28984 18.4054 6.23485 18.3353 6.16533C18.1956 6.02481 18.1172 5.83472 18.1172 5.63658C18.1172 5.43845 18.1956 5.24836 18.3353 5.10783L19.3928 4.04283C19.534 3.90161 19.7256 3.82227 19.9253 3.82227C20.125 3.82227 20.3166 3.90161 20.4578 4.04283C20.599 4.18406 20.6783 4.37561 20.6783 4.57533C20.6783 4.77506 20.599 4.96661 20.4578 5.10783L19.3928 6.16533C19.2531 6.30389 19.0645 6.38201 18.8678 6.38283Z" fill="#FFC166"/>
<path d="M23 12.75H21.5C21.3011 12.75 21.1103 12.671 20.9697 12.5303C20.829 12.3897 20.75 12.1989 20.75 12C20.75 11.8011 20.829 11.6103 20.9697 11.4697C21.1103 11.329 21.3011 11.25 21.5 11.25H23C23.1989 11.25 23.3897 11.329 23.5303 11.4697C23.671 11.6103 23.75 11.8011 23.75 12C23.75 12.1989 23.671 12.3897 23.5303 12.5303C23.3897 12.671 23.1989 12.75 23 12.75Z" fill="#FFC166"/>
<path d="M19.9254 20.1754C19.8267 20.176 19.7288 20.1571 19.6375 20.1197C19.5461 20.0824 19.463 20.0274 19.3929 19.9579L18.3354 18.8929C18.2569 18.8257 18.1931 18.7429 18.1481 18.6499C18.1031 18.5568 18.0778 18.4555 18.0738 18.3522C18.0698 18.2489 18.0872 18.1459 18.1249 18.0497C18.1626 17.9534 18.2198 17.866 18.2929 17.7929C18.366 17.7198 18.4534 17.6626 18.5497 17.6249C18.6459 17.5872 18.7489 17.5698 18.8522 17.5738C18.9555 17.5778 19.0568 17.6031 19.1499 17.6481C19.2429 17.6931 19.3257 17.7569 19.3929 17.8354L20.4579 18.8929C20.5282 18.9626 20.584 19.0456 20.6221 19.137C20.6601 19.2284 20.6797 19.3264 20.6797 19.4254C20.6797 19.5244 20.6601 19.6224 20.6221 19.7138C20.584 19.8052 20.5282 19.8882 20.4579 19.9579C20.3878 20.0274 20.3047 20.0824 20.2133 20.1197C20.122 20.1571 20.0241 20.176 19.9254 20.1754Z" fill="#FFC166"/>
<path d="M12.5 23.25C12.3011 23.25 12.1103 23.171 11.9697 23.0303C11.829 22.8897 11.75 22.6989 11.75 22.5V21C11.75 20.8011 11.829 20.6103 11.9697 20.4697C12.1103 20.329 12.3011 20.25 12.5 20.25C12.6989 20.25 12.8897 20.329 13.0303 20.4697C13.171 20.6103 13.25 20.8011 13.25 21V22.5C13.25 22.6989 13.171 22.8897 13.0303 23.0303C12.8897 23.171 12.6989 23.25 12.5 23.25Z" fill="#FFC166"/>
<path d="M5.07466 20.1754C4.97596 20.176 4.87811 20.1571 4.78673 20.1197C4.69535 20.0824 4.61224 20.0274 4.54216 19.9579C4.47186 19.8882 4.41607 19.8052 4.37799 19.7138C4.33992 19.6224 4.32031 19.5244 4.32031 19.4254C4.32031 19.3264 4.33992 19.2284 4.37799 19.137C4.41607 19.0456 4.47186 18.9626 4.54216 18.8929L5.60716 17.8354C5.6744 17.7569 5.75714 17.6931 5.85018 17.6481C5.94323 17.6031 6.04458 17.5778 6.14787 17.5738C6.25116 17.5698 6.35416 17.5872 6.4504 17.6249C6.54665 17.6626 6.63406 17.7198 6.70715 17.7929C6.78024 17.866 6.83743 17.9534 6.87514 18.0497C6.91285 18.1459 6.93025 18.2489 6.92626 18.3522C6.92227 18.4555 6.89697 18.5568 6.85196 18.6499C6.80694 18.7429 6.74317 18.8257 6.66466 18.8929L5.60716 19.9579C5.53708 20.0274 5.45397 20.0824 5.36259 20.1197C5.27121 20.1571 5.17337 20.176 5.07466 20.1754Z" fill="#FFC166"/>
<path d="M3.5 12.75H2C1.80109 12.75 1.61032 12.671 1.46967 12.5303C1.32902 12.3897 1.25 12.1989 1.25 12C1.25 11.8011 1.32902 11.6103 1.46967 11.4697C1.61032 11.329 1.80109 11.25 2 11.25H3.5C3.69891 11.25 3.88968 11.329 4.03033 11.4697C4.17098 11.6103 4.25 11.8011 4.25 12C4.25 12.1989 4.17098 12.3897 4.03033 12.5303C3.88968 12.671 3.69891 12.75 3.5 12.75Z" fill="#FFC166"/>
<path d="M6.13283 6.38283C5.93608 6.38201 5.74753 6.30389 5.60783 6.16533L4.54283 5.10783C4.40161 4.96661 4.32227 4.77506 4.32227 4.57533C4.32227 4.37561 4.40161 4.18406 4.54283 4.04283C4.68406 3.90161 4.87561 3.82227 5.07533 3.82227C5.27506 3.82227 5.46661 3.90161 5.60783 4.04283L6.66533 5.10783C6.80502 5.24836 6.88343 5.43845 6.88343 5.63658C6.88343 5.83472 6.80502 6.02481 6.66533 6.16533C6.59525 6.23485 6.51214 6.28984 6.42076 6.32716C6.32939 6.36449 6.23154 6.38341 6.13283 6.38283Z" fill="#FFC166"/>
<path d="M19.2497 11.9997C19.2478 13.4243 18.7953 14.8118 17.9569 15.9635C17.1185 17.1153 15.9372 17.9722 14.5821 18.4117C13.227 18.8512 11.7676 18.8507 10.4128 18.4102C9.058 17.9698 7.87729 17.112 7.03969 15.9597C6.93469 15.8172 6.83719 15.6672 6.74719 15.5172C5.96523 14.2255 5.63893 12.709 5.82045 11.21C6.00198 9.71102 6.68085 8.3162 7.74852 7.24852C8.8162 6.18085 10.211 5.50198 11.71 5.32045C13.209 5.13893 14.7255 5.46523 16.0172 6.24719C16.1672 6.33719 16.3172 6.43469 16.4597 6.53969C17.3254 7.16233 18.0301 7.98249 18.5154 8.93209C19.0006 9.88168 19.2523 10.9333 19.2497 11.9997Z" fill="#FFC166"/>
<path d="M16.9997 9.74969C16.9992 10.9469 16.6803 12.1224 16.0757 13.1558C15.4711 14.1891 14.6026 15.043 13.5592 15.63C12.5157 16.217 11.3349 16.5159 10.1379 16.4961C8.94084 16.4763 7.77061 16.1384 6.74719 15.5172C5.96523 14.2255 5.63893 12.709 5.82045 11.21C6.00198 9.71102 6.68085 8.3162 7.74852 7.24852C8.8162 6.18085 10.211 5.50198 11.71 5.32045C13.209 5.13893 14.7255 5.46523 16.0172 6.24719C16.6612 7.30184 17.0012 8.51395 16.9997 9.74969Z" fill="#FFD64F"/>
</svg>
