<svg width="172" height="216" viewBox="0 0 172 216" fill="none" xmlns="http://www.w3.org/2000/svg">
<g clip-path="url(#clip0_338_4887)">
<path d="M140 59.1817V122.718C140 131.604 132.796 138.805 123.91 138.804H17.7844C26.6704 138.805 33.8735 131.604 33.8735 122.718V59.1817C33.8735 50.2973 41.0751 43.0941 49.9595 43.0957H123.91C132.796 43.0941 140 50.2957 140 59.1817Z" fill="#E48E66"/>
<path d="M120.269 39.8164V43.0946H49.9594C41.075 43.093 33.8719 50.2961 33.8735 59.1805V122.717C33.8735 131.602 26.6688 138.804 17.7844 138.803H16.0906C7.2047 138.804 0 131.602 0 122.717V21.2852C0 12.4008 7.2047 5.19766 16.0906 5.19922H52.1844C56.7032 5.19922 61.0126 7.09766 64.061 10.432L75.0157 22.418C75.7782 23.2524 76.8563 23.7289 77.9876 23.7289H104.178C113.064 23.7274 120.269 30.9305 120.269 39.8164Z" fill="#F8EC7D"/>
<path d="M95.1407 142.364C88.2719 126.108 92.8657 107.272 106.447 96.0029C120.028 84.7341 139.389 83.6966 154.099 93.4466C168.808 103.198 175.389 121.436 170.299 138.333C165.208 155.231 149.647 166.797 132 166.8C115.906 166.845 101.366 157.205 95.1407 142.364Z" fill="#6FE3FF"/>
<path d="M132 132.948C130.453 132.948 129.2 131.694 129.2 130.148V108.8C129.2 107.253 130.453 106 132 106C133.547 106 134.8 107.253 134.8 108.8V130.148C134.8 131.694 133.547 132.948 132 132.948Z" fill="#2561A1"/>
<path d="M132 147.601C130.453 147.601 129.2 146.348 129.2 144.801V141.773C129.2 140.226 130.453 138.973 132 138.973C133.547 138.973 134.8 140.226 134.8 141.773V144.801C134.8 146.348 133.547 147.601 132 147.601Z" fill="#2561A1"/>
</g>
<path d="M36.8357 210H34.5957L29.5237 202.336V210H27.2837V198.816H29.5237L34.5957 206.496V198.816H36.8357V210ZM42.9853 210.144C42.132 210.144 41.364 209.957 40.6813 209.584C39.9986 209.2 39.46 208.661 39.0653 207.968C38.6813 207.275 38.4893 206.475 38.4893 205.568C38.4893 204.661 38.6866 203.861 39.0813 203.168C39.4866 202.475 40.036 201.941 40.7293 201.568C41.4226 201.184 42.196 200.992 43.0493 200.992C43.9026 200.992 44.676 201.184 45.3693 201.568C46.0626 201.941 46.6066 202.475 47.0013 203.168C47.4066 203.861 47.6093 204.661 47.6093 205.568C47.6093 206.475 47.4013 207.275 46.9853 207.968C46.58 208.661 46.0253 209.2 45.3213 209.584C44.628 209.957 43.8493 210.144 42.9853 210.144ZM42.9853 208.192C43.3906 208.192 43.7693 208.096 44.1213 207.904C44.484 207.701 44.772 207.403 44.9853 207.008C45.1986 206.613 45.3053 206.133 45.3053 205.568C45.3053 204.725 45.0813 204.08 44.6333 203.632C44.196 203.173 43.6573 202.944 43.0173 202.944C42.3773 202.944 41.8386 203.173 41.4013 203.632C40.9746 204.08 40.7613 204.725 40.7613 205.568C40.7613 206.411 40.9693 207.061 41.3853 207.52C41.812 207.968 42.3453 208.192 42.9853 208.192ZM56.9689 198.832C58.1423 198.832 59.1716 199.061 60.0569 199.52C60.9529 199.979 61.6409 200.635 62.1209 201.488C62.6116 202.331 62.8569 203.312 62.8569 204.432C62.8569 205.552 62.6116 206.533 62.1209 207.376C61.6409 208.208 60.9529 208.853 60.0569 209.312C59.1716 209.771 58.1423 210 56.9689 210H53.0649V198.832H56.9689ZM56.8889 208.096C58.0623 208.096 58.9689 207.776 59.6089 207.136C60.2489 206.496 60.5689 205.595 60.5689 204.432C60.5689 203.269 60.2489 202.363 59.6089 201.712C58.9689 201.051 58.0623 200.72 56.8889 200.72H55.3049V208.096H56.8889ZM63.9577 205.536C63.9577 204.64 64.1337 203.845 64.4857 203.152C64.8484 202.459 65.3337 201.925 65.9417 201.552C66.5604 201.179 67.2484 200.992 68.0057 200.992C68.667 200.992 69.243 201.125 69.7337 201.392C70.235 201.659 70.635 201.995 70.9337 202.4V201.136H73.1897V210H70.9337V208.704C70.6457 209.12 70.2457 209.467 69.7337 209.744C69.2324 210.011 68.651 210.144 67.9897 210.144C67.243 210.144 66.5604 209.952 65.9417 209.568C65.3337 209.184 64.8484 208.645 64.4857 207.952C64.1337 207.248 63.9577 206.443 63.9577 205.536ZM70.9337 205.568C70.9337 205.024 70.827 204.56 70.6137 204.176C70.4004 203.781 70.1124 203.483 69.7497 203.28C69.387 203.067 68.9977 202.96 68.5817 202.96C68.1657 202.96 67.7817 203.061 67.4297 203.264C67.0777 203.467 66.7897 203.765 66.5657 204.16C66.3524 204.544 66.2457 205.003 66.2457 205.536C66.2457 206.069 66.3524 206.539 66.5657 206.944C66.7897 207.339 67.0777 207.643 67.4297 207.856C67.7924 208.069 68.1764 208.176 68.5817 208.176C68.9977 208.176 69.387 208.075 69.7497 207.872C70.1124 207.659 70.4004 207.36 70.6137 206.976C70.827 206.581 70.9337 206.112 70.9337 205.568ZM77.9854 202.976V207.264C77.9854 207.563 78.0548 207.781 78.1934 207.92C78.3428 208.048 78.5881 208.112 78.9294 208.112H79.9694V210H78.5614C76.6734 210 75.7294 209.083 75.7294 207.248V202.976H74.6734V201.136H75.7294V198.944H77.9854V201.136H79.9694V202.976H77.9854ZM81.0046 205.536C81.0046 204.64 81.1806 203.845 81.5326 203.152C81.8952 202.459 82.3806 201.925 82.9886 201.552C83.6072 201.179 84.2952 200.992 85.0526 200.992C85.7139 200.992 86.2899 201.125 86.7806 201.392C87.2819 201.659 87.6819 201.995 87.9806 202.4V201.136H90.2366V210H87.9806V208.704C87.6926 209.12 87.2926 209.467 86.7806 209.744C86.2792 210.011 85.6979 210.144 85.0366 210.144C84.2899 210.144 83.6072 209.952 82.9886 209.568C82.3806 209.184 81.8952 208.645 81.5326 207.952C81.1806 207.248 81.0046 206.443 81.0046 205.536ZM87.9806 205.568C87.9806 205.024 87.8739 204.56 87.6606 204.176C87.4472 203.781 87.1592 203.483 86.7966 203.28C86.4339 203.067 86.0446 202.96 85.6286 202.96C85.2126 202.96 84.8286 203.061 84.4766 203.264C84.1246 203.467 83.8366 203.765 83.6126 204.16C83.3992 204.544 83.2926 205.003 83.2926 205.536C83.2926 206.069 83.3992 206.539 83.6126 206.944C83.8366 207.339 84.1246 207.643 84.4766 207.856C84.8392 208.069 85.2232 208.176 85.6286 208.176C86.0446 208.176 86.4339 208.075 86.7966 207.872C87.1592 207.659 87.4472 207.36 87.6606 206.976C87.8739 206.581 87.9806 206.112 87.9806 205.568ZM103.133 198.832V200.64H98.4768V203.504H102.045V205.28H98.4768V210H96.2368V198.832H103.133ZM108.657 210.144C107.804 210.144 107.036 209.957 106.353 209.584C105.671 209.2 105.132 208.661 104.737 207.968C104.353 207.275 104.161 206.475 104.161 205.568C104.161 204.661 104.359 203.861 104.753 203.168C105.159 202.475 105.708 201.941 106.401 201.568C107.095 201.184 107.868 200.992 108.721 200.992C109.575 200.992 110.348 201.184 111.041 201.568C111.735 201.941 112.279 202.475 112.673 203.168C113.079 203.861 113.281 204.661 113.281 205.568C113.281 206.475 113.073 207.275 112.657 207.968C112.252 208.661 111.697 209.2 110.993 209.584C110.3 209.957 109.521 210.144 108.657 210.144ZM108.657 208.192C109.063 208.192 109.441 208.096 109.793 207.904C110.156 207.701 110.444 207.403 110.657 207.008C110.871 206.613 110.977 206.133 110.977 205.568C110.977 204.725 110.753 204.08 110.305 203.632C109.868 203.173 109.329 202.944 108.689 202.944C108.049 202.944 107.511 203.173 107.073 203.632C106.647 204.08 106.433 204.725 106.433 205.568C106.433 206.411 106.641 207.061 107.057 207.52C107.484 207.968 108.017 208.192 108.657 208.192ZM123.292 201.136V210H121.036V208.88C120.748 209.264 120.37 209.568 119.9 209.792C119.442 210.005 118.94 210.112 118.396 210.112C117.703 210.112 117.09 209.968 116.556 209.68C116.023 209.381 115.602 208.949 115.292 208.384C114.994 207.808 114.844 207.125 114.844 206.336V201.136H117.084V206.016C117.084 206.72 117.26 207.264 117.612 207.648C117.964 208.021 118.444 208.208 119.052 208.208C119.671 208.208 120.156 208.021 120.508 207.648C120.86 207.264 121.036 206.72 121.036 206.016V201.136H123.292ZM130.414 201.008C131.47 201.008 132.324 201.344 132.974 202.016C133.625 202.677 133.95 203.605 133.95 204.8V210H131.71V205.104C131.71 204.4 131.534 203.861 131.182 203.488C130.83 203.104 130.35 202.912 129.742 202.912C129.124 202.912 128.633 203.104 128.27 203.488C127.918 203.861 127.742 204.4 127.742 205.104V210H125.502V201.136H127.742V202.24C128.041 201.856 128.42 201.557 128.878 201.344C129.348 201.12 129.86 201.008 130.414 201.008ZM135.505 205.536C135.505 204.64 135.681 203.845 136.033 203.152C136.395 202.459 136.886 201.925 137.505 201.552C138.123 201.179 138.811 200.992 139.569 200.992C140.145 200.992 140.694 201.12 141.217 201.376C141.739 201.621 142.155 201.952 142.465 202.368V198.16H144.737V210H142.465V208.688C142.187 209.125 141.798 209.477 141.297 209.744C140.795 210.011 140.214 210.144 139.553 210.144C138.806 210.144 138.123 209.952 137.505 209.568C136.886 209.184 136.395 208.645 136.033 207.952C135.681 207.248 135.505 206.443 135.505 205.536ZM142.481 205.568C142.481 205.024 142.374 204.56 142.161 204.176C141.947 203.781 141.659 203.483 141.297 203.28C140.934 203.067 140.545 202.96 140.129 202.96C139.713 202.96 139.329 203.061 138.977 203.264C138.625 203.467 138.337 203.765 138.113 204.16C137.899 204.544 137.793 205.003 137.793 205.536C137.793 206.069 137.899 206.539 138.113 206.944C138.337 207.339 138.625 207.643 138.977 207.856C139.339 208.069 139.723 208.176 140.129 208.176C140.545 208.176 140.934 208.075 141.297 207.872C141.659 207.659 141.947 207.36 142.161 206.976C142.374 206.581 142.481 206.112 142.481 205.568Z" fill="#1F1F1F"/>
<defs>
<clipPath id="clip0_338_4887">
<rect width="172" height="172" fill="white"/>
</clipPath>
</defs>
</svg>
