<svg width="24" height="24" viewBox="0 0 24 24" fill="none" xmlns="http://www.w3.org/2000/svg">
<path d="M14.9326 19.5753H11.6251C11.4261 19.5753 11.2354 19.4963 11.0947 19.3556C10.9541 19.215 10.8751 19.0242 10.8751 18.8253C10.8751 18.6264 10.9541 18.4356 11.0947 18.295C11.2354 18.1543 11.4261 18.0753 11.6251 18.0753H14.9326C14.9444 18.0803 14.9572 18.0828 14.97 18.0828C14.9829 18.0828 14.9957 18.0803 15.0076 18.0753V16.5753C15.0076 16.5753 15.0076 16.5753 14.9401 16.5753H12.0676C11.8602 16.5784 11.6544 16.5397 11.4623 16.4615C11.2703 16.3833 11.0959 16.2673 10.9497 16.1203C10.8034 15.9734 10.6882 15.7985 10.611 15.606C10.5337 15.4136 10.496 15.2076 10.5001 15.0003V13.5003C10.5099 13.0938 10.6803 12.7078 10.9741 12.4267C11.2679 12.1456 11.661 11.9922 12.0676 12.0003H15.3751C15.574 12.0003 15.7647 12.0793 15.9054 12.22C16.046 12.3606 16.1251 12.5514 16.1251 12.7503C16.1251 12.9492 16.046 13.14 15.9054 13.2806C15.7647 13.4213 15.574 13.5003 15.3751 13.5003H12.0676C12.0557 13.4954 12.0429 13.4928 12.0301 13.4928C12.0172 13.4928 12.0044 13.4954 11.9926 13.5003V15.0003C11.9926 15.0003 11.9926 15.0003 12.0601 15.0003H14.925C15.3316 14.9922 15.7247 15.1456 16.0185 15.4267C16.3123 15.7078 16.4827 16.0938 16.4925 16.5003V18.0003C16.4976 18.2073 16.4609 18.4131 16.3844 18.6055C16.308 18.7979 16.1936 18.9729 16.0479 19.1199C15.9022 19.267 15.7283 19.3832 15.5367 19.4614C15.345 19.5397 15.1395 19.5784 14.9326 19.5753Z" fill="white"/>
<path d="M13.5 13.5C13.3011 13.5 13.1103 13.421 12.9697 13.2803C12.829 13.1397 12.75 12.9489 12.75 12.75V12C12.75 11.8011 12.829 11.6103 12.9697 11.4697C13.1103 11.329 13.3011 11.25 13.5 11.25C13.6989 11.25 13.8897 11.329 14.0303 11.4697C14.171 11.6103 14.25 11.8011 14.25 12V12.75C14.25 12.9489 14.171 13.1397 14.0303 13.2803C13.8897 13.421 13.6989 13.5 13.5 13.5Z" fill="white"/>
<path d="M13.5 20.2492C13.3011 20.2492 13.1103 20.1702 12.9697 20.0295C12.829 19.8889 12.75 19.6981 12.75 19.4992V18.8242C12.75 18.6253 12.829 18.4345 12.9697 18.2939C13.1103 18.1532 13.3011 18.0742 13.5 18.0742C13.6989 18.0742 13.8897 18.1532 14.0303 18.2939C14.171 18.4345 14.25 18.6253 14.25 18.8242V19.4992C14.25 19.6981 14.171 19.8889 14.0303 20.0295C13.8897 20.1702 13.6989 20.2492 13.5 20.2492Z" fill="white"/>
<path d="M4.5 12.75H3C2.60218 12.75 2.22064 12.592 1.93934 12.3107C1.65804 12.0294 1.5 11.6478 1.5 11.25V3.75C1.5 3.15326 1.73705 2.58097 2.15901 2.15901C2.58097 1.73705 3.15326 1.5 3.75 1.5C4.34674 1.5 4.91903 1.73705 5.34099 2.15901C5.76295 2.58097 6 3.15326 6 3.75V11.25C6 11.6478 5.84196 12.0294 5.56066 12.3107C5.27936 12.592 4.89782 12.75 4.5 12.75ZM3.75 3C3.55109 3 3.36032 3.07902 3.21967 3.21967C3.07902 3.36032 3 3.55109 3 3.75V11.25H4.5V3.75C4.5 3.55109 4.42098 3.36032 4.28033 3.21967C4.13968 3.07902 3.94891 3 3.75 3Z" fill="white"/>
<path d="M21 22.5H6C5.60218 22.5 5.22064 22.342 4.93934 22.0607C4.65804 21.7794 4.5 21.3978 4.5 21V12C4.5 11.8011 4.57902 11.6103 4.71967 11.4697C4.86032 11.329 5.05109 11.25 5.25 11.25C5.44891 11.25 5.63968 11.329 5.78033 11.4697C5.92098 11.6103 6 11.8011 6 12V21H21V3H3.75C3.55109 3 3.36032 2.92098 3.21967 2.78033C3.07902 2.63968 3 2.44891 3 2.25C3 2.05109 3.07902 1.86032 3.21967 1.71967C3.36032 1.57902 3.55109 1.5 3.75 1.5H21C21.3978 1.5 21.7794 1.65804 22.0607 1.93934C22.342 2.22064 22.5 2.60218 22.5 3V21C22.5 21.3978 22.342 21.7794 22.0607 22.0607C21.7794 22.342 21.3978 22.5 21 22.5Z" fill="white"/>
<path d="M18 6H9C8.80109 6 8.61032 5.92098 8.46967 5.78033C8.32902 5.63968 8.25 5.44891 8.25 5.25C8.25 5.05109 8.32902 4.86032 8.46967 4.71967C8.61032 4.57902 8.80109 4.5 9 4.5H18C18.1989 4.5 18.3897 4.57902 18.5303 4.71967C18.671 4.86032 18.75 5.05109 18.75 5.25C18.75 5.44891 18.671 5.63968 18.5303 5.78033C18.3897 5.92098 18.1989 6 18 6Z" fill="white"/>
<path d="M18 9H9C8.80109 9 8.61032 8.92098 8.46967 8.78033C8.32902 8.63968 8.25 8.44891 8.25 8.25C8.25 8.05109 8.32902 7.86032 8.46967 7.71967C8.61032 7.57902 8.80109 7.5 9 7.5H18C18.1989 7.5 18.3897 7.57902 18.5303 7.71967C18.671 7.86032 18.75 8.05109 18.75 8.25C18.75 8.44891 18.671 8.63968 18.5303 8.78033C18.3897 8.92098 18.1989 9 18 9Z" fill="white"/>
</svg>
