<svg width="24" height="24" viewBox="0 0 24 24" fill="none" xmlns="http://www.w3.org/2000/svg">
<g clip-path="url(#clip0_388_6302)">
<path d="M22.5935 5.75604C21.4357 3.79198 19.7388 2.31073 17.3997 1.22323C15.806 0.482606 14.0482 0.0982308 12.1732 0.0747933C9.60912 0.0513558 7.28412 0.745106 5.25912 2.12792C2.51693 4.00761 0.820055 6.60917 0.215368 9.86229C-0.300258 12.6326 0.107555 15.2342 1.42006 17.5967C3.66537 21.6279 7.15756 23.756 11.7982 23.9154H11.9341C13.4763 23.9154 14.7513 22.992 15.2013 21.5342C15.5341 20.4514 15.3091 19.3873 14.5497 18.4639C14.4419 18.3326 14.456 18.2998 14.4747 18.267C14.4982 18.2201 14.5169 18.1826 14.681 18.1873C14.9482 18.1967 15.2201 18.192 15.5388 18.192H16.031C17.6154 18.267 19.1154 17.892 20.3763 17.1092C22.5747 15.7404 23.7841 13.7857 23.9716 11.2967C24.1169 9.41698 23.6529 7.55136 22.5935 5.75604ZM23.0857 11.2357C22.9216 13.4248 21.8529 15.1451 19.9122 16.3545C18.8013 17.0435 17.4747 17.3717 16.0685 17.3014H16.0451C15.8576 17.3014 15.6888 17.3014 15.5341 17.3014C15.2154 17.3014 14.9622 17.306 14.7091 17.2967C14.0904 17.2779 13.8044 17.606 13.6732 17.8826C13.5466 18.1451 13.4763 18.5576 13.8654 19.031C14.4326 19.7248 14.5966 20.4795 14.3529 21.2764C14.006 22.3967 13.0404 23.067 11.8357 23.0248C7.52318 22.8748 4.28412 20.9014 2.20287 17.1654C0.993493 14.9904 0.618493 12.5904 1.09662 10.0264C1.65912 7.01229 3.22943 4.60761 5.77006 2.86386C7.60287 1.60761 9.71224 0.970106 12.0419 0.970106H12.1685C13.9122 0.988856 15.5482 1.34511 17.0247 2.03417C19.1951 3.04198 20.7654 4.41073 21.8247 6.21073C22.7857 7.84667 23.2122 9.53417 23.0857 11.2357Z" fill="#1F1F1F"/>
<path d="M6.32812 10.4717C4.95469 10.4717 3.84375 11.5826 3.84375 12.9561C3.84375 14.3295 4.95469 15.4404 6.32812 15.4404C7.70156 15.4404 8.8125 14.3295 8.8125 12.9561C8.8125 11.5826 7.70156 10.4717 6.32812 10.4717ZM6.32812 14.5451C5.45156 14.5451 4.73906 13.8326 4.73906 12.9561C4.73906 12.0795 5.45156 11.367 6.32812 11.367C7.20469 11.367 7.91719 12.0795 7.91719 12.9561C7.91719 13.8326 7.20469 14.5451 6.32812 14.5451Z" fill="#1F1F1F"/>
<path d="M7.48535 5.49805C6.11191 5.49805 5.00098 6.60898 5.00098 7.98242C5.00098 9.35586 6.11191 10.4668 7.48535 10.4668C8.85879 10.4668 9.96973 9.35586 9.96973 7.98242C9.96504 6.60898 8.8541 5.49805 7.48535 5.49805ZM7.48535 9.57148C6.60879 9.57148 5.89629 8.85898 5.89629 7.98242C5.89629 7.10586 6.60879 6.39336 7.48535 6.39336C8.36191 6.39336 9.07441 7.10586 9.07441 7.98242C9.07441 8.85898 8.36191 9.5668 7.48535 9.57148Z" fill="#1F1F1F"/>
<path d="M12.0703 3.20605C10.6969 3.20605 9.58594 4.31699 9.58594 5.69043C9.58594 7.06387 10.6969 8.1748 12.0703 8.1748C13.4437 8.1748 14.5547 7.06387 14.5547 5.69043C14.5547 4.32168 13.4437 3.21074 12.0703 3.20605ZM12.0703 7.28418C11.1937 7.28418 10.4813 6.57168 10.4813 5.69512C10.4813 4.81855 11.1937 4.10605 12.0703 4.10605C12.9469 4.10605 13.6594 4.81855 13.6594 5.69512C13.6594 6.57168 12.9516 7.27949 12.0703 7.28418Z" fill="#1F1F1F"/>
<path d="M16.6592 5.49805C15.2857 5.49805 14.1748 6.60898 14.1748 7.98242C14.1748 9.35586 15.2857 10.4668 16.6592 10.4668C18.0326 10.4668 19.1436 9.35586 19.1436 7.98242C19.1436 6.60898 18.0326 5.49805 16.6592 5.49805ZM16.6592 9.57148C15.7826 9.57148 15.0701 8.85898 15.0701 7.98242C15.0701 7.10586 15.7826 6.39336 16.6592 6.39336C17.5357 6.39336 18.2482 7.10586 18.2482 7.98242C18.2482 8.85898 17.5357 9.5668 16.6592 9.57148Z" fill="#1F1F1F"/>
</g>
<defs>
<clipPath id="clip0_388_6302">
<rect width="24" height="24" fill="white"/>
</clipPath>
</defs>
</svg>
