<svg width="24" height="24" viewBox="0 0 24 24" fill="none" xmlns="http://www.w3.org/2000/svg">
<g clip-path="url(#clip0_388_6281)">
<path d="M23.2141 2.18016C22.6966 1.75671 22.0125 1.63896 21.3842 1.86514C17.9588 3.09811 14.1674 2.54022 11.2423 0.372656C10.7058 -0.024912 10.0168 -0.109198 9.39925 0.147175C8.69824 0.43819 8.18892 1.12091 8.06999 1.92894L7.30786 7.10787C7.28807 7.24236 7.27143 7.37718 7.25624 7.51209C5.70577 7.66595 4.11733 7.48603 2.59723 6.95439C1.96687 6.73398 1.28391 6.85787 0.770231 7.286C0.187122 7.77194 -0.0966739 8.57509 0.0295671 9.38199L0.838672 14.5537C1.11084 16.2934 1.76792 17.9582 2.7389 19.368C3.71681 20.7878 4.99638 21.9253 6.43931 22.6573L8.34643 23.6248C8.84389 23.8772 9.3797 24 9.91143 23.9999C10.801 23.9999 11.6786 23.6559 12.3422 22.9997L13.8626 21.4959C14.7021 20.6657 15.3919 19.6559 15.8973 18.5297L17.685 17.6023C19.1212 16.8572 20.3904 15.7082 21.3553 14.2795C22.3135 12.8609 22.9554 11.1903 23.2118 9.44818L23.9739 4.2693C24.0927 3.46132 23.8016 2.66075 23.2141 2.18016ZM20.1898 13.4923C19.3559 14.7271 18.2657 15.7166 17.0372 16.3539L16.5504 16.6065C16.8988 15.1446 16.9584 13.5892 16.7206 12.0691L15.9115 6.89734C15.7852 6.09044 15.2697 5.41231 14.566 5.12772C13.9462 4.87697 13.258 4.96754 12.7251 5.36993C11.5096 6.28784 10.1396 6.92425 8.70584 7.26735L9.46131 2.1337C9.51789 1.74926 9.74487 1.5264 9.93843 1.44606C10.0035 1.41901 10.0673 1.40551 10.1294 1.40551C10.2256 1.40551 10.3178 1.4379 10.4051 1.50259C13.709 3.95091 17.9914 4.58094 21.8605 3.18835C22.0286 3.12774 22.1845 3.15483 22.3236 3.26861C22.4858 3.40132 22.639 3.6801 22.5825 4.06458L21.8204 9.24351C21.5945 10.7782 21.0307 12.2474 20.1898 13.4923ZM8.98265 22.3707L7.07558 21.4032C5.84134 20.777 4.74225 19.7974 3.8971 18.5703C3.04501 17.3331 2.4679 15.869 2.22812 14.3364L1.41897 9.16462C1.35892 8.78069 1.50954 8.50051 1.67056 8.3663C1.76197 8.29012 1.86102 8.25196 1.9665 8.25196C2.02036 8.25196 2.07591 8.2619 2.13296 8.28187C6.0146 9.63935 10.2911 8.97027 13.5726 6.49218C13.7153 6.38446 13.8721 6.36402 14.0387 6.43138C14.233 6.50999 14.462 6.73074 14.5221 7.11471L15.3312 12.2865C15.5709 13.8191 15.4686 15.3895 15.035 16.8278C14.6051 18.2544 13.8577 19.5229 12.8737 20.496L11.3532 21.9998C10.7242 22.6219 9.77155 22.7709 8.98265 22.3707Z" fill="#1F1F1F"/>
<path d="M6.25215 13.5746C6.54368 13.8312 6.98799 13.8029 7.24455 13.5113C7.50111 13.2198 7.4728 12.7755 7.18126 12.5189C6.57833 11.9883 5.84657 11.7586 5.12091 11.8721C4.39524 11.9856 3.76863 12.4278 3.35653 13.1173C3.1573 13.4506 3.26601 13.8824 3.59936 14.0816C3.71238 14.1491 3.8367 14.1813 3.95947 14.1813C4.19873 14.1813 4.43204 14.0591 4.56372 13.8388C4.75765 13.5143 5.03273 13.3093 5.33828 13.2615C5.64382 13.2137 5.96845 13.3249 6.25215 13.5746Z" fill="#1F1F1F"/>
<path d="M10.3289 13.029C10.4419 13.0965 10.5662 13.1287 10.689 13.1287C10.9282 13.1287 11.1615 13.0064 11.2932 12.7861C11.4871 12.4616 11.7622 12.2566 12.0678 12.2088C12.3731 12.161 12.6978 12.2722 12.9816 12.522C13.2732 12.7785 13.7175 12.7502 13.974 12.4587C14.2306 12.1672 14.2023 11.7228 13.9108 11.4663C13.3078 10.9356 12.5758 10.7057 11.8504 10.8194C11.1247 10.933 10.4981 11.3752 10.086 12.0647C9.88679 12.3981 9.9955 12.8298 10.3289 13.029Z" fill="#1F1F1F"/>
<path d="M12.1111 18.8575C12.649 18.1201 12.8675 17.2174 12.7264 16.3156C12.6983 16.1358 12.6549 15.9556 12.5976 15.7798C12.523 15.5515 12.337 15.377 12.1044 15.3171C11.8718 15.2573 11.6246 15.3202 11.4491 15.4842C10.8532 16.041 10.1105 16.4022 9.30123 16.5288C8.49193 16.6554 7.67444 16.5383 6.93696 16.1902C6.71973 16.0876 6.46523 16.1031 6.26193 16.2311C6.05871 16.3592 5.93486 16.5822 5.93364 16.8224C5.93266 17.0073 5.94644 17.1922 5.97457 17.3719C6.11562 18.2736 6.59944 19.0665 7.33683 19.6044C7.928 20.0356 8.62525 20.2615 9.34323 20.2615C9.52085 20.2615 9.69983 20.2477 9.87862 20.2197C10.7804 20.0787 11.5732 19.5948 12.1111 18.8575ZM8.16562 18.4682C7.9467 18.3085 7.76575 18.1106 7.62953 17.8855C8.24756 18.0053 8.88514 18.0173 9.5186 17.9182C10.1516 17.8192 10.7546 17.6132 11.3062 17.3108C11.1215 18.0796 10.4897 18.7006 9.66129 18.8302C9.13055 18.9134 8.59952 18.7847 8.16562 18.4682Z" fill="#1F1F1F"/>
</g>
<defs>
<clipPath id="clip0_388_6281">
<rect width="24" height="24" fill="white"/>
</clipPath>
</defs>
</svg>
