<svg width="24" height="24" viewBox="0 0 24 24" fill="none" xmlns="http://www.w3.org/2000/svg">
<path d="M23.25 17.25H21.75V13.5C21.75 10.9141 20.7228 8.43419 18.8943 6.60571C17.0658 4.77723 14.5859 3.75 12 3.75C9.41414 3.75 6.93419 4.77723 5.10571 6.60571C3.27723 8.43419 2.25 10.9141 2.25 13.5V17.25H0.75V13.5C0.75 10.5163 1.93526 7.65483 4.04505 5.54505C6.15483 3.43526 9.01631 2.25 12 2.25C14.9837 2.25 17.8452 3.43526 19.955 5.54505C22.0647 7.65483 23.25 10.5163 23.25 13.5V17.25Z" fill="#1F1F1F"/>
<path d="M5.4225 21.75H4.5C4.00754 21.75 3.51991 21.653 3.06494 21.4645C2.60997 21.2761 2.19657 20.9999 1.84835 20.6517C1.14509 19.9484 0.75 18.9946 0.75 18V16.5C0.75 15.5054 1.14509 14.5516 1.84835 13.8483C2.55161 13.1451 3.50544 12.75 4.5 12.75H5.4225C5.77663 12.7559 6.11425 12.9007 6.36258 13.1533C6.61091 13.4058 6.75005 13.7458 6.75 14.1V20.4C6.75005 20.7542 6.61091 21.0942 6.36258 21.3467C6.11425 21.5993 5.77663 21.7441 5.4225 21.75ZM4.5 14.25C3.90326 14.25 3.33097 14.4871 2.90901 14.909C2.48705 15.331 2.25 15.9033 2.25 16.5V18C2.25 18.5967 2.48705 19.169 2.90901 19.591C3.33097 20.0129 3.90326 20.25 4.5 20.25H5.25V14.25H4.5Z" fill="#1F1F1F"/>
<path d="M19.5 21.75H18.6C18.242 21.75 17.8986 21.6078 17.6454 21.3546C17.3922 21.1014 17.25 20.758 17.25 20.4V14.1C17.25 13.742 17.3922 13.3986 17.6454 13.1454C17.8986 12.8922 18.242 12.75 18.6 12.75H19.5C20.4946 12.75 21.4484 13.1451 22.1517 13.8483C22.8549 14.5516 23.25 15.5054 23.25 16.5V18C23.25 18.9946 22.8549 19.9484 22.1517 20.6517C21.4484 21.3549 20.4946 21.75 19.5 21.75ZM18.75 20.25H19.5C20.0967 20.25 20.669 20.0129 21.091 19.591C21.5129 19.169 21.75 18.5967 21.75 18V16.5C21.75 15.9033 21.5129 15.331 21.091 14.909C20.669 14.4871 20.0967 14.25 19.5 14.25H18.75V20.25Z" fill="#1F1F1F"/>
</svg>
