<svg width="24" height="24" viewBox="0 0 24 24" fill="none" xmlns="http://www.w3.org/2000/svg">
<g clip-path="url(#clip0_388_6201)">
<path d="M23.9966 0.362405V2.89421L21.0996 4.39242L22.5481 0.0402145C22.9058 0.0189218 23.266 0.00545091 23.6279 4.32451e-05C23.8304 -0.00304685 23.9966 0.159859 23.9966 0.362405Z" fill="#DB3916"/>
<path d="M22.5482 0.0400391V2.94376L2.89714 23.9936H0.365335C0.162741 23.9936 -0.000117151 23.8273 0.00297295 23.6248C0.192724 11.0262 10.0909 0.78171 22.5482 0.0400391Z" fill="#FC5A37"/>
<path d="M23.9966 2.89453V5.7915L21.0996 7.29743L22.5481 2.94426C23.0266 2.91095 23.5099 2.89453 23.9966 2.89453Z" fill="#FE843F"/>
<path d="M22.5485 2.94434V5.84903L5.79443 23.9942H2.89746C2.89746 12.8466 11.5874 3.6903 22.5485 2.94434Z" fill="#FFAE46"/>
<path d="M23.9966 5.79102V8.68798L21.0996 10.2045L22.5481 5.84847C23.0261 5.81033 23.5089 5.79102 23.9966 5.79102Z" fill="#FFC85F"/>
<path d="M22.5481 5.84863V8.75622C22.5481 8.75622 8.69091 24.3559 8.69091 23.9938H5.79395C5.79395 14.4444 13.1856 6.58881 22.5481 5.84863Z" fill="#FFE278"/>
<path d="M23.9972 8.68848V11.5854L15.6201 17.8318L22.5487 8.75656C23.0257 8.71165 23.5086 8.68848 23.9972 8.68848Z" fill="#2FA157"/>
<path d="M22.5486 8.75586V11.6688L15.62 17.8311L11.5884 23.9934H8.69141C8.69141 16.0427 14.7861 9.48783 22.5486 8.75586Z" fill="#47BF70"/>
<path d="M23.9972 11.585V14.4819L20.376 17.0061L22.5487 11.669C23.0238 11.6134 23.5071 11.585 23.9972 11.585Z" fill="#12B5FF"/>
<path d="M22.5481 11.6689V14.592L14.4849 23.9936H11.5879C11.5879 17.6415 16.3857 12.3884 22.5481 11.6689Z" fill="#48D9FF"/>
<path d="M23.9966 14.4824V17.0269C23.9966 17.2191 23.8464 17.3783 23.6544 17.3881C23.2765 17.4074 22.9069 17.4586 22.5481 17.5392L21.0996 16.0658L22.5481 14.5925C23.0203 14.5201 23.5041 14.4824 23.9966 14.4824Z" fill="#487ED2"/>
<path d="M22.5486 14.5928V17.5395C19.7032 18.1773 17.5446 20.6539 17.3911 23.652C17.3812 23.844 17.2221 23.9944 17.0299 23.9944H14.4854C14.4854 19.2419 17.9887 15.2924 22.5486 14.5928Z" fill="#73A7E6"/>
</g>
<defs>
<clipPath id="clip0_388_6201">
<rect width="24" height="24" fill="white"/>
</clipPath>
</defs>
</svg>
